<svg id="Layer_1" data-name="Layer 1" xmlns="http://www.w3.org/2000/svg" viewBox="0 0 112.54 172.93"><defs><style>.cls-1{fill:#060605;}.cls-2{fill:#fff;}.cls-3{fill:#ecd107;}</style></defs><title>Genio</title><path class="cls-1" d="M401.41-221.21a54.66,54.66,0,0,1-7.54-1.92,47.17,47.17,0,0,1-17-9.5A54.35,54.35,0,0,1,367-243.87a19.26,19.26,0,0,1-2.19-4.63.79.79,0,0,1-.06-.63c.35,0,.58.24.87.37a1.87,1.87,0,0,0,1.48.22,1.22,1.22,0,0,0,.95-1.16,11.28,11.28,0,0,1,2-5.66,3,3,0,0,0,.35-2.08,46.46,46.46,0,0,1-.18-7.08,42.61,42.61,0,0,1,2.42-11.94,47.57,47.57,0,0,0,1.36-5.57,51.32,51.32,0,0,1,5.38-14.27,15,15,0,0,1,2.48-3.39,3.61,3.61,0,0,1,1.55-1c.19,1.8,1.31,3.05,2.41,4.3.29.33.53.31.87.07a19.13,19.13,0,0,1,4.2-2.37,11.4,11.4,0,0,0,4.23-2.54,9,9,0,0,1,4.74-2.3,4.89,4.89,0,0,0,2.41-1.29,2.9,2.9,0,0,0,.89-1.91c0-.24,0-.52.33-.57s.43.18.54.39a10,10,0,0,1,1.08,2.2c.08,0,.16.06.2,0a11.87,11.87,0,0,1,4.55-1.5,2.36,2.36,0,0,0,1.77-1.42c.1-.18.13-.41.36-.44s.4.21.51.43a6.56,6.56,0,0,1,1,2.47c0,.51.2.64.69.59a26.89,26.89,0,0,1,4.21,0,29.81,29.81,0,0,1,9.52,2.38,38.12,38.12,0,0,1,11.38,7.45,1.46,1.46,0,0,0,1.71.39,37.58,37.58,0,0,1,7.72-1.61c3.05-.43,6.08-1,9.09-1.66a7.52,7.52,0,0,0,3.24-1.22.64.64,0,0,1,.67-.14c.3.13.14.4.14.63a4.08,4.08,0,0,0,.07.92,26.1,26.1,0,0,1,.06,9.81,52.32,52.32,0,0,1-3.6,13,26.57,26.57,0,0,1-3.72,6.37.93.93,0,0,0-.17,1.16,13.76,13.76,0,0,1,.95,5.53,24.65,24.65,0,0,1-.51,5.93,2.45,2.45,0,0,0,.1,1.31,18.78,18.78,0,0,0,7.31,9.66,5.06,5.06,0,0,0,3.84,1.12.57.57,0,0,1,.63.25c.14.26,0,.46-.19.65a12.91,12.91,0,0,1-1.78,1.84,53.78,53.78,0,0,1-8.44,6,106.46,106.46,0,0,1-23.89,10.3c-1.18.34-2.35.7-3.63,1.08,1.57,1.14,2.73,2.64,4.21,3.79a25.84,25.84,0,0,1,2.07,1.69,18.48,18.48,0,0,0,2.77,1.75.4.4,0,0,0,.55-.1c.23-.25.47-.5.72-.74a19.62,19.62,0,0,1,10.68-5.53,18.87,18.87,0,0,1,11.68,1.82c5.77,2.86,9.72,7.48,12.43,13.22a35.22,35.22,0,0,1,3,10.84,1.57,1.57,0,0,1,0,.61.84.84,0,0,0,.22,1,.28.28,0,0,1,0,.4c-.38,0-.54-.34-.77-.56a13.65,13.65,0,0,0-4.32-2.91,8.24,8.24,0,0,0-8.19,1,13.79,13.79,0,0,0-4.53,5.87,26.84,26.84,0,0,0-2.09,8.13A23.81,23.81,0,0,1,452.68-171,22.24,22.24,0,0,1,439-162.65a21.24,21.24,0,0,1-4,.46c.05.94.13,1.79.15,2.64a74.62,74.62,0,0,1-1.2,16.68,22.34,22.34,0,0,0-.58,3,2.22,2.22,0,0,1-.37.95,4.8,4.8,0,0,0-.54,1c-.62,2.15-3.65,3.27-5.84,2.53a4.4,4.4,0,0,0-2.59-.16,2.81,2.81,0,0,1-2.91-.85,2.86,2.86,0,0,0-1.17-.79,2,2,0,0,1-1.1-2.78,2.69,2.69,0,0,1,1.67-1.56,1,1,0,0,0,.75-1.14,21.09,21.09,0,0,0-4.12-11.64,42.45,42.45,0,0,1-3.86-5.81c-.11-.19-.17-.44-.52-.57-.12.84-.22,1.67-.36,2.49a63,63,0,0,1-5.09,16.11,18.16,18.16,0,0,1-2.34,3.86c-.34.41-.66.88-1.32.85-.15,0-.31.13-.45.22a8.67,8.67,0,0,1-3.69,1.19,14.72,14.72,0,0,1-6.49-.61,6,6,0,0,1-2.6-1.61,2.87,2.87,0,0,1-.36-3.34,2.22,2.22,0,0,1,2-1.21c1.11,0,2.13-.52,3.24-.44.14,0,.22-.08.32-.19a5.67,5.67,0,0,0,1.49-3.3,8.52,8.52,0,0,0-.66-4.62A68.62,68.62,0,0,1,391.27-170a47.85,47.85,0,0,1-.34-11.28,1.54,1.54,0,0,0-.07-.28,4.07,4.07,0,0,1-1.64.1,2.69,2.69,0,0,1-2.09-2,6.47,6.47,0,0,1,.12-3.94c.25-.8.24-.79-.38-1.29a3.78,3.78,0,0,1-1.45-3.44,2.29,2.29,0,0,1,3.15-2.17.52.52,0,0,0,.52-.07,4.36,4.36,0,0,0-.94-1.66,38.06,38.06,0,0,1-3.33-5.77c-.41-.79-.74-1.62-1.22-2.37a3.35,3.35,0,0,1,.07-3.95,3.76,3.76,0,0,1,.79-.94,1.74,1.74,0,0,0,.88-1.92,1.41,1.41,0,0,1,1-1.51,4,4,0,0,0,1.16-.81,37.63,37.63,0,0,1,11.86-7.23c.32-.12.66-.21,1-.31Zm62.83,22.55c.33,0,.57-.19.85-.31a8.51,8.51,0,0,1,5.92-.38,11.4,11.4,0,0,1,4.67,2.71c.17.16.3.43.62.42-1-9.92-7-18.93-13.09-22.45a19.69,19.69,0,0,1,2.58,8.46,22.86,22.86,0,0,1-1.39,10.89c-.09.22-.26.41-.15.67l-.05,0ZM440.77-214a.52.52,0,0,0-.54-.51c-.51,0-.87-.41-1.41-.51a8.68,8.68,0,0,1-5.73-3.67,12.13,12.13,0,0,0-6.29-5,3.7,3.7,0,0,0-4.3,1,13,13,0,0,0-3.92,8.83.17.17,0,0,1-.13.17,14.29,14.29,0,0,0-1.89.6,17.2,17.2,0,0,0-6.44,5.35.36.36,0,0,0-.09.22,7.41,7.41,0,0,0,1.3,5.1c.8,1.11.64.7-1.07,2.77a5.34,5.34,0,0,0-.54.8,17.58,17.58,0,0,0-2.17,8.75,1.09,1.09,0,0,0,.83,1.13,1.94,1.94,0,0,0,2.1-.39,4.11,4.11,0,0,0,1.09-1.6,12.57,12.57,0,0,0,.72-2.9,3.11,3.11,0,0,0,0-.43,23.57,23.57,0,0,1,1.31-8.32c-.77-.34-1.43-.61-2.12-.95a.62.62,0,0,1-.31-.31,3.4,3.4,0,0,1,0-2.07c.22-.83.54-1,1.33-.7a7.3,7.3,0,0,0,1.93.64,2.17,2.17,0,0,1,1.18-1.52,2.3,2.3,0,0,1,3.15,1.57c.15.65.4.77,1,.67a.36.36,0,0,1,.47.22,3.94,3.94,0,0,1-.65.18,1.43,1.43,0,0,0-1,.59,2,2,0,0,1-2.65.61c-.53-.25-.74-.12-1,.3-.09.17-.3.3-.2.56a8.22,8.22,0,0,0,4.83-.24c1-.34,1.22-.64,1-1.75,0-.19-.2-.4.22-.49a2.86,2.86,0,0,1-.08,1.87c-.09.19-.16.36-.38.44-1.59.54-3.17,1.13-4.91.72-.2-.05-.4-.06-.6-.11a.53.53,0,0,0-.71.39,13.63,13.63,0,0,0-.66,2.37c-.35,2-.38,4-.55,6a9,9,0,0,1-1.34,4.26,2.56,2.56,0,0,1-3.26,1.2c-.13,0-.25-.12-.46,0,.06.31.12.67.21,1a11.89,11.89,0,0,0,3,5.08,6.81,6.81,0,0,0,4.56,2.59,13.7,13.7,0,0,0,5.3-.06c1.75-.52,2.37-.19,3.41,1.58a.49.49,0,0,0,.43.26,4.26,4.26,0,0,0,2.21-.85,14,14,0,0,0,2.76-2.74c.2-.21.13-.43.1-.67a10,10,0,0,1,.14-3.58,4.58,4.58,0,0,0,.34-1.68c-.1-.51-.68-.9-1-1.39a23.22,23.22,0,0,1-3.7-13.49,2.3,2.3,0,0,1,.24-.85c.35-.61.12-.79-.34-1a3.35,3.35,0,0,1-1.52-1,8.59,8.59,0,0,1-1.64-4.89c0-.19,0-.42.27-.47.24.16.17.43.19.65a11.76,11.76,0,0,0,.76,3c.33.84.68,1.65,1.76,1.73a.82.82,0,0,1,.28.11c2.87,1.38,5.75,2.74,8.53,4.29a10,10,0,0,0,1.8.74.87.87,0,0,0,1-.29c.06-.08.12-.17.06-.28s-.12-.2-.23-.16c-1.06.41-1.27-.51-1.6-1.1a4.48,4.48,0,0,1-.38-2.51,14.36,14.36,0,0,1,4.15-9.26,7,7,0,0,1,.8-.64.63.63,0,0,1,.85,0l.11.43h.09Zm-43.15-47.6c.5,2.15-.08,3.44-1.93,4.46a6.46,6.46,0,0,1-.93.42,10.36,10.36,0,0,1-9-1,3.81,3.81,0,0,1-2.11-3.11c0-.41-.22-.53-.58-.54h-.92a14.72,14.72,0,0,0-5.21,1.06,12.21,12.21,0,0,0-8.39,12,14,14,0,0,0,1.18,5,24.14,24.14,0,0,0,7.62,10.12,56.71,56.71,0,0,0,14.31,8.34,41.94,41.94,0,0,0,16.63,3.19q3.6-.1,7.17-.56a8.69,8.69,0,0,0,2.63-.79,13.45,13.45,0,0,1,7.86-1.42,2,2,0,0,0,.81-.13,69.37,69.37,0,0,0,15.53-6.1,12,12,0,0,0,2.41-1.57,4.88,4.88,0,0,1-2.4-.89c-.26-.16-.6-.32-.46-.68s.42,0,.64,0,.28,0,.41,0a17,17,0,0,0,4.93-1.89c-.16-.34-.46-.38-.7-.49a48.19,48.19,0,0,1-10.61-7,69,69,0,0,0-6.76-5.17A87.62,87.62,0,0,0,408-259,75,75,0,0,0,397.62-261.58Zm-21.23-22.29a5.7,5.7,0,0,1,3.78,0,8,8,0,0,1,4.27,3.66,30.92,30.92,0,0,1,1.84,4.79,10.94,10.94,0,0,0,2,3.57,4.53,4.53,0,0,0,4.92,1.47,7.89,7.89,0,0,0,2.58-1.24,9.71,9.71,0,0,0,2.46-2.45,65.66,65.66,0,0,1,5.74-6.72,33.78,33.78,0,0,1,6.76-5.81,20.73,20.73,0,0,1,9.52-3.3,11.84,11.84,0,0,1,9.78,3.63,15.84,15.84,0,0,1,3.75,7.21c.46,1.73.58,3.51,1,5.25a52.12,52.12,0,0,0,10.81,22.36,32,32,0,0,0,8.05,7.12,14.42,14.42,0,0,0,6.74,2.31,8,8,0,0,0,4-.62,13.54,13.54,0,0,1-3-1.6,19.38,19.38,0,0,1-6-7.42,7.75,7.75,0,0,1-.8-5.32,20.68,20.68,0,0,0,0-7.88,6.87,6.87,0,0,0-.68-2.42c-.31.19-.53.35-.77.47a.38.38,0,0,1-.46-.12.37.37,0,0,1,0-.47,6.06,6.06,0,0,1,.47-.54c.23-.27.59-.45.72-.95-.43.14-.78.26-1.13.36a3.66,3.66,0,0,1-4.92-2.85,6.89,6.89,0,0,1,0-2.86,9.54,9.54,0,0,1,1.44-3.58c-.61.1-1.07.2-1.54.24a3.36,3.36,0,0,1-3.74-3.64,5,5,0,0,1,1.86-3.54,9.28,9.28,0,0,1,3.73-1.81,19.46,19.46,0,0,0,8.69-5.07,10.46,10.46,0,0,0,2.5-3.85,5.87,5.87,0,0,0,.46-2.54,11.29,11.29,0,0,1-2.67,1c-2.7.64-5.45,1.07-8.18,1.5a63.74,63.74,0,0,0-9.19,1.68,12.26,12.26,0,0,0-3.55,1.57c-.21.14-.4.39-.79.22a8,8,0,0,1,2.05-1.61,20.86,20.86,0,0,0-2.25-2c-6.75-5.29-14.3-8.3-23-8-.56,0-.67-.15-.7-.69a3.32,3.32,0,0,0-.94-2.51,3.54,3.54,0,0,1-1.85,1.16,12.4,12.4,0,0,0-1.4.31c-1.42.5-3.21.46-3.67,2.42a.23.23,0,0,1-.33.14.33.33,0,0,1-.17-.22c0-.21,0-.41,0-.62a3.14,3.14,0,0,0-.91-2.45,4.61,4.61,0,0,1-2.26,2.52,8.67,8.67,0,0,1-2.11.8,10.2,10.2,0,0,0-4.64,2.73c-1.19,1.21-2.07,2.56-1.62,4.39,0,0,0,.05-.12.15a1.5,1.5,0,0,1-.53-1.42,17.41,17.41,0,0,1,.33-1.74C385.17-295.82,380.18-290.51,376.39-283.87Zm46.83,135.92c.47.14.5.49.65.74a9.16,9.16,0,0,0,1.61,2.25c1.55,1.49,3.13,1.26,4.22-.59a5.33,5.33,0,0,0,.48-1.13.24.24,0,0,1,.33-.15.23.23,0,0,1,.17.23c0,.17,0,.34,0,.51,0,.38,0,.79.42,1a.93.93,0,0,0,1-.27,5.76,5.76,0,0,0,2.29-4c.13-1.88.23-3.76.26-5.64a83.18,83.18,0,0,0-2.12-20.19,12.38,12.38,0,0,0-2.72-5.1,9.26,9.26,0,0,1-2.73,2.67,11,11,0,0,1-8.12,1.26,15.8,15.8,0,0,1-7.89-4.16c-.24-.22-.4-.56-.79-.58-.14.28,0,.55,0,.82a9.17,9.17,0,0,1-.81,4.1,5.38,5.38,0,0,1-4.13,3.2,8,8,0,0,1-4.35-.47,13.46,13.46,0,0,1-6.88-6.4,29.72,29.72,0,0,1-1.58-3.6c-.32.24-.19.44-.14.63a14.58,14.58,0,0,0,1.54,3.79,19.34,19.34,0,0,0,7.85,7.6,15.72,15.72,0,0,0,7.21,1.81c.53,0,.78-.17.73-.7a14.67,14.67,0,0,1,.24-3,.79.79,0,0,1,.35-.73c0,.43-.07.77-.1,1.11a15.11,15.11,0,0,0,1,7.25,60.07,60.07,0,0,0,2.83,5.82,46.23,46.23,0,0,0,3.84,5.7,21.2,21.2,0,0,1,3.55,8.24,8.47,8.47,0,0,0,.52,1.79A8,8,0,0,0,423.22-147.95Zm-20.6,2.33a1.74,1.74,0,0,1,.06,1,5.68,5.68,0,0,0,.07,1.43,1.25,1.25,0,0,0,1.77,1,4.07,4.07,0,0,0,1.24-.72,10,10,0,0,0,3.17-4.37,52.39,52.39,0,0,0,3.38-13.51,3.69,3.69,0,0,0-.33-2,27.91,27.91,0,0,1-2.06-5.58c-.13-.56-.39-.7-.92-.67a13,13,0,0,1-4.67-.59,19.13,19.13,0,0,1-12.23-11.64,2,2,0,0,0-.59-1.08c-.09.89-.2,1.65-.25,2.42a42.9,42.9,0,0,0,.32,8.4,69.34,69.34,0,0,0,5.59,20.33,19.39,19.39,0,0,1,2,6.21c.06.66.26,1.38,1,1.52s1.15-.46,1.57-1S402.17-145.24,402.62-145.62ZM400.38-212a27.66,27.66,0,0,0-5,9.14,48.15,48.15,0,0,0-1.4,6.73,25.83,25.83,0,0,0-.42,5.62,14.73,14.73,0,0,1-.47,5.29,2,2,0,0,0,0,1.1,15.65,15.65,0,0,0,6.29,9.1,8.62,8.62,0,0,0,4.3,1.55,5.25,5.25,0,0,0,5.18-2.67,6.11,6.11,0,0,0,.82-2.41,6.53,6.53,0,0,0-1.06-5.15,19.22,19.22,0,0,1-3-6A6.38,6.38,0,0,0,405-191a24.94,24.94,0,0,1-3.28-17.37,1.45,1.45,0,0,0,0-.69A16,16,0,0,0,400.38-212Zm12.95-45.73c-.06-.35-.09-.55-.13-.74a17.59,17.59,0,0,1-.38-5.11,18.51,18.51,0,0,1,1.95-7.5,8.56,8.56,0,0,1,2.36-2.94,3.37,3.37,0,0,1,4.8.36,7.5,7.5,0,0,1,1.59,2.62,14.45,14.45,0,0,1,.91,4.41,20.14,20.14,0,0,1-1.74,9.8,14.44,14.44,0,0,1-1.71,2.61c1,.52,1.89,1,2.78,1.48.42.25.6.11.77-.27.26-.6.56-1.18.81-1.78a32.32,32.32,0,0,0,2.21-16.41,22.87,22.87,0,0,0-2.18-7.67,11.67,11.67,0,0,0-3.54-4.34,6.27,6.27,0,0,0-5.94-.94,8.7,8.7,0,0,0-3.15,1.87,16.16,16.16,0,0,0-3.43,4.33,32.12,32.12,0,0,0-3.74,17,.66.66,0,0,0,.54.72C408.51-259.56,410.84-258.67,413.33-257.69ZM443-201.95a3.82,3.82,0,0,1-1.37,1.13,29.76,29.76,0,0,0-8.27,8,10.17,10.17,0,0,0-1.43,3.06,3.94,3.94,0,0,0-.16,1c0,.92.48,1.19,1.25.72a7.83,7.83,0,0,0,.72-.57,10.58,10.58,0,0,0,1.71-2,6.26,6.26,0,0,0-.11,1.55c.08.89.56,1.2,1.41.9a5.32,5.32,0,0,0,1.74-1.07,24.37,24.37,0,0,1,5.48-3.6,24.45,24.45,0,0,0,6.94-4.68,2.94,2.94,0,0,0,.91-2.08,6,6,0,0,0-.74-3,17.81,17.81,0,0,0-4.13-5.2,28.3,28.3,0,0,0-7.23-4.66c-.94-.43-.95-.46-1.62.37a15,15,0,0,0-2.93,6.38,10.18,10.18,0,0,0-.16,2.86,1.8,1.8,0,0,0,1.46,1.75,9,9,0,0,0,1.92.34,4.17,4.17,0,0,0,2.92-.69A2.61,2.61,0,0,1,443-201.95ZM432.36-177.8c.1.37.14.53.18.69a55.37,55.37,0,0,1,1.53,6.6c.37,2.23.64,4.47.83,6.73.1,1.19.11,1,1.1.91a24.09,24.09,0,0,0,5.63-1.1.9.9,0,0,0,.73-.83,16.55,16.55,0,0,0-3.15-12.61,1.06,1.06,0,0,0-1.34-.4A7.8,7.8,0,0,1,432.36-177.8ZM452.16-202c.12.48.24.84.3,1.2a4,4,0,0,1-.85,3.65,11.36,11.36,0,0,1-1.82,1.65,44.44,44.44,0,0,1-4.9,3c-1.17.57-2.27,1.25-3.44,1.83-.18.09-.46.15-.38.51l.82-.07a19.57,19.57,0,0,1,9,1.31,10,10,0,0,1,5.39,4.52s.1,0,.23,0a20.63,20.63,0,0,1,1.14-5.09,2.52,2.52,0,0,0,0-1.22,23,23,0,0,0-4.16-9.83A7.46,7.46,0,0,0,452.16-202Zm-69.34-60a4.16,4.16,0,0,1,.86-.11c.63,0,.81-.31.88-.85a22.34,22.34,0,0,0-.36-8.77,9,9,0,0,0-1.67-3.49,3,3,0,0,0-4.8-.28,9.27,9.27,0,0,0-2,2.87,21.7,21.7,0,0,0-1.78,8.48,17.8,17.8,0,0,0,.4,4.16,7.85,7.85,0,0,1,2.63-1.11c.71-.16.7-.17.63-.88a14.07,14.07,0,0,1,.61-6.28,5.44,5.44,0,0,1,1.3-2.19,1.49,1.49,0,0,1,2.46.17,4.2,4.2,0,0,1,.74,1.46,9.72,9.72,0,0,1,.44,2.52A16,16,0,0,1,382.82-262Zm22.38,61.12c.07,0,.13,0,.14,0,.16-.37.3-.76.47-1.13a25.64,25.64,0,0,1,7-9.52,10.47,10.47,0,0,1,4.54-2.5c.43-.09.41-.35.43-.67a13.36,13.36,0,0,1,4-8.35c.17-.17.46-.27.5-.59a13.9,13.9,0,0,0-4.38,1.47,1.68,1.68,0,0,0-.73.67,34.85,34.85,0,0,1-8.14,8.77,3.53,3.53,0,0,0-1,1.26,30.42,30.42,0,0,0-2.55,8.1A8.85,8.85,0,0,0,405.2-200.92Zm-15.26,6.25c.18-1.33.34-2.58.5-3.83s.48-2.49.71-3.73a4.33,4.33,0,0,0-.89-3.47,3.05,3.05,0,0,0-2.67-1.43c-.2,0-.44,0-.47-.28s.2-.33.4-.39a1.85,1.85,0,0,1,.81,0,4.77,4.77,0,0,1,1.81.68,6.39,6.39,0,0,0-1.78-3.11c-.19-.19-.41-.4-.72-.25a7.39,7.39,0,0,0-3.49,2.75,2.84,2.84,0,0,0-.17,2.92c.35.67.68,1.35,1,2A69.45,69.45,0,0,0,389.94-194.67Zm-.24,6.2a4.77,4.77,0,0,1-.83.28.71.71,0,0,0-.6.47,5.8,5.8,0,0,0-.28,4.21c.41,1.19,1.12,1.64,2.61,1.1a1.89,1.89,0,0,0,.89-.83A8.13,8.13,0,0,0,393-188c0-2.06,0-4.11.18-6.16.17-2.62.52-5.26-.13-7.87a8,8,0,0,0-.69-2.42,12.17,12.17,0,0,0-1,3.17c-.22,1.67-.51,3.32-.72,5a32.93,32.93,0,0,0-.26,8.7c0,.22.16.47-.09.67C389.86-187.36,390.14-188,389.7-188.47Zm-3.76-22c.33-.83.81-1.12,1.58-.94a3.6,3.6,0,0,1,1.8,1.12,7.69,7.69,0,0,1,1.88,4.25,4.19,4.19,0,0,0,.64,1.56,1.17,1.17,0,0,0,.09-1.55c-.23-.43-.17-.76.29-.89.81-.22,1.09-.87,1.35-1.55s.36-1.25.63-1.84a1,1,0,0,0-.08-1c-.22-.49-.69-.8-1-1.22a28,28,0,0,1,9.27-8.06,7.47,7.47,0,0,0-3.41.72,37.9,37.9,0,0,0-11.38,7.21,2.85,2.85,0,0,1-.92.65A1.17,1.17,0,0,0,385.94-210.5Zm44.47,22.38c.26-.59.49-1.19.79-1.76a2.34,2.34,0,0,0,.23-1.58,17.78,17.78,0,0,1-.31-2.64,46.73,46.73,0,0,1,.22-6.26c0-.29.15-.6-.26-.78l-4.38-2c-.27-.13-.44-.05-.53.25a5,5,0,0,0-.22,1.42,24.46,24.46,0,0,0,3.73,12.63C429.85-188.56,430-188.22,430.41-188.12Zm-56.52-92.34.19.11a39.4,39.4,0,0,1,11.64-15.41,11.51,11.51,0,0,1-2.77-4.15,4,4,0,0,0-1.29,1.09,17.61,17.61,0,0,0-2.21,3.21,50.19,50.19,0,0,0-4.3,10.62C374.72-283.48,374.31-282,373.89-280.46Zm32.65,69.33a24.18,24.18,0,0,1-3,1.21,1.28,1.28,0,0,0-.68.55,5.66,5.66,0,0,0-.73,2.94A26.76,26.76,0,0,0,404-194.36a3,3,0,0,0,.71,1.3,16.86,16.86,0,0,1-.37-2.22,33.56,33.56,0,0,1,2.25-14.3A1.62,1.62,0,0,0,406.54-211.13Zm.2-1.7a8.21,8.21,0,0,0,3.12-2.81,13.28,13.28,0,0,1,2-2.59c.6-.65,1.22-1.27,2-2.05-3.36.25-5.93,2-8.69,3.58.59-1.23.53-1.49-.53-2.48a6.33,6.33,0,0,0-3.31,5.55C404.55-215.34,405.1-215.26,406.74-212.83Zm2.34,6.33a23,23,0,0,0-3.51,6.74,8.25,8.25,0,0,0-.56,2.49,24.74,24.74,0,0,0,.79,6,1.81,1.81,0,0,0,.67,1.06c.08-.05.12-.07.12-.09.09-4.13,1.13-7.9,4.07-11,.26-.27,0-.4-.1-.6a7.72,7.72,0,0,1-1.27-3.53A2.9,2.9,0,0,0,409.08-206.5Zm-13.63.86c.15,0,.2,0,.21-.05.11-.28.23-.57.33-.86a50.57,50.57,0,0,1,6.74-12.51c.19-.28.75-.51.44-.91s-.7,0-1,.12a8.27,8.27,0,0,0-1.18.62,30.47,30.47,0,0,0-6.76,6.11c-.18.21-.49.39-.15.76a6,6,0,0,1,1.25,3.63C395.4-207.72,395.4-206.69,395.45-205.64ZM419-266.56a8,8,0,0,0,.55,3.27c.27.6.61,1.22,1.37,1.23s1-.57,1.35-1.12a8.39,8.39,0,0,0,.93-4,7.62,7.62,0,0,0-.82-4.08,1.16,1.16,0,0,0-2-.24,3.71,3.71,0,0,0-.82,1.41A11.44,11.44,0,0,0,419-266.56Zm13,74.87a33.54,33.54,0,0,1,7.05-8.11c-.43-.29-.86-.2-1.24-.31s-.68-.1-.8.42c-.08.36-.48.46-.83.49a2.76,2.76,0,0,1-1.29-.28c-1-.4-1.93-.78-3-1.19A27.05,27.05,0,0,0,432-191.69Zm-17.42,12.6a12.47,12.47,0,0,0,9.31,1.8c-.32-.52-.55-1-.84-1.38a1.54,1.54,0,0,0-1.8-.6,10.77,10.77,0,0,1-4.44.43C416.09-178.91,415.35-179,414.61-179.09Zm-19.8-29.28a8.32,8.32,0,0,1-2.58,2A21,21,0,0,1,393.3-203a35.62,35.62,0,0,0,.65,3.53A21.16,21.16,0,0,0,394.81-208.37Zm9.23-6a4,4,0,0,0-2.43,1.23.58.58,0,0,0-.14.65,1.73,1.73,0,0,0,1.74,1.27,7.8,7.8,0,0,0,2.74-1.07.37.37,0,0,0,.22-.49A2.32,2.32,0,0,0,404-214.36Zm-23.6-52.73a3.39,3.39,0,0,0,.3,1.54c.37.7.94.75,1.29.06a3.82,3.82,0,0,0,.1-3.44c-.28-.65-.86-.66-1.25-.07A3.26,3.26,0,0,0,380.44-267.09Zm31.27,60.58c-.09,0-.21.07-.25.14a3.29,3.29,0,0,0-.32,2.09c.06.52.54.58.89.73,1.5.65,1.5.64,2.26-.77a.92.92,0,0,0-.57-1.4c-.51-.18-1-.39-1.53-.59Zm-11.12-8.24a24.15,24.15,0,0,0-3.36,6.44c.61-.82,1.09-1.74,1.76-2.5a5.14,5.14,0,0,0,1.56-3.64C400.55-214.55,400.58-214.65,400.59-214.75Zm14.18,9.65c.38-.11.23-.44.29-.68a1.33,1.33,0,0,1,1.57-1,1.3,1.3,0,0,1,1.07,1.41,1.34,1.34,0,0,1-1.44,1c-.26,0-.51-.24-.78,0a1.67,1.67,0,0,0,2.27.15,1.58,1.58,0,0,0,.33-2.12,2,2,0,0,0-2.49-.87A1.49,1.49,0,0,0,414.77-205.1ZM414.68-220a15.74,15.74,0,0,0-3.85,4A15.11,15.11,0,0,0,414.68-220Zm2.69,14.46a1,1,0,0,0-1-.91.94.94,0,0,0-1,.94,1,1,0,0,0,1,.92A1,1,0,0,0,417.37-205.57Zm-23-4.56c-.11.34-.22.64-.3,1s-.34.65-.19,1C394.69-208.88,394.81-209.36,394.38-210.13Z" transform="translate(-364.68 308.08)"/><path class="cls-2" d="M397.62-261.58A75,75,0,0,1,408-259a87.62,87.62,0,0,1,21.8,10.64,69,69,0,0,1,6.76,5.17,48.19,48.19,0,0,0,10.61,7c.24.11.54.15.7.49a17,17,0,0,1-4.93,1.89c-.13,0-.27,0-.41,0s-.51-.28-.64,0,.2.52.46.68a4.88,4.88,0,0,0,2.4.89,12,12,0,0,1-2.41,1.57,69.37,69.37,0,0,1-15.53,6.1,2,2,0,0,1-.81.13,13.45,13.45,0,0,0-7.86,1.42,8.69,8.69,0,0,1-2.63.79q-3.57.45-7.17.56a41.94,41.94,0,0,1-16.63-3.19,56.71,56.71,0,0,1-14.31-8.34,24.14,24.14,0,0,1-7.62-10.12,14,14,0,0,1-1.18-5,12.21,12.21,0,0,1,8.39-12,14.72,14.72,0,0,1,5.21-1.06h.92c.36,0,.56.13.58.54a3.81,3.81,0,0,0,2.11,3.11,10.36,10.36,0,0,0,9,1,6.46,6.46,0,0,0,.93-.42C397.54-258.14,398.12-259.43,397.62-261.58Zm9.6,29.47a15.16,15.16,0,0,0,5.41-.29,19.53,19.53,0,0,0,8.38-3.88,7,7,0,0,0,2.37-3,2.88,2.88,0,0,0-.19-2.66c-.09-.14-.19-.33-.39-.26s-.17.34-.07.51a3,3,0,0,1-.32,3.19,9.33,9.33,0,0,1-2.81,2.82,20,20,0,0,1-9.34,3.39,12.56,12.56,0,0,1-5.45-.66,1.3,1.3,0,0,0,.82.54A5.38,5.38,0,0,0,407.22-232.11Z" transform="translate(-364.68 308.08)"/><path class="cls-3" d="M376.39-283.87c3.79-6.64,8.78-11.95,16.22-14.78a17.41,17.41,0,0,0-.33,1.74,1.5,1.5,0,0,0,.53,1.42c.09-.1.13-.13.12-.15-.45-1.83.43-3.18,1.62-4.39a10.2,10.2,0,0,1,4.64-2.73,8.67,8.67,0,0,0,2.11-.8,4.61,4.61,0,0,0,2.26-2.52,3.14,3.14,0,0,1,.91,2.45c0,.21-.05.41,0,.62a.33.33,0,0,0,.17.22.23.23,0,0,0,.33-.14c.46-2,2.25-1.92,3.67-2.42a12.4,12.4,0,0,1,1.4-.31,3.54,3.54,0,0,0,1.85-1.16,3.32,3.32,0,0,1,.94,2.51c0,.54.14.72.7.69,8.69-.33,16.24,2.68,23,8a20.86,20.86,0,0,1,2.25,2,8,8,0,0,0-2.05,1.61c.39.17.58-.08.79-.22a12.26,12.26,0,0,1,3.55-1.57,63.74,63.74,0,0,1,9.19-1.68c2.73-.43,5.48-.86,8.18-1.5a11.29,11.29,0,0,0,2.67-1,5.87,5.87,0,0,1-.46,2.54,10.46,10.46,0,0,1-2.5,3.85,19.46,19.46,0,0,1-8.69,5.07,9.28,9.28,0,0,0-3.73,1.81,5,5,0,0,0-1.86,3.54,3.36,3.36,0,0,0,3.74,3.64c.47,0,.93-.14,1.54-.24a9.54,9.54,0,0,0-1.44,3.58,6.89,6.89,0,0,0,0,2.86,3.66,3.66,0,0,0,4.92,2.85c.35-.1.7-.22,1.13-.36-.13.5-.49.68-.72.95a6.06,6.06,0,0,0-.47.54.37.37,0,0,0,0,.47.38.38,0,0,0,.46.12c.24-.12.46-.28.77-.47a6.87,6.87,0,0,1,.68,2.42,20.68,20.68,0,0,1,0,7.88,7.75,7.75,0,0,0,.8,5.32,19.38,19.38,0,0,0,6,7.42,13.54,13.54,0,0,0,3,1.6,8,8,0,0,1-4,.62,14.42,14.42,0,0,1-6.74-2.31,32,32,0,0,1-8.05-7.12,52.12,52.12,0,0,1-10.81-22.36c-.38-1.74-.5-3.52-1-5.25a15.84,15.84,0,0,0-3.75-7.21,11.84,11.84,0,0,0-9.78-3.63,20.73,20.73,0,0,0-9.52,3.3,33.78,33.78,0,0,0-6.76,5.81,65.66,65.66,0,0,0-5.74,6.72,9.71,9.71,0,0,1-2.46,2.45,7.89,7.89,0,0,1-2.58,1.24,4.53,4.53,0,0,1-4.92-1.47,10.94,10.94,0,0,1-2-3.57,30.92,30.92,0,0,0-1.84-4.79,8,8,0,0,0-4.27-3.66A5.7,5.7,0,0,0,376.39-283.87Zm18.15,3.41c-1,.56-1,.56-1.17,1.26a19.37,19.37,0,0,0-.68,2.9,7.74,7.74,0,0,0-.05,2.15c.16,1.2,1,1.57,2,.93.11-.07.21-.16.32-.24a8.76,8.76,0,0,0,2.16-2.72,37.94,37.94,0,0,1,4.18-5.58A37,37,0,0,1,410-289.3a15.19,15.19,0,0,1,5.14-2,6.4,6.4,0,0,1,4.86.62c.11.08.22.16.37.06a.37.37,0,0,0,.13-.45,10.86,10.86,0,0,0-.93-2.71,4.85,4.85,0,0,0-5-2.62,9.62,9.62,0,0,0-3.74,1.35,24.1,24.1,0,0,0-4.69,3.65,51.68,51.68,0,0,0-7.74,9.82c-.32.52-.72,1-1,1.53-.86,1.6-1.67,3.22-2.51,4.83a3,3,0,0,1-.47.66c-.3.3-.57.22-.66-.19a4.85,4.85,0,0,1,0-1.74C394-277.78,394.2-279,394.54-280.46Zm-1.87.93a1.25,1.25,0,0,0-1.21,1c-.24.86-.5,1.7-.76,2.55s-.81,1-1.54.51c-.27-.19-.35-.59-.8-.66a2.55,2.55,0,0,0,.77,2.13,1.52,1.52,0,0,0,1.62.64,1.45,1.45,0,0,0,1-1.34c.15-.94.22-1.89.45-2.83A8.92,8.92,0,0,0,392.67-279.53Zm-1.73-2.16a1.45,1.45,0,0,0-.69.79c-.18.33-.4.68-.08,1a1,1,0,0,0,1,.26,6.2,6.2,0,0,0,2-.79c1.35-.87,2.7-1.76,4-2.64a1,1,0,0,0,.43-.43c.1-.23.24-.46,0-.65s-.37.05-.52.17a16.91,16.91,0,0,1-5.19,2.66C391.45-281.09,391.13-281.16,390.94-281.69Z" transform="translate(-364.68 308.08)"/><path class="cls-2" d="M440.32-213.93a.62.62,0,0,0-.84,0,6.23,6.23,0,0,0-.8.64,14.32,14.32,0,0,0-4.16,9.26,4.57,4.57,0,0,0,.38,2.51c.33.59.54,1.51,1.61,1.1.1,0,.18.07.22.16s0,.2-.06.28a.85.85,0,0,1-1,.29,9.74,9.74,0,0,1-1.8-.74c-2.79-1.55-5.67-2.91-8.53-4.29a.86.86,0,0,0-.29-.11c-1.08-.08-1.43-.89-1.76-1.73a11.74,11.74,0,0,1-.75-3c0-.22,0-.49-.2-.65-.29.05-.26.28-.26.47a8.51,8.51,0,0,0,1.63,4.89,3.33,3.33,0,0,0,1.53,1c.43.2.66.38.39.91a3.94,3.94,0,0,0-.31,1.71A23.16,23.16,0,0,0,429-188.51c.31.49.88.88,1,1.39a4.81,4.81,0,0,1-.35,1.68,10.26,10.26,0,0,0-.14,3.58c0,.24.1.46-.09.67a14.62,14.62,0,0,1-2.76,2.74,6.11,6.11,0,0,1-1.37.7,1.22,1.22,0,0,1-1.57-.58c-.88-1.35-1.54-1.57-3.12-1.11a13.7,13.7,0,0,1-5.3.06,6.79,6.79,0,0,1-4.55-2.59,11.91,11.91,0,0,1-3-5.08c-.08-.35-.14-.71-.21-1a.42.42,0,0,1,.46,0,2.56,2.56,0,0,0,3.26-1.2,9,9,0,0,0,1.34-4.26c.18-2,.21-4,.55-6a12.83,12.83,0,0,1,.67-2.37.52.52,0,0,1,.7-.39c.2.05.41.06.61.11,1.73.41,3.31-.18,4.9-.72.22-.08.29-.25.38-.44a2.79,2.79,0,0,0,.08-1.87c-.41.09-.25.3-.22.49.22,1.11,0,1.41-1,1.75a8.22,8.22,0,0,1-4.83.24c-.09-.26.11-.39.2-.56.23-.42.43-.55,1-.3a2,2,0,0,0,2.66-.61,1.41,1.41,0,0,1,1-.59A4.34,4.34,0,0,0,420-205a.36.36,0,0,0-.47-.22c-.56.1-.8,0-1-.67a2.29,2.29,0,0,0-3.14-1.57,2.14,2.14,0,0,0-1.18,1.52,7.37,7.37,0,0,1-1.94-.64c-.79-.3-1.1-.13-1.32.7a4.83,4.83,0,0,0-.16.91c-.06,1,.11,1.31,1,1.74.49.23,1,.44,1.54.68a23.59,23.59,0,0,0-1.3,8.15,6.1,6.1,0,0,1-.12,1.13,11.37,11.37,0,0,1-.64,2.37,4.11,4.11,0,0,1-1.09,1.6,1.94,1.94,0,0,1-2.1.39,1.1,1.1,0,0,1-.83-1.13,17.58,17.58,0,0,1,1.08-6.34,13.94,13.94,0,0,1,2.71-4.45c.65-.72.57-.73,0-1.53a7.33,7.33,0,0,1-1.33-4.85,1.16,1.16,0,0,1,.26-.66,17,17,0,0,1,6.29-5.16,12.36,12.36,0,0,1,1.66-.54c.28-.08.36-.18.37-.48a13.05,13.05,0,0,1,3.91-8.58,3.7,3.7,0,0,1,4.3-1,12,12,0,0,1,4.78,3.06,29.77,29.77,0,0,0,8,5.88,1.74,1.74,0,0,0,.68.21.53.53,0,0,1,.54.51C440.43-214.06,440.36-214.06,440.32-213.93ZM414.82-187a1,1,0,0,0,0,1,7.43,7.43,0,0,0,1.87,2.66,1.9,1.9,0,0,0,1.4.51,15.5,15.5,0,0,1,2.26,0,5.71,5.71,0,0,0,4.24-1.43,4.34,4.34,0,0,1,.84-.58c.29-.13.37-.38.49-.62.53-1.05,0-1.92-.48-2.79-.37-.67-.61-.68-1.05,0a3.6,3.6,0,0,1-1.37,1.2A9.73,9.73,0,0,1,414.82-187Z" transform="translate(-364.68 308.08)"/><path class="cls-3" d="M423.22-147.95A8,8,0,0,1,422-144.1a8.47,8.47,0,0,1-.52-1.79,21.2,21.2,0,0,0-3.55-8.24,46.23,46.23,0,0,1-3.84-5.7,60.07,60.07,0,0,1-2.83-5.82,15.11,15.11,0,0,1-1-7.25c0-.34.06-.68.1-1.11a.79.79,0,0,0-.35.73,14.67,14.67,0,0,0-.24,3c0,.53-.2.7-.73.7a15.72,15.72,0,0,1-7.21-1.81,19.34,19.34,0,0,1-7.85-7.6,14.58,14.58,0,0,1-1.54-3.79c-.05-.19-.18-.39.14-.63a29.72,29.72,0,0,0,1.58,3.6,13.46,13.46,0,0,0,6.88,6.4,8,8,0,0,0,4.35.47,5.38,5.38,0,0,0,4.13-3.2,9.17,9.17,0,0,0,.81-4.1c0-.27-.11-.54,0-.82.39,0,.55.36.79.58a15.8,15.8,0,0,0,7.89,4.16,11,11,0,0,0,8.12-1.26,9.26,9.26,0,0,0,2.73-2.67,12.38,12.38,0,0,1,2.72,5.1A83.18,83.18,0,0,1,434.68-155c0,1.88-.13,3.76-.26,5.64a5.76,5.76,0,0,1-2.29,4,.93.93,0,0,1-1,.27c-.41-.19-.41-.6-.42-1,0-.17,0-.34,0-.51a.23.23,0,0,0-.17-.23.24.24,0,0,0-.33.15,5.33,5.33,0,0,1-.48,1.13c-1.09,1.85-2.67,2.08-4.22.59a9.16,9.16,0,0,1-1.61-2.25C423.72-147.46,423.69-147.81,423.22-147.95Z" transform="translate(-364.68 308.08)"/><path class="cls-3" d="M402.62-145.62c-.45.38-.57.87-.87,1.23s-.85,1.11-1.57,1-.95-.86-1-1.52a19.39,19.39,0,0,0-2-6.21,69.34,69.34,0,0,1-5.59-20.33,42.9,42.9,0,0,1-.32-8.4c.05-.77.16-1.53.25-2.42a2,2,0,0,1,.59,1.08,19.13,19.13,0,0,0,12.23,11.64A13,13,0,0,0,409-169c.53,0,.79.11.92.67a27.91,27.91,0,0,0,2.06,5.58,3.69,3.69,0,0,1,.33,2,52.39,52.39,0,0,1-3.38,13.51,10,10,0,0,1-3.17,4.37,4.07,4.07,0,0,1-1.24.72,1.25,1.25,0,0,1-1.77-1,5.68,5.68,0,0,1-.07-1.43A1.74,1.74,0,0,0,402.62-145.62Z" transform="translate(-364.68 308.08)"/><path class="cls-2" d="M400.38-212a16,16,0,0,1,1.34,2.89,1.45,1.45,0,0,1,0,.69A24.94,24.94,0,0,0,405-191a6.38,6.38,0,0,1,.58,1.31,19.22,19.22,0,0,0,3,6,6.53,6.53,0,0,1,1.06,5.15,6.11,6.11,0,0,1-.82,2.41,5.25,5.25,0,0,1-5.18,2.67,8.62,8.62,0,0,1-4.3-1.55,15.65,15.65,0,0,1-6.29-9.1,2,2,0,0,1,0-1.1,14.73,14.73,0,0,0,.47-5.29,25.83,25.83,0,0,1,.42-5.62,48.15,48.15,0,0,1,1.4-6.73A27.66,27.66,0,0,1,400.38-212Z" transform="translate(-364.68 308.08)"/><path class="cls-2" d="M413.33-257.69c-2.49-1-4.82-1.87-7.22-2.55a.66.66,0,0,1-.54-.72,32.12,32.12,0,0,1,3.74-17,16.16,16.16,0,0,1,3.43-4.33,8.7,8.7,0,0,1,3.15-1.87,6.27,6.27,0,0,1,5.94.94,11.67,11.67,0,0,1,3.54,4.34,22.87,22.87,0,0,1,2.18,7.67,32.32,32.32,0,0,1-2.21,16.41c-.25.6-.55,1.18-.81,1.78-.17.38-.35.52-.77.27-.89-.51-1.8-1-2.78-1.48a14.44,14.44,0,0,0,1.71-2.61,20.14,20.14,0,0,0,1.74-9.8,14.45,14.45,0,0,0-.91-4.41,7.5,7.5,0,0,0-1.59-2.62,3.37,3.37,0,0,0-4.8-.36,8.56,8.56,0,0,0-2.36,2.94,18.51,18.51,0,0,0-1.95,7.5,17.59,17.59,0,0,0,.38,5.11C413.24-258.24,413.27-258,413.33-257.69Z" transform="translate(-364.68 308.08)"/><path class="cls-3" d="M443-201.95a2.61,2.61,0,0,0-1.69.61,4.17,4.17,0,0,1-2.92.69,9,9,0,0,1-1.92-.34,1.8,1.8,0,0,1-1.46-1.75,10.18,10.18,0,0,1,.16-2.86,15,15,0,0,1,2.93-6.38c.67-.83.68-.8,1.62-.37a28.3,28.3,0,0,1,7.23,4.66,17.81,17.81,0,0,1,4.13,5.2,6,6,0,0,1,.74,3,2.94,2.94,0,0,1-.91,2.08,24.45,24.45,0,0,1-6.94,4.68,24.37,24.37,0,0,0-5.48,3.6,5.32,5.32,0,0,1-1.74,1.07c-.85.3-1.33,0-1.41-.9a6.26,6.26,0,0,1,.11-1.55,10.58,10.58,0,0,1-1.71,2,7.83,7.83,0,0,1-.72.57c-.77.47-1.25.2-1.25-.72a3.94,3.94,0,0,1,.16-1,10.17,10.17,0,0,1,1.43-3.06,29.76,29.76,0,0,1,8.27-8A3.82,3.82,0,0,0,443-201.95Z" transform="translate(-364.68 308.08)"/><path class="cls-3" d="M464.25-198.65c-.11-.26.06-.45.15-.67a22.86,22.86,0,0,0,1.39-10.89,19.69,19.69,0,0,0-2.58-8.46c6.13,3.52,12.07,12.53,13.09,22.45-.32,0-.45-.26-.62-.42a11.4,11.4,0,0,0-4.67-2.71,8.51,8.51,0,0,0-5.92.38c-.28.12-.52.34-.85.31Z" transform="translate(-364.68 308.08)"/><path class="cls-3" d="M432.36-177.8a7.8,7.8,0,0,0,5.51,0,1.06,1.06,0,0,1,1.34.4,16.55,16.55,0,0,1,3.15,12.61.9.9,0,0,1-.73.83,24.09,24.09,0,0,1-5.63,1.1c-1,.07-1,.28-1.1-.91-.19-2.26-.46-4.5-.83-6.73a55.37,55.37,0,0,0-1.53-6.6C432.5-177.27,432.46-177.43,432.36-177.8Z" transform="translate(-364.68 308.08)"/><path class="cls-3" d="M452.16-202a7.46,7.46,0,0,1,1.29,1.48,23,23,0,0,1,4.16,9.83,2.52,2.52,0,0,1,0,1.22,20.63,20.63,0,0,0-1.14,5.09c-.13,0-.22,0-.23,0a10,10,0,0,0-5.39-4.52,19.57,19.57,0,0,0-9-1.31l-.82.07c-.08-.36.2-.42.38-.51,1.17-.58,2.27-1.26,3.44-1.83a44.44,44.44,0,0,0,4.9-3,11.36,11.36,0,0,0,1.82-1.65,4,4,0,0,0,.85-3.65C452.4-201.21,452.28-201.57,452.16-202Z" transform="translate(-364.68 308.08)"/><path class="cls-2" d="M382.82-262a16,16,0,0,0,.38-4.3,9.72,9.72,0,0,0-.44-2.52,4.2,4.2,0,0,0-.74-1.46,1.49,1.49,0,0,0-2.46-.17,5.44,5.44,0,0,0-1.3,2.19,14.07,14.07,0,0,0-.61,6.28c.07.71.08.72-.63.88a7.85,7.85,0,0,0-2.63,1.11,17.8,17.8,0,0,1-.4-4.16,21.7,21.7,0,0,1,1.78-8.48,9.27,9.27,0,0,1,2-2.87,3,3,0,0,1,4.8.28,9,9,0,0,1,1.67,3.49,22.34,22.34,0,0,1,.36,8.77c-.07.54-.25.89-.88.85A4.16,4.16,0,0,0,382.82-262Z" transform="translate(-364.68 308.08)"/><path class="cls-2" d="M405.2-200.92a8.85,8.85,0,0,1,.25-2.51,30.42,30.42,0,0,1,2.55-8.1,3.53,3.53,0,0,1,1-1.26,34.85,34.85,0,0,0,8.14-8.77,1.68,1.68,0,0,1,.73-.67,13.9,13.9,0,0,1,4.38-1.47c0,.32-.33.42-.5.59a13.36,13.36,0,0,0-4,8.35c0,.32,0,.58-.43.67a10.47,10.47,0,0,0-4.54,2.5,25.64,25.64,0,0,0-7,9.52c-.17.37-.31.76-.47,1.13C405.33-200.92,405.27-200.93,405.2-200.92Z" transform="translate(-364.68 308.08)"/><path class="cls-3" d="M389.94-194.67a69.45,69.45,0,0,1-4.93-8.14c-.35-.66-.68-1.34-1-2a2.84,2.84,0,0,1,.17-2.92,7.39,7.39,0,0,1,3.49-2.75c.31-.15.53.06.72.25a6.39,6.39,0,0,1,1.78,3.11,4.77,4.77,0,0,0-1.81-.68,1.85,1.85,0,0,0-.81,0c-.2.06-.42.14-.4.39s.27.28.47.28a3.05,3.05,0,0,1,2.67,1.43,4.33,4.33,0,0,1,.89,3.47c-.23,1.24-.54,2.47-.71,3.73S390.12-196,389.94-194.67Z" transform="translate(-364.68 308.08)"/><path class="cls-2" d="M389.7-188.47c.44.43.16,1.11.62,1.49.25-.2.12-.45.09-.67a32.93,32.93,0,0,1,.26-8.7c.21-1.66.5-3.31.72-5a12.17,12.17,0,0,1,1-3.17,8,8,0,0,1,.69,2.42c.65,2.61.3,5.25.13,7.87-.14,2.05-.21,4.1-.18,6.16a8.13,8.13,0,0,1-1.51,4.81,1.89,1.89,0,0,1-.89.83c-1.49.54-2.2.09-2.61-1.1a5.8,5.8,0,0,1,.28-4.21.71.71,0,0,1,.6-.47A4.77,4.77,0,0,0,389.7-188.47Z" transform="translate(-364.68 308.08)"/><path class="cls-2" d="M385.94-210.5a1.17,1.17,0,0,1,.75-1.5,2.85,2.85,0,0,0,.92-.65A37.9,37.9,0,0,1,399-219.86a7.47,7.47,0,0,1,3.41-.72,28,28,0,0,0-9.27,8.06c.3.42.77.73,1,1.22a1,1,0,0,1,.08,1c-.27.59-.41,1.23-.63,1.84s-.54,1.33-1.35,1.55c-.46.13-.52.46-.29.89a1.17,1.17,0,0,1-.09,1.55,4.19,4.19,0,0,1-.64-1.56,7.69,7.69,0,0,0-1.88-4.25,3.6,3.6,0,0,0-1.8-1.12C386.75-211.62,386.27-211.33,385.94-210.5Z" transform="translate(-364.68 308.08)"/><path class="cls-2" d="M430.41-188.12c-.42-.1-.56-.44-.73-.72A24.46,24.46,0,0,1,426-201.47a5,5,0,0,1,.22-1.42c.09-.3.26-.38.53-.25l4.38,2c.41.18.3.49.26.78a46.73,46.73,0,0,0-.22,6.26,17.78,17.78,0,0,0,.31,2.64,2.34,2.34,0,0,1-.23,1.58C430.9-189.31,430.67-188.71,430.41-188.12Z" transform="translate(-364.68 308.08)"/><path class="cls-3" d="M373.89-280.46c.42-1.51.83-3,1.26-4.53a50.19,50.19,0,0,1,4.3-10.62,17.61,17.61,0,0,1,2.21-3.21,4,4,0,0,1,1.29-1.09,11.51,11.51,0,0,0,2.77,4.15,39.4,39.4,0,0,0-11.64,15.41Z" transform="translate(-364.68 308.08)"/><path class="cls-2" d="M406.54-211.13a1.62,1.62,0,0,1,0,1.55,33.56,33.56,0,0,0-2.25,14.3,16.86,16.86,0,0,0,.37,2.22,3,3,0,0,1-.71-1.3,26.76,26.76,0,0,1-1.85-12.07,5.66,5.66,0,0,1,.73-2.94,1.28,1.28,0,0,1,.68-.55A24.18,24.18,0,0,0,406.54-211.13Z" transform="translate(-364.68 308.08)"/><path class="cls-3" d="M406.74-212.83c-1.64-2.43-2.19-2.51-5.42-.8a6.33,6.33,0,0,1,3.31-5.55c1.06,1,1.12,1.25.53,2.48,2.76-1.59,5.33-3.33,8.69-3.58-.75.78-1.37,1.4-2,2.05a13.28,13.28,0,0,0-2,2.59A8.21,8.21,0,0,1,406.74-212.83Z" transform="translate(-364.68 308.08)"/><path class="cls-2" d="M409.08-206.5a2.9,2.9,0,0,1,.21,1.09,7.72,7.72,0,0,0,1.27,3.53c.14.2.36.33.1.6-2.94,3.07-4,6.84-4.07,11,0,0,0,0-.12.09a1.81,1.81,0,0,1-.67-1.06,24.74,24.74,0,0,1-.79-6,8.25,8.25,0,0,1,.56-2.49A23,23,0,0,1,409.08-206.5Z" transform="translate(-364.68 308.08)"/><path class="cls-2" d="M395.45-205.64c-.05-1.05-.05-2.08-.15-3.09a6,6,0,0,0-1.25-3.63c-.34-.37,0-.55.15-.76a30.47,30.47,0,0,1,6.76-6.11,8.27,8.27,0,0,1,1.18-.62c.33-.14.76-.46,1-.12s-.25.63-.44.91A50.57,50.57,0,0,0,396-206.55c-.1.29-.22.58-.33.86C395.65-205.67,395.6-205.67,395.45-205.64Z" transform="translate(-364.68 308.08)"/><path class="cls-2" d="M419-266.56a11.44,11.44,0,0,1,.54-3.49,3.71,3.71,0,0,1,.82-1.41,1.16,1.16,0,0,1,2,.24,7.62,7.62,0,0,1,.82,4.08,8.39,8.39,0,0,1-.93,4c-.3.55-.65,1.13-1.35,1.12s-1.1-.63-1.37-1.23A8,8,0,0,1,419-266.56Z" transform="translate(-364.68 308.08)"/><path class="cls-3" d="M432-191.69a27.05,27.05,0,0,1-.07-9c1,.41,2,.79,3,1.19a2.76,2.76,0,0,0,1.29.28c.35,0,.75-.13.83-.49.12-.52.37-.55.8-.42s.81,0,1.24.31A33.54,33.54,0,0,0,432-191.69Z" transform="translate(-364.68 308.08)"/><path class="cls-2" d="M414.61-179.09c.74.09,1.48.18,2.23.25a10.77,10.77,0,0,0,4.44-.43,1.54,1.54,0,0,1,1.8.6c.29.42.52.86.84,1.38A12.47,12.47,0,0,1,414.61-179.09Z" transform="translate(-364.68 308.08)"/><path class="cls-2" d="M394.81-208.37a21.16,21.16,0,0,1-.86,8.86,35.62,35.62,0,0,1-.65-3.53,21,21,0,0,0-1.07-3.32A8.32,8.32,0,0,0,394.81-208.37Z" transform="translate(-364.68 308.08)"/><path class="cls-2" d="M404-214.36a2.32,2.32,0,0,1,2.13,1.59.37.37,0,0,1-.22.49,7.8,7.8,0,0,1-2.74,1.07,1.73,1.73,0,0,1-1.74-1.27.58.58,0,0,1,.14-.65A4,4,0,0,1,404-214.36Z" transform="translate(-364.68 308.08)"/><path class="cls-2" d="M380.44-267.09a3.26,3.26,0,0,1,.44-1.91c.39-.59,1-.58,1.25.07a3.82,3.82,0,0,1-.1,3.44c-.35.69-.92.64-1.29-.06A3.39,3.39,0,0,1,380.44-267.09Z" transform="translate(-364.68 308.08)"/><path class="cls-2" d="M411.71-206.51l.48.2c.51.2,1,.41,1.53.59a.92.92,0,0,1,.57,1.4c-.76,1.41-.76,1.42-2.26.77-.35-.15-.83-.21-.89-.73a3.29,3.29,0,0,1,.32-2.09C411.5-206.44,411.62-206.46,411.71-206.51Z" transform="translate(-364.68 308.08)"/><path class="cls-3" d="M400.59-214.75c0,.1,0,.2,0,.3a5.14,5.14,0,0,1-1.56,3.64c-.67.76-1.15,1.68-1.76,2.5A24.15,24.15,0,0,1,400.59-214.75Z" transform="translate(-364.68 308.08)"/><path class="cls-2" d="M414.77-205.1a1.49,1.49,0,0,1,.82-2.06,2,2,0,0,1,2.49.87,1.58,1.58,0,0,1-.33,2.12,1.67,1.67,0,0,1-2.27-.15c.27-.22.52,0,.78,0a1.34,1.34,0,0,0,1.44-1,1.3,1.3,0,0,0-1.07-1.41,1.33,1.33,0,0,0-1.57,1C415-205.54,415.15-205.21,414.77-205.1Z" transform="translate(-364.68 308.08)"/><path class="cls-2" d="M414.68-220a15.11,15.11,0,0,1-3.85,4A15.74,15.74,0,0,1,414.68-220Z" transform="translate(-364.68 308.08)"/><path class="cls-2" d="M417.37-205.57a1,1,0,0,1-1,.95,1,1,0,0,1-1-.92.94.94,0,0,1,1-.94A1,1,0,0,1,417.37-205.57Z" transform="translate(-364.68 308.08)"/><path class="cls-2" d="M394.38-210.13c.43.77.31,1.25-.49,2-.15-.4.11-.71.19-1S394.27-209.79,394.38-210.13Z" transform="translate(-364.68 308.08)"/><path class="cls-3" d="M440.57-213.93c0-.13.11-.13.2,0v.47h-.08Z" transform="translate(-364.68 308.08)"/><polygon class="cls-3" points="99.56 109.42 99.52 109.45 99.58 109.44 99.56 109.42"/><path class="cls-1" d="M410.26-232.33a20,20,0,0,0,9.34-3.39,9.33,9.33,0,0,0,2.81-2.82,3,3,0,0,0,.32-3.19c-.1-.17-.21-.4.07-.51s.3.12.39.26a2.88,2.88,0,0,1,.19,2.66,7,7,0,0,1-2.37,3,19.53,19.53,0,0,1-8.38,3.88,15.12,15.12,0,0,1-5.4.29c.43,0,.87,0,1.3-.07A4.61,4.61,0,0,0,410.26-232.33Z" transform="translate(-364.68 308.08)"/><path class="cls-1" d="M410.26-232.33a4.61,4.61,0,0,1-1.73.15c-.43,0-.87.05-1.3.07a5.37,5.37,0,0,1-1.6-.34,1.3,1.3,0,0,1-.82-.54A12.56,12.56,0,0,0,410.26-232.33Z" transform="translate(-364.68 308.08)"/><path class="cls-1" d="M394.54-280.46c-.34,1.41-.59,2.68-.77,4a4.85,4.85,0,0,0,0,1.74c.09.41.36.49.66.19a3,3,0,0,0,.47-.66c.84-1.61,1.65-3.23,2.51-4.83.29-.54.69-1,1-1.53a51.68,51.68,0,0,1,7.74-9.82,24.1,24.1,0,0,1,4.69-3.65,9.62,9.62,0,0,1,3.74-1.35,4.85,4.85,0,0,1,5,2.62,10.86,10.86,0,0,1,.93,2.71.37.37,0,0,1-.13.45c-.15.1-.26,0-.37-.06a6.4,6.4,0,0,0-4.86-.62,15.19,15.19,0,0,0-5.14,2,37,37,0,0,0-8.76,7.54,37.94,37.94,0,0,0-4.18,5.58,8.76,8.76,0,0,1-2.16,2.72c-.11.08-.21.17-.32.24-1,.64-1.81.27-2-.93a7.74,7.74,0,0,1,.05-2.15,19.37,19.37,0,0,1,.68-2.9C393.59-279.9,393.59-279.9,394.54-280.46Z" transform="translate(-364.68 308.08)"/><path class="cls-1" d="M392.67-279.53a8.92,8.92,0,0,1-.51,2c-.23.94-.3,1.89-.45,2.83a1.45,1.45,0,0,1-1,1.34,1.52,1.52,0,0,1-1.62-.64,2.55,2.55,0,0,1-.77-2.13c.45.07.53.47.8.66.73.5,1.28.33,1.54-.51s.52-1.69.76-2.55A1.25,1.25,0,0,1,392.67-279.53Z" transform="translate(-364.68 308.08)"/><path class="cls-1" d="M390.94-281.69c.19.53.51.6,1,.41a16.91,16.91,0,0,0,5.19-2.66c.15-.12.31-.33.52-.17s.09.42,0,.65a1,1,0,0,1-.43.43c-1.34.88-2.69,1.77-4,2.64a6.2,6.2,0,0,1-2,.79,1,1,0,0,1-1-.26c-.32-.36-.1-.71.08-1A1.45,1.45,0,0,1,390.94-281.69Z" transform="translate(-364.68 308.08)"/><path class="cls-1" d="M414.82-187a9.73,9.73,0,0,0,8.19-.1,3.6,3.6,0,0,0,1.37-1.2c.44-.64.68-.63,1.05,0,.48.87,1,1.74.48,2.79-.12.24-.2.49-.49.62a4.34,4.34,0,0,0-.84.58,5.71,5.71,0,0,1-4.24,1.43,15.5,15.5,0,0,0-2.26,0,1.9,1.9,0,0,1-1.4-.51,7.43,7.43,0,0,1-1.87-2.66A1,1,0,0,1,414.82-187Zm10.08-1.22c-2.86,2.89-6.22,2.81-9.82,1.83a6.42,6.42,0,0,0,1.6,2.54,1.79,1.79,0,0,0,1.53.67c1,0,2,0,3,0a3.36,3.36,0,0,0,2.46-.79c.26-.22.56-.4.82-.62,1.48-1.24,1.58-1.83.57-3.49C425-188.16,424.94-188.2,424.9-188.25Z" transform="translate(-364.68 308.08)"/><path class="cls-2" d="M424.9-188.25c0,.05.1.09.14.14,1,1.66.91,2.25-.57,3.49-.26.22-.56.4-.82.62a3.36,3.36,0,0,1-2.46.79c-1,0-2,0-3,0a1.79,1.79,0,0,1-1.53-.67,6.42,6.42,0,0,1-1.6-2.54C418.68-185.44,422-185.36,424.9-188.25Z" transform="translate(-364.68 308.08)"/></svg>