<svg xmlns="http://www.w3.org/2000/svg" viewBox="0 0 112 172"><path fill="#060605" d="M36.73 86.87a55 55 0 0 1-7.54-1.92 47.2 47.2 0 0 1-17-9.5 54.4 54.4 0 0 1-9.87-11.24 19.3 19.3 0 0 1-2.19-4.63.78.78 0 0 1-.06-.63c.35 0 .58.24.87.37a1.871 1.871 0 0 0 1.48.22 1.22 1.22 0 0 0 .95-1.16 11.27 11.27 0 0 1 2-5.66 3 3 0 0 0 .35-2.08c-.24-2.352-.3-4.719-.18-7.08a42.7 42.7 0 0 1 2.42-11.94 48 48 0 0 0 1.36-5.57 51.3 51.3 0 0 1 5.38-14.27 15 15 0 0 1 2.48-3.39 3.6 3.6 0 0 1 1.55-1c.19 1.8 1.31 3.05 2.41 4.3.29.33.53.31.87.07a19.1 19.1 0 0 1 4.2-2.37 11.4 11.4 0 0 0 4.23-2.54 9 9 0 0 1 4.74-2.3 4.9 4.9 0 0 0 2.41-1.29 2.9 2.9 0 0 0 .89-1.91c0-.24 0-.52.33-.57s.43.18.54.39a10 10 0 0 1 1.08 2.2c.08 0 .16.06.2 0a11.9 11.9 0 0 1 4.55-1.5A2.36 2.36 0 0 0 46.95.45c.1-.18.13-.41.36-.44s.4.21.51.43a6.6 6.6 0 0 1 1 2.47c0 .51.2.64.69.59 1.401-.11 2.809-.11 4.21 0 3.283.262 6.5 1.066 9.52 2.38a38.1 38.1 0 0 1 11.38 7.45 1.46 1.46 0 0 0 1.71.39 37.6 37.6 0 0 1 7.72-1.61c3.05-.43 6.08-1 9.09-1.66a7.5 7.5 0 0 0 3.24-1.22.64.64 0 0 1 .67-.14c.3.13.14.4.14.63q-.017.464.07.92c.64 3.237.66 6.566.06 9.81a52.3 52.3 0 0 1-3.6 13A26.6 26.6 0 0 1 90 39.82a.93.93 0 0 0-.17 1.16 13.75 13.75 0 0 1 .95 5.53c.07 1.99-.101 3.981-.51 5.93-.087.438-.052.891.1 1.31a18.8 18.8 0 0 0 7.31 9.66 5.06 5.06 0 0 0 3.84 1.12.57.57 0 0 1 .63.25c.14.26 0 .46-.19.65a13 13 0 0 1-1.78 1.84 53.8 53.8 0 0 1-8.44 6 106.5 106.5 0 0 1-23.89 10.3c-1.18.34-2.35.7-3.63 1.08 1.57 1.14 2.73 2.64 4.21 3.79q1.08.791 2.07 1.69c.87.664 1.797 1.25 2.77 1.75a.4.4 0 0 0 .55-.1c.23-.25.47-.5.72-.74a19.63 19.63 0 0 1 10.68-5.53 18.87 18.87 0 0 1 11.68 1.82c5.77 2.86 9.72 7.48 12.43 13.22a35.2 35.2 0 0 1 3 10.84c.04.201.04.409 0 .61a.836.836 0 0 0 .22 1 .28.28 0 0 1 .074.273.3.3 0 0 1-.074.127c-.38 0-.54-.34-.77-.56a13.7 13.7 0 0 0-4.32-2.91 8.24 8.24 0 0 0-8.19 1 13.8 13.8 0 0 0-4.53 5.87 26.8 26.8 0 0 0-2.09 8.13A23.8 23.8 0 0 1 88 137.08a22.25 22.25 0 0 1-13.68 8.35c-1.316.28-2.655.434-4 .46.05.94.13 1.79.15 2.64a74.6 74.6 0 0 1-1.2 16.68 22 22 0 0 0-.58 3 2.2 2.2 0 0 1-.37.95q-.33.468-.54 1c-.62 2.15-3.65 3.27-5.84 2.53a4.4 4.4 0 0 0-2.59-.16 2.81 2.81 0 0 1-2.91-.85 2.86 2.86 0 0 0-1.17-.79 2 2 0 0 1-1.305-1.688 2 2 0 0 1 .205-1.092 2.68 2.68 0 0 1 1.67-1.56 1 1 0 0 0 .75-1.14 21.1 21.1 0 0 0-4.12-11.64 42.4 42.4 0 0 1-3.86-5.81c-.11-.19-.17-.44-.52-.57-.12.84-.22 1.67-.36 2.49a63 63 0 0 1-5.09 16.11 18.2 18.2 0 0 1-2.34 3.86c-.34.41-.66.88-1.32.85-.15 0-.31.13-.45.22a8.7 8.7 0 0 1-3.69 1.19 14.7 14.7 0 0 1-6.49-.61 6 6 0 0 1-2.6-1.61 2.87 2.87 0 0 1-.36-3.34 2.23 2.23 0 0 1 2-1.21c1.11 0 2.13-.52 3.24-.44.14 0 .22-.08.32-.19a5.67 5.67 0 0 0 1.49-3.3 8.5 8.5 0 0 0-.66-4.62 68.6 68.6 0 0 1-5.19-18.71 47.8 47.8 0 0 1-.34-11.28 1.6 1.6 0 0 0-.07-.28 4.1 4.1 0 0 1-1.64.1 2.69 2.69 0 0 1-2.09-2 6.47 6.47 0 0 1 .12-3.94c.25-.8.24-.79-.38-1.29a3.78 3.78 0 0 1-1.45-3.44 2.292 2.292 0 0 1 3.15-2.17.52.52 0 0 0 .52-.07 4.4 4.4 0 0 0-.94-1.66 38 38 0 0 1-3.33-5.77c-.41-.79-.74-1.62-1.22-2.37a3.35 3.35 0 0 1 .07-3.95c.21-.355.477-.672.79-.94a1.74 1.74 0 0 0 .88-1.92 1.41 1.41 0 0 1 1-1.51 4 4 0 0 0 1.16-.81 37.6 37.6 0 0 1 11.86-7.23c.32-.12.66-.21 1-.31Zm62.83 22.55c.33 0 .57-.19.85-.31a8.52 8.52 0 0 1 5.92-.38 11.4 11.4 0 0 1 4.67 2.71c.17.16.3.43.62.42-1-9.92-7-18.93-13.09-22.45a19.7 19.7 0 0 1 2.58 8.46 22.86 22.86 0 0 1-1.39 10.89c-.09.22-.26.41-.15.67h-.05ZM76.09 94.08a.53.53 0 0 0-.274-.449.5.5 0 0 0-.266-.061c-.51 0-.87-.41-1.41-.51a8.67 8.67 0 0 1-5.73-3.67 12.13 12.13 0 0 0-6.29-5 3.7 3.7 0 0 0-4.3 1 13 13 0 0 0-3.92 8.83.17.17 0 0 1-.13.17 14 14 0 0 0-1.89.6 17.2 17.2 0 0 0-6.44 5.35.36.36 0 0 0-.09.22 7.4 7.4 0 0 0 1.3 5.1c.8 1.11.64.7-1.07 2.77q-.307.376-.54.8a17.6 17.6 0 0 0-2.17 8.75 1.085 1.085 0 0 0 .83 1.13 1.94 1.94 0 0 0 2.1-.39 4.1 4.1 0 0 0 1.09-1.6c.354-.935.596-1.908.72-2.9q.015-.215 0-.43a23.6 23.6 0 0 1 1.31-8.32c-.77-.34-1.43-.61-2.12-.95a.62.62 0 0 1-.31-.31 3.4 3.4 0 0 1 0-2.07c.22-.83.54-1 1.33-.7a7.3 7.3 0 0 0 1.93.64 2.178 2.178 0 0 1 1.18-1.52 2.298 2.298 0 0 1 3.15 1.57c.15.65.4.77 1 .67a.36.36 0 0 1 .47.22 4 4 0 0 1-.65.18 1.43 1.43 0 0 0-1 .59 2 2 0 0 1-2.65.61c-.53-.25-.74-.12-1 .3-.09.17-.3.3-.2.56a8.23 8.23 0 0 0 4.83-.24c1-.34 1.22-.64 1-1.75 0-.19-.2-.4.22-.49a2.86 2.86 0 0 1-.08 1.87c-.09.19-.16.36-.38.44-1.59.54-3.17 1.13-4.91.72-.2-.05-.4-.06-.6-.11a.53.53 0 0 0-.568.122.53.53 0 0 0-.142.268 13.6 13.6 0 0 0-.66 2.37c-.35 2-.38 4-.55 6a9 9 0 0 1-1.34 4.26 2.56 2.56 0 0 1-1.395 1.238 2.57 2.57 0 0 1-1.865-.038c-.13 0-.25-.12-.46 0 .06.31.12.67.21 1a11.9 11.9 0 0 0 3 5.08 6.8 6.8 0 0 0 4.56 2.59 13.7 13.7 0 0 0 5.3-.06c1.75-.52 2.37-.19 3.41 1.58a.49.49 0 0 0 .43.26 4.26 4.26 0 0 0 2.21-.85 14 14 0 0 0 2.76-2.74c.2-.21.13-.43.1-.67a10 10 0 0 1 .14-3.58 4.6 4.6 0 0 0 .34-1.68c-.1-.51-.68-.9-1-1.39a23.22 23.22 0 0 1-3.7-13.49c.024-.296.106-.585.24-.85.35-.61.12-.79-.34-1a3.36 3.36 0 0 1-1.52-1 8.6 8.6 0 0 1-1.64-4.89c0-.19 0-.42.27-.47.24.16.17.43.19.65.12 1.029.376 2.038.76 3 .33.84.68 1.65 1.76 1.73a.8.8 0 0 1 .28.11c2.87 1.38 5.75 2.74 8.53 4.29q.864.458 1.8.74a.87.87 0 0 0 1-.29c.06-.08.12-.17.06-.28s-.12-.2-.23-.16c-1.06.41-1.27-.51-1.6-1.1a4.5 4.5 0 0 1-.38-2.51 14.37 14.37 0 0 1 4.15-9.26q.377-.35.8-.64a.63.63 0 0 1 .85 0l.11.43h.09Zm-43.15-47.6c.5 2.15-.08 3.44-1.93 4.46a6.4 6.4 0 0 1-.93.42 10.361 10.361 0 0 1-9-1 3.82 3.82 0 0 1-2.11-3.11c0-.41-.22-.53-.58-.54h-.92a14.7 14.7 0 0 0-5.21 1.06 12.21 12.21 0 0 0-8.39 12 14 14 0 0 0 1.18 5 24.15 24.15 0 0 0 7.62 10.12 56.7 56.7 0 0 0 14.31 8.34 41.95 41.95 0 0 0 16.63 3.19q3.6-.1 7.17-.56a8.7 8.7 0 0 0 2.63-.79 13.46 13.46 0 0 1 7.86-1.42c.276.013.552-.031.81-.13a69.4 69.4 0 0 0 15.53-6.1 12 12 0 0 0 2.41-1.57 4.9 4.9 0 0 1-2.4-.89c-.26-.16-.6-.32-.46-.68s.42 0 .64 0h.41a17 17 0 0 0 4.93-1.89c-.16-.34-.46-.38-.7-.49a48.2 48.2 0 0 1-10.61-7 69 69 0 0 0-6.76-5.17 87.6 87.6 0 0 0-21.75-10.65 75 75 0 0 0-10.38-2.58ZM11.71 24.19a5.7 5.7 0 0 1 3.78 0 8 8 0 0 1 4.27 3.66 31 31 0 0 1 1.84 4.79 11 11 0 0 0 2 3.57 4.53 4.53 0 0 0 4.92 1.47 7.9 7.9 0 0 0 2.58-1.24 9.7 9.7 0 0 0 2.46-2.45 66 66 0 0 1 5.74-6.72 33.8 33.8 0 0 1 6.76-5.81c2.853-1.866 6.124-3 9.52-3.3a11.84 11.84 0 0 1 9.78 3.63A15.84 15.84 0 0 1 69.11 29c.46 1.73.58 3.51 1 5.25a52.1 52.1 0 0 0 10.81 22.36 32 32 0 0 0 8.05 7.12 14.4 14.4 0 0 0 6.74 2.31 8 8 0 0 0 4-.62 13.6 13.6 0 0 1-3-1.6 19.4 19.4 0 0 1-6-7.42 7.75 7.75 0 0 1-.8-5.32 20.7 20.7 0 0 0 0-7.88 6.9 6.9 0 0 0-.68-2.42c-.31.19-.53.35-.77.47a.38.38 0 0 1-.46-.12.37.37 0 0 1 0-.47q.22-.284.47-.54c.23-.27.59-.45.72-.95-.43.14-.78.26-1.13.36a3.66 3.66 0 0 1-4.92-2.85c-.2-.943-.2-1.917 0-2.86a9.5 9.5 0 0 1 1.44-3.58c-.61.1-1.07.2-1.54.24a3.37 3.37 0 0 1-1.932-.349A3.36 3.36 0 0 1 79.3 26.84a5 5 0 0 1 1.86-3.54 9.3 9.3 0 0 1 3.73-1.81 19.46 19.46 0 0 0 8.69-5.07 10.46 10.46 0 0 0 2.5-3.85 5.9 5.9 0 0 0 .46-2.54c-.844.445-1.741.781-2.67 1-2.7.64-5.45 1.07-8.18 1.5a64 64 0 0 0-9.19 1.68 12.2 12.2 0 0 0-3.55 1.57c-.21.14-.4.39-.79.22a8 8 0 0 1 2.05-1.61 21 21 0 0 0-2.25-2c-6.75-5.29-14.3-8.3-23-8-.56 0-.67-.15-.7-.69a3.318 3.318 0 0 0-.94-2.51 3.54 3.54 0 0 1-1.85 1.16 12 12 0 0 0-1.4.31c-1.42.5-3.21.46-3.67 2.42a.23.23 0 0 1-.198.166.23.23 0 0 1-.132-.026.327.327 0 0 1-.17-.22v-.62a3.14 3.14 0 0 0-.91-2.45 4.6 4.6 0 0 1-2.26 2.52 8.7 8.7 0 0 1-2.11.8 10.2 10.2 0 0 0-4.64 2.73c-1.19 1.21-2.07 2.56-1.62 4.39 0 0 0 .05-.12.15a1.5 1.5 0 0 1-.53-1.42q.12-.878.33-1.74c-7.55 2.9-12.54 8.21-16.33 14.85Zm46.83 135.92c.47.14.5.49.65.74.42.827.963 1.586 1.61 2.25 1.55 1.49 3.13 1.26 4.22-.59q.305-.537.48-1.13a.24.24 0 0 1 .073-.113.23.23 0 0 1 .123-.056.24.24 0 0 1 .134.019q.077.022.125.085a.23.23 0 0 1 .045.145v.51c0 .38 0 .79.42 1a.93.93 0 0 0 1-.27 5.77 5.77 0 0 0 2.29-4c.13-1.88.23-3.76.26-5.64a83.2 83.2 0 0 0-2.12-20.19 12.4 12.4 0 0 0-2.72-5.1 9.3 9.3 0 0 1-2.73 2.67 11 11 0 0 1-8.12 1.26 15.8 15.8 0 0 1-7.89-4.16c-.24-.22-.4-.56-.79-.58-.14.28 0 .55 0 .82a9.2 9.2 0 0 1-.81 4.1 5.385 5.385 0 0 1-4.13 3.2 8 8 0 0 1-4.35-.47 13.46 13.46 0 0 1-6.88-6.4 30 30 0 0 1-1.58-3.6c-.32.24-.19.44-.14.63a14.6 14.6 0 0 0 1.54 3.79 19.35 19.35 0 0 0 7.85 7.6 15.7 15.7 0 0 0 7.21 1.81c.53 0 .78-.17.73-.7a14.7 14.7 0 0 1 .24-3 .79.79 0 0 1 .35-.73c0 .43-.07.77-.1 1.11a15.1 15.1 0 0 0 1 7.25 60 60 0 0 0 2.83 5.82 46 46 0 0 0 3.84 5.7 21.2 21.2 0 0 1 3.55 8.24c.107.614.281 1.214.52 1.79a8 8 0 0 0 1.27-3.79Zm-20.6 2.33c.118.32.138.668.06 1-.037.478-.014.958.07 1.43a1.245 1.245 0 0 0 1.77 1 4.1 4.1 0 0 0 1.24-.72 10 10 0 0 0 3.17-4.37 52.4 52.4 0 0 0 3.38-13.51 3.7 3.7 0 0 0-.33-2 28 28 0 0 1-2.06-5.58c-.13-.56-.39-.7-.92-.67a13 13 0 0 1-4.67-.59 19.14 19.14 0 0 1-12.23-11.64 2 2 0 0 0-.59-1.08c-.09.89-.2 1.65-.25 2.42a43 43 0 0 0 .32 8.4 69.3 69.3 0 0 0 5.59 20.33 19.4 19.4 0 0 1 2 6.21c.06.66.26 1.38 1 1.52s1.15-.46 1.57-1 .43-.75.88-1.13ZM35.7 96.08a27.7 27.7 0 0 0-5 9.14 48 48 0 0 0-1.4 6.73 25.8 25.8 0 0 0-.42 5.62 14.7 14.7 0 0 1-.47 5.29 2 2 0 0 0 0 1.1 15.65 15.65 0 0 0 6.29 9.1 8.6 8.6 0 0 0 4.3 1.55 5.25 5.25 0 0 0 5.18-2.67 6.1 6.1 0 0 0 .82-2.41 6.52 6.52 0 0 0-1.06-5.15 19.2 19.2 0 0 1-3-6 6.4 6.4 0 0 0-.62-1.3 24.94 24.94 0 0 1-3.28-17.37 1.44 1.44 0 0 0 0-.69 16 16 0 0 0-1.34-2.94m12.95-45.73c-.06-.35-.09-.55-.13-.74a17.6 17.6 0 0 1-.38-5.11c.114-2.61.778-5.166 1.95-7.5a8.56 8.56 0 0 1 2.36-2.94 3.37 3.37 0 0 1 4.8.36 7.5 7.5 0 0 1 1.59 2.62c.532 1.413.839 2.901.91 4.41a20.14 20.14 0 0 1-1.74 9.8 14.4 14.4 0 0 1-1.71 2.61c1 .52 1.89 1 2.78 1.48.42.25.6.11.77-.27.26-.6.56-1.18.81-1.78a32.3 32.3 0 0 0 2.21-16.41 22.9 22.9 0 0 0-2.18-7.67 11.7 11.7 0 0 0-3.54-4.34 6.28 6.28 0 0 0-5.94-.94 8.7 8.7 0 0 0-3.15 1.87 16.2 16.2 0 0 0-3.43 4.33 32.1 32.1 0 0 0-3.74 17 .66.66 0 0 0 .54.72c2.4.67 4.73 1.56 7.22 2.54Zm29.67 55.78a3.8 3.8 0 0 1-1.37 1.13 29.8 29.8 0 0 0-8.27 8 10.2 10.2 0 0 0-1.43 3.06 4 4 0 0 0-.16 1c0 .92.48 1.19 1.25.72a8 8 0 0 0 .72-.57 10.6 10.6 0 0 0 1.71-2 6.3 6.3 0 0 0-.11 1.55c.08.89.56 1.2 1.41.9a5.3 5.3 0 0 0 1.74-1.07 24.4 24.4 0 0 1 5.48-3.6 24.5 24.5 0 0 0 6.94-4.68 2.94 2.94 0 0 0 .91-2.08 6 6 0 0 0-.74-3 17.8 17.8 0 0 0-4.13-5.2 28.3 28.3 0 0 0-7.23-4.66c-.94-.43-.95-.46-1.62.37a15 15 0 0 0-2.93 6.38 10.2 10.2 0 0 0-.16 2.86 1.8 1.8 0 0 0 1.46 1.75c.626.183 1.27.297 1.92.34a4.17 4.17 0 0 0 2.92-.69 2.6 2.6 0 0 1 1.69-.51m-10.64 24.15c.1.37.14.53.18.69a56 56 0 0 1 1.53 6.6c.37 2.23.64 4.47.83 6.73.1 1.19.11 1 1.1.91a24 24 0 0 0 5.63-1.1.9.9 0 0 0 .507-.29.9.9 0 0 0 .223-.54 16.56 16.56 0 0 0-3.15-12.61 1.06 1.06 0 0 0-1.34-.4 7.8 7.8 0 0 1-5.51.01m19.8-24.2c.12.48.24.84.3 1.2a4 4 0 0 1-.85 3.65 11.4 11.4 0 0 1-1.82 1.65 44 44 0 0 1-4.9 3c-1.17.57-2.27 1.25-3.44 1.83-.18.09-.46.15-.38.51l.82-.07a19.6 19.6 0 0 1 9 1.31c2.284.804 4.2 2.411 5.39 4.52h.23a20.6 20.6 0 0 1 1.14-5.09c.1-.401.1-.819 0-1.22a23 23 0 0 0-4.16-9.83 7.5 7.5 0 0 0-1.33-1.46m-69.34-60a4 4 0 0 1 .86-.11c.63 0 .81-.31.88-.85a22.3 22.3 0 0 0-.36-8.77 9 9 0 0 0-1.67-3.49 3.001 3.001 0 0 0-4.8-.28 9.3 9.3 0 0 0-2 2.87 21.7 21.7 0 0 0-1.78 8.48c-.03 1.398.104 2.794.4 4.16a7.8 7.8 0 0 1 2.63-1.11c.71-.16.7-.17.63-.88a14.1 14.1 0 0 1 .61-6.28c.254-.823.7-1.573 1.3-2.19a1.494 1.494 0 0 1 1.744-.456c.301.125.552.345.716.626.34.433.591.93.74 1.46a9.7 9.7 0 0 1 .44 2.52 16 16 0 0 1-.34 4.3m22.38 61.12h.14c.16-.37.3-.76.47-1.13a25.6 25.6 0 0 1 7-9.52 10.5 10.5 0 0 1 4.54-2.5c.43-.09.41-.35.43-.67a13.36 13.36 0 0 1 4-8.35c.17-.17.46-.27.5-.59a13.9 13.9 0 0 0-4.38 1.47c-.305.145-.56.378-.73.67a34.8 34.8 0 0 1-8.14 8.77 3.5 3.5 0 0 0-1 1.26 30.4 30.4 0 0 0-2.55 8.1 8.9 8.9 0 0 0-.28 2.45Zm-15.26 6.25c.18-1.33.34-2.58.5-3.83s.48-2.49.71-3.73a4.33 4.33 0 0 0-.89-3.47 3.06 3.06 0 0 0-2.67-1.43c-.2 0-.44 0-.47-.28s.2-.33.4-.39c.267-.06.543-.06.81 0a4.8 4.8 0 0 1 1.81.68 6.4 6.4 0 0 0-1.78-3.11c-.19-.19-.41-.4-.72-.25a7.4 7.4 0 0 0-3.49 2.75 2.84 2.84 0 0 0-.17 2.92c.35.67.68 1.35 1 2a70 70 0 0 0 4.96 8.1Zm-.24 6.2a4.7 4.7 0 0 1-.83.28.705.705 0 0 0-.6.47 5.8 5.8 0 0 0-.28 4.21c.41 1.19 1.12 1.64 2.61 1.1.38-.171.693-.463.89-.83a8.13 8.13 0 0 0 1.51-4.8c0-2.06 0-4.11.18-6.16.17-2.62.52-5.26-.13-7.87a8 8 0 0 0-.69-2.42 12.2 12.2 0 0 0-1 3.17c-.22 1.67-.51 3.32-.72 5a33 33 0 0 0-.26 8.7c0 .22.16.47-.09.67-.43-.45-.15-1.09-.59-1.56Zm-3.76-22c.33-.83.81-1.12 1.58-.94a3.6 3.6 0 0 1 1.8 1.12 7.7 7.7 0 0 1 1.88 4.25c.105.558.323 1.089.64 1.56a1.167 1.167 0 0 0 .09-1.55c-.23-.43-.17-.76.29-.89.81-.22 1.09-.87 1.35-1.55s.36-1.25.63-1.84a1.003 1.003 0 0 0-.08-1c-.22-.49-.69-.8-1-1.22a28 28 0 0 1 9.27-8.06 7.5 7.5 0 0 0-3.41.72 37.9 37.9 0 0 0-11.38 7.21c-.26.276-.573.497-.92.65a1.17 1.17 0 0 0-.74 1.47Zm44.47 22.38c.26-.59.49-1.19.79-1.76a2.34 2.34 0 0 0 .23-1.58 18 18 0 0 1-.31-2.64 47 47 0 0 1 .22-6.26c0-.29.15-.6-.26-.78l-4.38-2c-.27-.13-.44-.05-.53.25-.141.46-.215.939-.22 1.42A24.46 24.46 0 0 0 65 119.31c.17.21.32.55.73.65ZM9.21 27.69l.19.11a39.4 39.4 0 0 1 11.64-15.41 11.5 11.5 0 0 1-2.77-4.15 4 4 0 0 0-1.29 1.09 17.7 17.7 0 0 0-2.21 3.21 50.2 50.2 0 0 0-4.3 10.62c-.43 1.44-.84 2.92-1.26 4.46Zm32.65 69.33a24 24 0 0 1-3 1.21 1.28 1.28 0 0 0-.68.55 5.66 5.66 0 0 0-.73 2.94 26.75 26.75 0 0 0 1.87 12c.124.486.368.933.71 1.3a17 17 0 0 1-.37-2.22 33.6 33.6 0 0 1 2.25-14.3c.122-.242.181-.511.173-.781a1.6 1.6 0 0 0-.223-.769Zm.2-1.7a8.2 8.2 0 0 0 3.12-2.81 13.3 13.3 0 0 1 2-2.59c.6-.65 1.22-1.27 2-2.05-3.36.25-5.93 2-8.69 3.58.59-1.23.53-1.49-.53-2.48a6.33 6.33 0 0 0-3.31 5.55c3.22-1.78 3.77-1.7 5.41.73Zm2.34 6.33a23 23 0 0 0-3.51 6.74 8.2 8.2 0 0 0-.56 2.49c.017 2.025.282 4.04.79 6 .09.422.328.798.67 1.06.08-.05.12-.07.12-.09.09-4.13 1.13-7.9 4.07-11 .26-.27 0-.4-.1-.6a7.7 7.7 0 0 1-1.27-3.53 2.9 2.9 0 0 0-.21-1.14Zm-13.63.86c.15 0 .2 0 .21-.05.11-.28.23-.57.33-.86a50.6 50.6 0 0 1 6.74-12.51c.19-.28.75-.51.44-.91s-.7 0-1 .12a8.3 8.3 0 0 0-1.18.62 30.5 30.5 0 0 0-6.76 6.11c-.18.21-.49.39-.15.76a6 6 0 0 1 1.25 3.63c.07.94.07 1.97.12 3.02Zm23.55-60.99a8 8 0 0 0 .55 3.27c.27.6.61 1.22 1.37 1.23s1-.57 1.35-1.12a8.4 8.4 0 0 0 .93-4 7.6 7.6 0 0 0-.82-4.08 1.164 1.164 0 0 0-1.334-.678 1.16 1.16 0 0 0-.666.438 3.7 3.7 0 0 0-.82 1.41 11.5 11.5 0 0 0-.56 3.53m13 74.87a33.5 33.5 0 0 1 7.05-8.11c-.43-.29-.86-.2-1.24-.31s-.68-.1-.8.42c-.08.36-.48.46-.83.49a2.8 2.8 0 0 1-1.29-.28c-1-.4-1.93-.78-3-1.19a27 27 0 0 0 .11 8.98m-17.42 12.6a12.47 12.47 0 0 0 9.31 1.8c-.32-.52-.55-1-.84-1.38a1.54 1.54 0 0 0-1.8-.6 10.8 10.8 0 0 1-4.44.43c-.72-.07-1.46-.16-2.2-.25ZM30.1 99.71a8.3 8.3 0 0 1-2.58 2c.461 1.09.829 2.218 1.1 3.37a36 36 0 0 0 .65 3.53 21.2 21.2 0 0 0 .86-8.9Zm9.23-6a4 4 0 0 0-2.43 1.23.58.58 0 0 0-.14.65 1.734 1.734 0 0 0 1.74 1.27 7.8 7.8 0 0 0 2.74-1.07.37.37 0 0 0 .22-.49 2.32 2.32 0 0 0-2.14-1.58Zm-23.6-52.73c-.022.53.081 1.057.3 1.54.37.7.94.75 1.29.06a3.81 3.81 0 0 0 .1-3.44c-.28-.65-.86-.66-1.25-.07a3.26 3.26 0 0 0-.41 1.92ZM47 101.56c-.09 0-.21.07-.25.14a3.3 3.3 0 0 0-.32 2.09c.06.52.54.58.89.73 1.5.65 1.5.64 2.26-.77a.92.92 0 0 0-.072-1.1.9.9 0 0 0-.498-.3c-.51-.18-1-.39-1.53-.59Zm-11.12-8.24a24.2 24.2 0 0 0-3.36 6.44c.61-.82 1.09-1.74 1.76-2.5a5.14 5.14 0 0 0 1.56-3.64c.03-.09.06-.19.07-.29Zm14.18 9.65c.38-.11.23-.44.29-.68a1.33 1.33 0 0 1 1.57-1 1.296 1.296 0 0 1 1.07 1.41 1.338 1.338 0 0 1-1.44 1c-.26 0-.51-.24-.78 0a1.67 1.67 0 0 0 2.27.15 1.58 1.58 0 0 0 .33-2.12 2 2 0 0 0-2.49-.87 1.49 1.49 0 0 0-.79 2.12ZM50 88.08a15.7 15.7 0 0 0-3.85 4 15.1 15.1 0 0 0 3.85-4m2.69 14.46a1.002 1.002 0 0 0-1-.91.943.943 0 0 0-1 .94 1 1 0 0 0 1 .92 1 1 0 0 0 1-.98Zm-23-4.56c-.11.34-.22.64-.3 1s-.34.65-.19 1c.81-.78.93-1.26.5-2.03Z"/><path fill="#fff" d="M32.94 46.5a75 75 0 0 1 10.38 2.58 87.6 87.6 0 0 1 21.8 10.64 69 69 0 0 1 6.76 5.17 48.2 48.2 0 0 0 10.61 7c.24.11.54.15.7.49a17 17 0 0 1-4.93 1.89h-.41c-.14 0-.51-.28-.64 0s.2.52.46.68a4.9 4.9 0 0 0 2.4.89 12 12 0 0 1-2.41 1.57 69.4 69.4 0 0 1-15.53 6.1 2 2 0 0 1-.81.13 13.46 13.46 0 0 0-7.86 1.42 8.7 8.7 0 0 1-2.63.79q-3.57.45-7.17.56a41.95 41.95 0 0 1-16.63-3.19 56.7 56.7 0 0 1-14.31-8.34A24.15 24.15 0 0 1 5.1 64.76a14 14 0 0 1-1.18-5 12.21 12.21 0 0 1 8.39-12 14.7 14.7 0 0 1 5.21-1.06h.92c.36 0 .56.13.58.54a3.81 3.81 0 0 0 2.11 3.11 10.36 10.36 0 0 0 9 1q.482-.173.93-.42c1.8-.99 2.38-2.28 1.88-4.43m9.6 29.47c1.806.229 3.639.131 5.41-.29a19.5 19.5 0 0 0 8.38-3.88 7 7 0 0 0 2.37-3 2.877 2.877 0 0 0-.19-2.66c-.09-.14-.19-.33-.39-.26s-.17.34-.07.51a3 3 0 0 1-.32 3.19 9.3 9.3 0 0 1-2.81 2.82 20 20 0 0 1-9.34 3.39 12.56 12.56 0 0 1-5.45-.66c.192.28.487.474.82.54a5.4 5.4 0 0 0 1.59.3"/><path fill="#ecd107" d="M11.71 24.21c3.79-6.64 8.78-11.95 16.22-14.78q-.21.862-.33 1.74a1.5 1.5 0 0 0 .53 1.42c.09-.1.13-.13.12-.15-.45-1.83.43-3.18 1.62-4.39a10.2 10.2 0 0 1 4.64-2.73 8.7 8.7 0 0 0 2.11-.8A4.6 4.6 0 0 0 38.88 2a3.13 3.13 0 0 1 .91 2.45c0 .21-.05.41 0 .62a.33.33 0 0 0 .17.22.23.23 0 0 0 .33-.14c.46-2 2.25-1.92 3.67-2.42a12 12 0 0 1 1.4-.31 3.54 3.54 0 0 0 1.85-1.16 3.32 3.32 0 0 1 .94 2.51c0 .54.14.72.7.69 8.69-.33 16.24 2.68 23 8q1.197.919 2.25 2a8 8 0 0 0-2.05 1.61c.39.17.58-.08.79-.22a12.2 12.2 0 0 1 3.55-1.57 64 64 0 0 1 9.19-1.68c2.73-.43 5.48-.86 8.18-1.5a11.3 11.3 0 0 0 2.67-1 5.9 5.9 0 0 1-.46 2.54 10.46 10.46 0 0 1-2.5 3.85 19.46 19.46 0 0 1-8.69 5.07 9.3 9.3 0 0 0-3.73 1.81 5 5 0 0 0-1.86 3.54 3.363 3.363 0 0 0 3.74 3.64c.47 0 .93-.14 1.54-.24a9.5 9.5 0 0 0-1.44 3.58c-.2.943-.2 1.917 0 2.86.113.72.439 1.39.936 1.923a3.65 3.65 0 0 0 3.984.927c.35-.1.7-.22 1.13-.36-.13.5-.49.68-.72.95a6 6 0 0 0-.47.54.37.37 0 0 0 0 .47.38.38 0 0 0 .46.12c.24-.12.46-.28.77-.47.374.758.604 1.578.68 2.42a20.7 20.7 0 0 1 0 7.88 7.75 7.75 0 0 0 .8 5.32 19.4 19.4 0 0 0 6 7.42 13.6 13.6 0 0 0 3 1.6 8 8 0 0 1-4 .62 14.4 14.4 0 0 1-6.74-2.31 32 32 0 0 1-8.05-7.12A52.1 52.1 0 0 1 70 34.32c-.38-1.74-.5-3.52-1-5.25a15.84 15.84 0 0 0-3.75-7.21 11.83 11.83 0 0 0-9.78-3.63 20.7 20.7 0 0 0-9.52 3.3 33.8 33.8 0 0 0-6.76 5.81 66 66 0 0 0-5.74 6.72 9.7 9.7 0 0 1-2.46 2.45 7.9 7.9 0 0 1-2.58 1.24 4.526 4.526 0 0 1-4.92-1.47 11 11 0 0 1-2-3.57 31 31 0 0 0-1.84-4.79 8 8 0 0 0-4.27-3.66 5.7 5.7 0 0 0-3.67-.05m18.15 3.41c-1 .56-1 .56-1.17 1.26a19.4 19.4 0 0 0-.68 2.9 7.7 7.7 0 0 0-.05 2.15c.16 1.2 1 1.57 2 .93.11-.07.21-.16.32-.24a8.8 8.8 0 0 0 2.16-2.72 38 38 0 0 1 4.18-5.58 37 37 0 0 1 8.7-7.54 15.2 15.2 0 0 1 5.14-2 6.4 6.4 0 0 1 4.86.62c.11.08.22.16.37.06a.37.37 0 0 0 .145-.202.37.37 0 0 0-.015-.248 10.9 10.9 0 0 0-.93-2.71 4.85 4.85 0 0 0-2.08-2.112 4.85 4.85 0 0 0-2.92-.508 9.6 9.6 0 0 0-3.74 1.35 24.1 24.1 0 0 0-4.69 3.65 51.7 51.7 0 0 0-7.74 9.82c-.32.52-.72 1-1 1.53-.86 1.6-1.67 3.22-2.51 4.83q-.19.362-.47.66c-.3.3-.57.22-.66-.19a4.9 4.9 0 0 1 0-1.74c.24-1.29.44-2.51.78-3.97m-1.87.93a1.25 1.25 0 0 0-1.21 1c-.24.86-.5 1.7-.76 2.55s-.81 1-1.54.51c-.27-.19-.35-.59-.8-.66a2.55 2.55 0 0 0 .77 2.13 1.52 1.52 0 0 0 1.62.64 1.45 1.45 0 0 0 1-1.34c.15-.94.22-1.89.45-2.83a9 9 0 0 0 .47-2m-1.73-2.16c-.32.168-.567.45-.69.79-.18.33-.4.68-.08 1a1 1 0 0 0 1 .26 6.2 6.2 0 0 0 2-.79c1.35-.87 2.7-1.76 4-2.64.184-.095.335-.246.43-.43.1-.23.24-.46 0-.65s-.37.05-.52.17a16.9 16.9 0 0 1-5.19 2.66c-.44.23-.76.16-.95-.37"/><path fill="#fff" d="M75.64 94.15a.62.62 0 0 0-.84 0 6 6 0 0 0-.8.64 14.32 14.32 0 0 0-4.16 9.26 4.57 4.57 0 0 0 .38 2.51c.33.59.54 1.51 1.61 1.1.1 0 .18.07.22.16s0 .2-.06.28a.85.85 0 0 1-1 .29 9.8 9.8 0 0 1-1.8-.74c-2.79-1.55-5.67-2.91-8.53-4.29a.9.9 0 0 0-.29-.11c-1.08-.08-1.43-.89-1.76-1.73a11.8 11.8 0 0 1-.75-3c0-.22 0-.49-.2-.65-.29.05-.26.28-.26.47a8.5 8.5 0 0 0 1.63 4.89c.407.469.937.816 1.53 1 .43.2.66.38.39.91a3.95 3.95 0 0 0-.31 1.71 23.17 23.17 0 0 0 3.68 12.72c.31.49.88.88 1 1.39a4.8 4.8 0 0 1-.35 1.68 10.3 10.3 0 0 0-.14 3.58c0 .24.1.46-.09.67a14.6 14.6 0 0 1-2.76 2.74c-.425.29-.886.525-1.37.7a1.22 1.22 0 0 1-1.57-.58c-.88-1.35-1.54-1.57-3.12-1.11a13.7 13.7 0 0 1-5.3.06 6.78 6.78 0 0 1-4.55-2.59 11.9 11.9 0 0 1-3-5.08c-.08-.35-.14-.71-.21-1a.42.42 0 0 1 .46 0c.595.246 1.261.26 1.865.038a2.56 2.56 0 0 0 1.395-1.238 9 9 0 0 0 1.34-4.26c.18-2 .21-4 .55-6 .147-.81.371-1.603.67-2.37a.52.52 0 0 1 .7-.39c.2.05.41.06.61.11 1.73.41 3.31-.18 4.9-.72.22-.08.29-.25.38-.44a2.8 2.8 0 0 0 .08-1.87c-.41.09-.25.3-.22.49.22 1.11 0 1.41-1 1.75a8.23 8.23 0 0 1-4.83.24c-.09-.26.11-.39.2-.56.23-.42.43-.55 1-.3a2 2 0 0 0 2.66-.61 1.41 1.41 0 0 1 1-.59 4.4 4.4 0 0 0 .7-.23.37.37 0 0 0-.28-.239.36.36 0 0 0-.19.019c-.56.1-.8 0-1-.67a2.3 2.3 0 0 0-1.835-1.726 2.3 2.3 0 0 0-1.305.156 2.135 2.135 0 0 0-1.18 1.52 7.4 7.4 0 0 1-1.94-.64c-.79-.3-1.1-.13-1.32.7a5 5 0 0 0-.16.91c-.06 1 .11 1.31 1 1.74.49.23 1 .44 1.54.68a23.6 23.6 0 0 0-1.3 8.15q-.008.571-.12 1.13a11.4 11.4 0 0 1-.64 2.37 4.1 4.1 0 0 1-1.09 1.6 1.94 1.94 0 0 1-2.1.39 1.1 1.1 0 0 1-.618-.416 1.1 1.1 0 0 1-.212-.714 17.6 17.6 0 0 1 1.08-6.34 14 14 0 0 1 2.71-4.45c.65-.72.57-.73 0-1.53a7.33 7.33 0 0 1-1.33-4.85c.016-.242.107-.473.26-.66a17 17 0 0 1 6.29-5.16q.811-.329 1.66-.54c.28-.08.36-.18.37-.48a13.05 13.05 0 0 1 3.91-8.58 3.7 3.7 0 0 1 4.3-1 12 12 0 0 1 4.78 3.06 29.8 29.8 0 0 0 8 5.88c.21.116.441.188.68.21a.527.527 0 0 1 .54.51c-.07-.09-.14-.09-.18.04m-25.5 26.93a1 1 0 0 0 0 1 7.4 7.4 0 0 0 1.87 2.66 1.9 1.9 0 0 0 1.4.51 15.5 15.5 0 0 1 2.26 0 5.713 5.713 0 0 0 4.24-1.43q.386-.34.84-.58c.29-.13.37-.38.49-.62.53-1.05 0-1.92-.48-2.79-.37-.67-.61-.68-1.05 0a3.6 3.6 0 0 1-1.37 1.2 9.73 9.73 0 0 1-8.2.05"/><path fill="#ecd107" d="M58.54 160.13a8 8 0 0 1-1.22 3.85 8.5 8.5 0 0 1-.52-1.79 21.2 21.2 0 0 0-3.55-8.24 46 46 0 0 1-3.84-5.7 60 60 0 0 1-2.83-5.82 15.1 15.1 0 0 1-1-7.25c0-.34.06-.68.1-1.11a.79.79 0 0 0-.35.73 14.7 14.7 0 0 0-.24 3c0 .53-.2.7-.73.7a15.7 15.7 0 0 1-7.21-1.81 19.35 19.35 0 0 1-7.85-7.6 14.6 14.6 0 0 1-1.54-3.79c-.05-.19-.18-.39.14-.63a30 30 0 0 0 1.58 3.6 13.46 13.46 0 0 0 6.88 6.4 8 8 0 0 0 4.35.47 5.39 5.39 0 0 0 4.13-3.2 9.2 9.2 0 0 0 .81-4.1c0-.27-.11-.54 0-.82.39 0 .55.36.79.58a15.8 15.8 0 0 0 7.89 4.16c2.767.644 5.679.193 8.12-1.26a9.3 9.3 0 0 0 2.73-2.67 12.4 12.4 0 0 1 2.72 5.1 83.2 83.2 0 0 1 2.1 20.15c0 1.88-.13 3.76-.26 5.64a5.77 5.77 0 0 1-2.29 4 .93.93 0 0 1-1 .27c-.41-.19-.41-.6-.42-1v-.51a.23.23 0 0 0-.17-.23.24.24 0 0 0-.134-.019.23.23 0 0 0-.123.056.24.24 0 0 0-.073.113 5.3 5.3 0 0 1-.48 1.13c-1.09 1.85-2.67 2.08-4.22.59a9.2 9.2 0 0 1-1.61-2.25c-.18-.25-.21-.6-.68-.74"/><path fill="#ecd107" d="M37.94 162.46c-.45.38-.57.87-.87 1.23s-.85 1.11-1.57 1-.95-.86-1-1.52a19.4 19.4 0 0 0-2-6.21 69.3 69.3 0 0 1-5.59-20.33 43 43 0 0 1-.32-8.4c.05-.77.16-1.53.25-2.42a2 2 0 0 1 .59 1.08 19.13 19.13 0 0 0 12.23 11.64c1.507.464 3.086.651 4.66.55.53 0 .79.11.92.67a28 28 0 0 0 2.06 5.58c.295.623.409 1.316.33 2a52.4 52.4 0 0 1-3.38 13.51 10 10 0 0 1-3.17 4.37 4.1 4.1 0 0 1-1.24.72 1.25 1.25 0 0 1-1.45-.291 1.24 1.24 0 0 1-.32-.709 5.7 5.7 0 0 1-.07-1.43 1.74 1.74 0 0 0-.06-1.04"/><path fill="#fff" d="M35.7 96.08c.542.916.991 1.884 1.34 2.89.056.227.056.463 0 .69a24.95 24.95 0 0 0 3.28 17.42q.363.623.58 1.31a19.2 19.2 0 0 0 3 6 6.52 6.52 0 0 1 1.06 5.15 6.1 6.1 0 0 1-.82 2.41 5.25 5.25 0 0 1-5.18 2.67 8.6 8.6 0 0 1-4.3-1.55 15.65 15.65 0 0 1-6.29-9.1 2 2 0 0 1 0-1.1 14.7 14.7 0 0 0 .47-5.29 25.8 25.8 0 0 1 .42-5.62 48 48 0 0 1 1.4-6.73 27.7 27.7 0 0 1 5.04-9.15m12.95-45.69c-2.49-1-4.82-1.87-7.22-2.55a.66.66 0 0 1-.54-.72 32.1 32.1 0 0 1 3.74-17 16.2 16.2 0 0 1 3.43-4.33 8.7 8.7 0 0 1 3.15-1.87 6.27 6.27 0 0 1 5.94.94 11.7 11.7 0 0 1 3.54 4.34 22.9 22.9 0 0 1 2.18 7.67 32.3 32.3 0 0 1-2.21 16.41c-.25.6-.55 1.18-.81 1.78-.17.38-.35.52-.77.27-.89-.51-1.8-1-2.78-1.48a14.4 14.4 0 0 0 1.71-2.61 20.14 20.14 0 0 0 1.74-9.8 14.4 14.4 0 0 0-.91-4.41 7.5 7.5 0 0 0-1.59-2.62 3.37 3.37 0 0 0-4.8-.36 8.56 8.56 0 0 0-2.36 2.94 18.5 18.5 0 0 0-1.95 7.5 17.6 17.6 0 0 0 .38 5.11c.04.24.07.48.13.79"/><path fill="#ecd107" d="M78.32 106.13a2.6 2.6 0 0 0-1.69.61 4.17 4.17 0 0 1-2.92.69 9 9 0 0 1-1.92-.34 1.8 1.8 0 0 1-1.46-1.75 10.2 10.2 0 0 1 .16-2.86 15 15 0 0 1 2.93-6.38c.67-.83.68-.8 1.62-.37a28.3 28.3 0 0 1 7.23 4.66 17.8 17.8 0 0 1 4.13 5.2 6 6 0 0 1 .74 3 2.94 2.94 0 0 1-.91 2.08 24.5 24.5 0 0 1-6.94 4.68 24.4 24.4 0 0 0-5.48 3.6 5.3 5.3 0 0 1-1.74 1.07c-.85.3-1.33 0-1.41-.9a6.3 6.3 0 0 1 .11-1.55 10.6 10.6 0 0 1-1.71 2 8 8 0 0 1-.72.57c-.77.47-1.25.2-1.25-.72a4 4 0 0 1 .16-1 10.2 10.2 0 0 1 1.43-3.06 29.8 29.8 0 0 1 8.27-8 3.8 3.8 0 0 0 1.37-1.23m21.25 3.3c-.11-.26.06-.45.15-.67a22.86 22.86 0 0 0 1.39-10.89 19.7 19.7 0 0 0-2.58-8.46c6.13 3.52 12.07 12.53 13.09 22.45-.32 0-.45-.26-.62-.42a11.4 11.4 0 0 0-4.67-2.71 8.52 8.52 0 0 0-5.92.38c-.28.12-.52.34-.85.31Zm-31.89 20.85c1.775.67 3.735.67 5.51 0a1.06 1.06 0 0 1 1.34.4 16.56 16.56 0 0 1 3.15 12.61c-.012.2-.09.39-.223.54a.9.9 0 0 1-.507.29 24 24 0 0 1-5.63 1.1c-1 .07-1 .28-1.1-.91-.19-2.26-.46-4.5-.83-6.73a56 56 0 0 0-1.53-6.6c-.04-.17-.08-.33-.18-.7"/><path fill="#ecd107" d="M87.48 106.08c.493.434.927.932 1.29 1.48a23 23 0 0 1 4.16 9.83c.1.401.1.819 0 1.22a20.6 20.6 0 0 0-1.14 5.09h-.23a10 10 0 0 0-5.39-4.52 19.6 19.6 0 0 0-9-1.31l-.82.07c-.08-.36.2-.42.38-.51 1.17-.58 2.27-1.26 3.44-1.83a44 44 0 0 0 4.9-3 11.4 11.4 0 0 0 1.82-1.65 4 4 0 0 0 .85-3.65c-.02-.43-.14-.79-.26-1.22"/><path fill="#fff" d="M18.14 46.08c.32-1.41.448-2.856.38-4.3a9.7 9.7 0 0 0-.44-2.52 4.2 4.2 0 0 0-.74-1.46 1.49 1.49 0 0 0-2.46-.17 5.45 5.45 0 0 0-1.3 2.19 14.1 14.1 0 0 0-.61 6.28c.07.71.08.72-.63.88a7.8 7.8 0 0 0-2.63 1.11 17.8 17.8 0 0 1-.4-4.16 21.7 21.7 0 0 1 1.78-8.48 9.3 9.3 0 0 1 2-2.87 3 3 0 0 1 3.375-.868 3 3 0 0 1 1.425 1.148 9 9 0 0 1 1.67 3.49c.699 2.871.821 5.852.36 8.77-.07.54-.25.89-.88.85a4.2 4.2 0 0 0-.9.11m22.38 61.08a8.8 8.8 0 0 1 .25-2.51 30.4 30.4 0 0 1 2.55-8.1 3.5 3.5 0 0 1 1-1.26 34.8 34.8 0 0 0 8.14-8.77c.17-.292.425-.525.73-.67a13.9 13.9 0 0 1 4.38-1.47c0 .32-.33.42-.5.59a13.36 13.36 0 0 0-4 8.35c0 .32 0 .58-.43.67a10.5 10.5 0 0 0-4.54 2.5 25.6 25.6 0 0 0-7 9.52c-.17.37-.31.76-.47 1.13.02.02-.04.01-.11.02"/><path fill="#ecd107" d="M25.26 113.41a69 69 0 0 1-4.93-8.14c-.35-.66-.68-1.34-1-2a2.84 2.84 0 0 1 .17-2.92 7.4 7.4 0 0 1 3.49-2.75c.31-.15.53.06.72.25a6.4 6.4 0 0 1 1.78 3.11 4.8 4.8 0 0 0-1.81-.68 1.85 1.85 0 0 0-.81 0c-.2.06-.42.14-.4.39s.27.28.47.28a3.05 3.05 0 0 1 2.67 1.43 4.34 4.34 0 0 1 .89 3.47c-.23 1.24-.54 2.47-.71 3.73s-.35 2.5-.53 3.83"/><path fill="#fff" d="M25.02 119.61c.44.43.16 1.11.62 1.49.25-.2.12-.45.09-.67a33 33 0 0 1 .26-8.7c.21-1.66.5-3.31.72-5a12.2 12.2 0 0 1 1-3.17c.356.765.589 1.582.69 2.42.65 2.61.3 5.25.13 7.87-.14 2.05-.21 4.1-.18 6.16a8.13 8.13 0 0 1-1.51 4.81c-.197.367-.51.659-.89.83-1.49.54-2.2.09-2.61-1.1a5.8 5.8 0 0 1 .28-4.21.7.7 0 0 1 .6-.47 5 5 0 0 0 .8-.26m-3.76-22.03a1.17 1.17 0 0 1 .233-1.165c.139-.156.318-.272.517-.335.347-.153.66-.374.92-.65a37.9 37.9 0 0 1 11.39-7.21 7.5 7.5 0 0 1 3.41-.72 28 28 0 0 0-9.27 8.06c.3.42.77.73 1 1.22a1 1 0 0 1 .08 1c-.27.59-.41 1.23-.63 1.84s-.54 1.33-1.35 1.55c-.46.13-.52.46-.29.89a1.17 1.17 0 0 1-.09 1.55 4.2 4.2 0 0 1-.64-1.56 7.7 7.7 0 0 0-1.88-4.25 3.6 3.6 0 0 0-1.8-1.12c-.79-.22-1.27.07-1.6.9m44.47 22.38c-.42-.1-.56-.44-.73-.72a24.46 24.46 0 0 1-3.68-12.63c.005-.481.079-.96.22-1.42.09-.3.26-.38.53-.25l4.38 2c.41.18.3.49.26.78a47 47 0 0 0-.22 6.26q.056 1.332.31 2.64a2.34 2.34 0 0 1-.23 1.58c-.35.57-.58 1.17-.84 1.76"/><path fill="#ecd107" d="M9.21 27.62c.42-1.51.83-3 1.26-4.53a50.2 50.2 0 0 1 4.3-10.62 17.7 17.7 0 0 1 2.21-3.21 4 4 0 0 1 1.29-1.09 11.5 11.5 0 0 0 2.77 4.15A39.4 39.4 0 0 0 9.4 27.73Z"/><path fill="#fff" d="M41.86 96.95a1.61 1.61 0 0 1 0 1.55 33.6 33.6 0 0 0-2.25 14.3q.11 1.122.37 2.22a3 3 0 0 1-.71-1.3 26.75 26.75 0 0 1-1.85-12.07 5.66 5.66 0 0 1 .73-2.94c.155-.257.396-.452.68-.55a24 24 0 0 0 3.03-1.21"/><path fill="#ecd107" d="M42.06 95.25c-1.64-2.43-2.19-2.51-5.42-.8a6.33 6.33 0 0 1 3.31-5.55c1.06 1 1.12 1.25.53 2.48 2.76-1.59 5.33-3.33 8.69-3.58-.75.78-1.37 1.4-2 2.05a13.3 13.3 0 0 0-2 2.59 8.2 8.2 0 0 1-3.11 2.81"/><path fill="#fff" d="M44.4 101.58c.14.346.211.717.21 1.09a7.7 7.7 0 0 0 1.27 3.53c.14.2.36.33.1.6-2.94 3.07-4 6.84-4.07 11l-.12.09a1.8 1.8 0 0 1-.67-1.06 24.7 24.7 0 0 1-.79-6 8.2 8.2 0 0 1 .56-2.49 23 23 0 0 1 3.51-6.76m-13.63.86c-.05-1.05-.05-2.08-.15-3.09a6 6 0 0 0-1.25-3.63c-.34-.37 0-.55.15-.76a30.5 30.5 0 0 1 6.76-6.11 8.3 8.3 0 0 1 1.18-.62c.33-.14.76-.46 1-.12s-.25.63-.44.91a50.6 50.6 0 0 0-6.7 12.51c-.1.29-.22.58-.33.86-.02.02-.07.02-.22.05m23.55-60.92c-.002-1.184.18-2.362.54-3.49a3.7 3.7 0 0 1 .82-1.41 1.16 1.16 0 0 1 2 .24 7.6 7.6 0 0 1 .82 4.08 8.4 8.4 0 0 1-.93 4c-.3.55-.65 1.13-1.35 1.12s-1.1-.63-1.37-1.23a8 8 0 0 1-.53-3.31"/><path fill="#ecd107" d="M67.32 116.39a27 27 0 0 1-.07-9c1 .41 2 .79 3 1.19a2.8 2.8 0 0 0 1.29.28c.35 0 .75-.13.83-.49.12-.52.37-.55.8-.42s.81 0 1.24.31a33.6 33.6 0 0 0-7.09 8.13"/><path fill="#fff" d="M49.93 128.99c.74.09 1.48.18 2.23.25 1.494.168 3.006.022 4.44-.43a1.54 1.54 0 0 1 1.8.6c.29.42.52.86.84 1.38a12.47 12.47 0 0 1-9.31-1.8m-19.8-29.28a21.15 21.15 0 0 1-.86 8.86 36 36 0 0 1-.65-3.53 21 21 0 0 0-1.07-3.32 8.3 8.3 0 0 0 2.58-2.01m9.19-5.99a2.32 2.32 0 0 1 2.13 1.59.37.37 0 0 1-.22.49 7.8 7.8 0 0 1-2.74 1.07 1.734 1.734 0 0 1-1.74-1.27.58.58 0 0 1 .14-.65 4 4 0 0 1 2.43-1.23M15.76 40.99a3.26 3.26 0 0 1 .44-1.91c.39-.59 1-.58 1.25.07a3.813 3.813 0 0 1-.1 3.44c-.35.69-.92.64-1.29-.06a3.4 3.4 0 0 1-.3-1.54m31.27 60.58.48.2c.51.2 1 .41 1.53.59a.92.92 0 0 1 .717.838.9.9 0 0 1-.147.562c-.76 1.41-.76 1.42-2.26.77-.35-.15-.83-.21-.89-.73a3.3 3.3 0 0 1 .32-2.09c.04-.07.16-.09.25-.14"/><path fill="#ecd107" d="M35.91 93.33v.3a5.15 5.15 0 0 1-1.56 3.64c-.67.76-1.15 1.68-1.76 2.5a24.2 24.2 0 0 1 3.32-6.44"/><path fill="#fff" d="M50.09 102.98a1.489 1.489 0 0 1 .82-2.06 2 2 0 0 1 2.49.87 1.58 1.58 0 0 1-.33 2.12 1.67 1.67 0 0 1-2.27-.15c.27-.22.52 0 .78 0a1.34 1.34 0 0 0 1.44-1 1.3 1.3 0 0 0-1.07-1.41 1.33 1.33 0 0 0-1.57 1c-.06.19.09.52-.29.63M50 88.08a15.1 15.1 0 0 1-3.85 4 15.7 15.7 0 0 1 3.85-4"/><path fill="#fff" d="M52.69 102.51a1.003 1.003 0 0 1-2 .03.943.943 0 0 1 1-.94 1 1 0 0 1 1 .91M29.7 97.95c.43.77.31 1.25-.49 2-.15-.4.11-.71.19-1s.19-.66.3-1"/><path fill="#ecd107" d="M75.89 94.15c0-.13.11-.13.2 0v.47h-.08Zm23.67 15.27-.04.03.06-.01z"/><path fill="#060605" d="M45.58 75.75a20 20 0 0 0 9.34-3.39 9.3 9.3 0 0 0 2.81-2.82 3 3 0 0 0 .32-3.19c-.1-.17-.21-.4.07-.51s.3.12.39.26a2.88 2.88 0 0 1 .19 2.66 7 7 0 0 1-2.37 3 19.5 19.5 0 0 1-8.38 3.88 15.1 15.1 0 0 1-5.4.29c.43 0 .87 0 1.3-.07a4.6 4.6 0 0 0 1.73-.11"/><path fill="#060605" d="M45.58 75.75a4.6 4.6 0 0 1-1.73.15c-.43 0-.87.05-1.3.07a5.4 5.4 0 0 1-1.6-.34 1.3 1.3 0 0 1-.82-.54c1.746.619 3.607.845 5.45.66M29.86 27.62c-.34 1.41-.59 2.68-.77 4a4.9 4.9 0 0 0 0 1.74c.09.41.36.49.66.19q.28-.299.47-.66c.84-1.61 1.65-3.23 2.51-4.83.29-.54.69-1 1-1.53a51.7 51.7 0 0 1 7.74-9.82 24.1 24.1 0 0 1 4.69-3.65 9.6 9.6 0 0 1 3.74-1.35 4.85 4.85 0 0 1 2.92.508 4.85 4.85 0 0 1 2.08 2.112c.428.858.741 1.77.93 2.71a.37.37 0 0 1 .015.248.37.37 0 0 1-.145.202c-.15.1-.26 0-.37-.06a6.4 6.4 0 0 0-4.86-.62 15.2 15.2 0 0 0-5.14 2 37 37 0 0 0-8.76 7.54 38 38 0 0 0-4.18 5.58 8.8 8.8 0 0 1-2.16 2.72c-.11.08-.21.17-.32.24-1 .64-1.81.27-2-.93a7.7 7.7 0 0 1 .05-2.15q.228-1.476.68-2.9c.27-.73.27-.73 1.22-1.29m-1.87.93a9 9 0 0 1-.51 2c-.23.94-.3 1.89-.45 2.83a1.45 1.45 0 0 1-1 1.34 1.52 1.52 0 0 1-1.62-.64 2.549 2.549 0 0 1-.77-2.13c.45.07.53.47.8.66.73.5 1.28.33 1.54-.51s.52-1.69.76-2.55a1.248 1.248 0 0 1 1.25-1"/><path fill="#060605" d="M26.26 26.39c.19.53.51.6 1 .41a16.9 16.9 0 0 0 5.19-2.66c.15-.12.31-.33.52-.17s.09.42 0 .65a1 1 0 0 1-.43.43c-1.34.88-2.69 1.77-4 2.64a6.2 6.2 0 0 1-2 .79 1 1 0 0 1-1-.26c-.32-.36-.1-.71.08-1 .102-.347.331-.643.64-.83m23.88 94.69a9.73 9.73 0 0 0 8.19-.1 3.6 3.6 0 0 0 1.37-1.2c.44-.64.68-.63 1.05 0 .48.87 1 1.74.48 2.79-.12.24-.2.49-.49.62q-.455.24-.84.58a5.71 5.71 0 0 1-4.24 1.43 15.5 15.5 0 0 0-2.26 0 1.89 1.89 0 0 1-1.4-.51 7.4 7.4 0 0 1-1.87-2.66 1 1 0 0 1 .01-.95m10.08-1.22c-2.86 2.89-6.22 2.81-9.82 1.83a6.4 6.4 0 0 0 1.6 2.54 1.79 1.79 0 0 0 1.53.67h3a3.37 3.37 0 0 0 2.46-.79c.26-.22.56-.4.82-.62 1.48-1.24 1.58-1.83.57-3.49-.06-.08-.12-.12-.16-.17Z"/><path fill="#fff" d="M60.22 119.83c0 .05.1.09.14.14 1 1.66.91 2.25-.57 3.49-.26.22-.56.4-.82.62a3.374 3.374 0 0 1-2.46.79h-3a1.79 1.79 0 0 1-1.53-.67 6.4 6.4 0 0 1-1.6-2.54c3.62.98 6.94 1.06 9.84-1.83"/></svg>