<svg xmlns="http://www.w3.org/2000/svg" fill="none" viewBox="0 0 48 48"><rect width="32" height="32" x="8" y="8" fill="#fff" rx="4"/><path fill="url(#a)" d="M35.77 14.392a2.163 2.163 0 0 0-3.692-1.53 2.163 2.163 0 0 0 0 3.059 2.16 2.16 0 0 0 3.058 0 2.16 2.16 0 0 0 .634-1.529"/><path fill="url(#b)" d="M38.65 31.273c-.08 1.755-.374 2.708-.617 3.342a5.56 5.56 0 0 1-1.352 2.07 5.5 5.5 0 0 1-2.066 1.343c-.634.247-1.59.542-3.346.625-1.897.084-2.46.102-7.271.102-4.807 0-5.374-.018-7.272-.102-1.755-.083-2.707-.378-3.34-.625a5.5 5.5 0 0 1-2.07-1.343 5.5 5.5 0 0 1-1.349-2.07c-.243-.634-.541-1.587-.617-3.342-.092-1.898-.11-2.469-.11-7.27 0-4.812.018-5.38.11-7.277.076-1.755.374-2.707.617-3.346a5.5 5.5 0 0 1 1.348-2.066 5.6 5.6 0 0 1 2.07-1.347c.634-.248 1.586-.538 3.341-.621 1.898-.084 2.465-.105 7.272-.105 4.811 0 5.374.021 7.271.105 1.755.083 2.712.373 3.346.621.84.328 1.44.718 2.066 1.347a5.55 5.55 0 0 1 1.352 2.066c.243.639.537 1.591.617 3.346.088 1.898.11 2.465.11 7.276 0 4.802-.022 5.373-.11 7.27zm3.24-14.694c-.087-1.918-.39-3.229-.84-4.37a8.8 8.8 0 0 0-2.073-3.19 8.85 8.85 0 0 0-3.186-2.075c-1.146-.445-2.452-.751-4.37-.835C29.5 6.017 28.888 6 23.997 6c-4.887 0-5.504.017-7.423.11-1.914.083-3.22.39-4.37.834a8.9 8.9 0 0 0-3.182 2.074 8.84 8.84 0 0 0-2.078 3.191c-.445 1.142-.748 2.452-.84 4.37C6.021 18.498 6 19.11 6 24.002c0 4.887.021 5.5.105 7.418.092 1.915.395 3.224.84 4.37.461 1.18 1.074 2.188 2.078 3.187a8.9 8.9 0 0 0 3.182 2.078c1.15.445 2.456.748 4.37.836 1.919.088 2.536.109 7.423.109 4.89 0 5.503-.021 7.422-.11 1.92-.087 3.225-.39 4.37-.835a8.85 8.85 0 0 0 3.187-2.078 8.76 8.76 0 0 0 2.074-3.186c.449-1.147.752-2.456.84-4.37.088-1.92.109-2.532.109-7.419 0-4.89-.021-5.504-.11-7.423"/><path fill="url(#c)" d="M23.998 29.997c-3.312 0-6-2.683-6-5.995a6.002 6.002 0 1 1 12.003 0 6 6 0 0 1-6.003 5.995m0-15.244c-5.106 0-9.24 4.144-9.24 9.25a9.24 9.24 0 0 0 9.24 9.24c5.105 0 9.244-4.14 9.244-9.24 0-5.106-4.139-9.25-9.244-9.25"/><defs><linearGradient id="a" x1="6.325" x2="39.002" y1="41.628" y2="8.951" gradientUnits="userSpaceOnUse"><stop stop-color="#FFD521"/><stop offset=".05" stop-color="#FFD521"/><stop offset=".501" stop-color="#F50000"/><stop offset=".95" stop-color="#B900B4"/><stop offset="1" stop-color="#B900B4"/></linearGradient><linearGradient id="b" x1="6.325" x2="39.028" y1="41.673" y2="8.969" gradientUnits="userSpaceOnUse"><stop stop-color="#FFD521"/><stop offset=".05" stop-color="#FFD521"/><stop offset=".501" stop-color="#F50000"/><stop offset=".95" stop-color="#B900B4"/><stop offset="1" stop-color="#B900B4"/></linearGradient><linearGradient id="c" x1="6.333" x2="39.029" y1="41.673" y2="8.978" gradientUnits="userSpaceOnUse"><stop stop-color="#FFD521"/><stop offset=".05" stop-color="#FFD521"/><stop offset=".501" stop-color="#F50000"/><stop offset=".95" stop-color="#B900B4"/><stop offset="1" stop-color="#B900B4"/></linearGradient></defs></svg>