<svg width="48" height="48" viewBox="0 0 48 48" fill="none" xmlns="http://www.w3.org/2000/svg">
<rect x="8" y="8" width="32" height="32" rx="4" fill="white"/>
<path d="M35.7701 14.392C35.7701 13.8185 35.5422 13.2684 35.1367 12.8629C34.7311 12.4573 34.1811 12.2295 33.6076 12.2295C33.034 12.2295 32.484 12.4573 32.0784 12.8629C31.6729 13.2684 31.4451 13.8185 31.4451 14.392C31.4451 14.9654 31.6729 15.5153 32.0783 15.9208C32.4838 16.3262 33.0337 16.554 33.6071 16.554C34.1805 16.554 34.7304 16.3262 35.1358 15.9208C35.5413 15.5153 35.7701 14.9654 35.7701 14.392Z" fill="url(#paint0_linear_128_32)"/>
<path d="M38.65 31.273C38.57 33.028 38.276 33.981 38.033 34.615C37.7434 35.3977 37.2813 36.1052 36.681 36.685C36.1028 37.2832 35.3964 37.7424 34.615 38.028C33.981 38.275 33.025 38.57 31.269 38.653C29.372 38.737 28.809 38.755 23.998 38.755C19.191 38.755 18.624 38.737 16.726 38.653C14.971 38.57 14.019 38.275 13.386 38.028C12.6033 37.7427 11.8955 37.2835 11.316 36.685C10.7148 36.1065 10.2534 35.3986 9.967 34.615C9.724 33.981 9.426 33.028 9.35 31.273C9.258 29.375 9.24 28.804 9.24 24.003C9.24 19.191 9.258 18.623 9.35 16.726C9.426 14.971 9.724 14.019 9.967 13.38C10.2534 12.5978 10.7144 11.8912 11.315 11.314C11.8955 10.7157 12.6029 10.2554 13.385 9.967C14.019 9.719 14.971 9.429 16.726 9.346C18.624 9.262 19.191 9.241 23.998 9.241C28.809 9.241 29.372 9.262 31.269 9.346C33.024 9.429 33.981 9.719 34.615 9.967C35.455 10.295 36.055 10.685 36.681 11.314C37.281 11.8925 37.7431 12.5986 38.033 13.38C38.276 14.019 38.57 14.971 38.65 16.726C38.738 18.624 38.76 19.191 38.76 24.002C38.76 28.804 38.738 29.375 38.65 31.272V31.273ZM41.89 16.579C41.803 14.661 41.5 13.35 41.05 12.209C40.6007 11.0068 39.893 9.91788 38.977 9.019C38.0779 8.10468 36.9908 7.39668 35.791 6.944C34.645 6.499 33.339 6.193 31.421 6.109C29.5 6.017 28.888 6 23.997 6C19.11 6 18.493 6.017 16.574 6.11C14.66 6.193 13.354 6.5 12.204 6.944C11.0061 7.39755 9.92053 8.10509 9.022 9.018C8.10584 9.91816 7.39674 11.0071 6.944 12.209C6.499 13.351 6.196 14.661 6.104 16.579C6.021 18.498 6 19.11 6 24.002C6 28.889 6.021 29.502 6.105 31.42C6.197 33.335 6.5 34.644 6.945 35.79C7.406 36.97 8.019 37.978 9.023 38.977C9.92112 39.8914 11.0067 40.6003 12.205 41.055C13.355 41.5 14.661 41.803 16.575 41.891C18.494 41.979 19.111 42 23.998 42C28.888 42 29.501 41.979 31.42 41.89C33.34 41.803 34.645 41.5 35.79 41.055C36.9904 40.6016 38.0779 39.8925 38.977 38.977C39.8933 38.0797 40.6014 36.9921 41.051 35.791C41.5 34.644 41.803 33.335 41.891 31.421C41.979 29.501 42 28.889 42 24.002C42 19.112 41.979 18.498 41.89 16.579Z" fill="url(#paint1_linear_128_32)"/>
<path d="M23.9981 29.997C20.6861 29.997 17.9981 27.314 17.9981 24.002C17.9981 22.4103 18.6304 20.8838 19.7559 19.7583C20.8814 18.6328 22.4079 18.0005 23.9996 18.0005C25.5913 18.0005 27.1178 18.6328 28.2433 19.7583C29.3688 20.8838 30.0011 22.4103 30.0011 24.002C29.9997 25.5929 29.3666 27.1182 28.2409 28.2425C27.1151 29.3667 25.589 29.9978 23.9981 29.997ZM23.9981 14.753C18.8921 14.753 14.7581 18.897 14.7581 24.003C14.7581 26.4536 15.7316 28.8038 17.4644 30.5367C19.1972 32.2695 21.5475 33.243 23.9981 33.243C29.1031 33.243 33.2421 29.103 33.2421 24.003C33.2421 18.897 29.1031 14.753 23.9981 14.753Z" fill="url(#paint2_linear_128_32)"/>
<defs>
<linearGradient id="paint0_linear_128_32" x1="6.32506" y1="41.628" x2="39.0021" y2="8.95099" gradientUnits="userSpaceOnUse">
<stop stop-color="#FFD521"/>
<stop offset="0.05" stop-color="#FFD521"/>
<stop offset="0.501" stop-color="#F50000"/>
<stop offset="0.95" stop-color="#B900B4"/>
<stop offset="1" stop-color="#B900B4"/>
</linearGradient>
<linearGradient id="paint1_linear_128_32" x1="6.325" y1="41.673" x2="39.028" y2="8.969" gradientUnits="userSpaceOnUse">
<stop stop-color="#FFD521"/>
<stop offset="0.05" stop-color="#FFD521"/>
<stop offset="0.501" stop-color="#F50000"/>
<stop offset="0.95" stop-color="#B900B4"/>
<stop offset="1" stop-color="#B900B4"/>
</linearGradient>
<linearGradient id="paint2_linear_128_32" x1="6.33306" y1="41.673" x2="39.0291" y2="8.97799" gradientUnits="userSpaceOnUse">
<stop stop-color="#FFD521"/>
<stop offset="0.05" stop-color="#FFD521"/>
<stop offset="0.501" stop-color="#F50000"/>
<stop offset="0.95" stop-color="#B900B4"/>
<stop offset="1" stop-color="#B900B4"/>
</linearGradient>
</defs>
</svg>
