<svg xmlns="http://www.w3.org/2000/svg" viewBox="0 0 48 48"><path fill="#00c300" d="M12.5 42h23a6.5 6.5 0 0 0 4.596-1.904A6.5 6.5 0 0 0 42 35.5v-23a6.5 6.5 0 0 0-1.904-4.596A6.5 6.5 0 0 0 35.5 6h-23a6.5 6.5 0 0 0-4.596 1.904A6.5 6.5 0 0 0 6 12.5v23a6.5 6.5 0 0 0 1.904 4.596A6.5 6.5 0 0 0 12.5 42"/><path fill="#fff" d="M37.113 22.417c0-5.865-5.88-10.637-13.107-10.637s-13.108 4.772-13.108 10.637c0 5.258 4.663 9.662 10.962 10.495.427.092 1.008.282 1.155.646.132.331.086.85.042 1.185 0 0-.153.925-.187 1.122-.057.331-.263 1.296 1.135.707s7.548-4.445 10.298-7.611h-.001c1.9-2.082 2.811-4.197 2.811-6.544m-18.238 3.49H16.27a.69.69 0 0 1-.687-.688V20.01a.68.68 0 0 1 .214-.462.7.7 0 0 1 .473-.189.69.69 0 0 1 .687.651v4.521h1.917a.688.688 0 0 1 .486 1.175.7.7 0 0 1-.485.201m2.693-.688a.7.7 0 0 1-.041.275.7.7 0 0 1-.147.235.7.7 0 0 1-.227.159.7.7 0 0 1-.544 0 .7.7 0 0 1-.228-.159.7.7 0 0 1-.146-.235.7.7 0 0 1-.041-.275V20.01a.68.68 0 0 1 .214-.462.7.7 0 0 1 .473-.189.69.69 0 0 1 .687.651zm6.27 0q0 .137-.051.264a.7.7 0 0 1-.149.224.7.7 0 0 1-.224.149.7.7 0 0 1-.264.051.7.7 0 0 1-.307-.073.7.7 0 0 1-.243-.202l-2.668-3.635v3.222a.7.7 0 0 1-.214.463.7.7 0 0 1-.474.189.7.7 0 0 1-.474-.189.69.69 0 0 1-.214-.463V20.01c0-.144.045-.285.13-.402a.687.687 0 0 1 1.107-.01l2.67 3.635V20.01a.69.69 0 0 1 .687-.662.69.69 0 0 1 .688.662zm4.214-3.292a.693.693 0 0 1 .644.687.7.7 0 0 1-.186.471.7.7 0 0 1-.458.217h-1.917v1.23h1.917a.687.687 0 0 1 .662.688.69.69 0 0 1-.662.687h-2.604a.69.69 0 0 1-.687-.688v-5.208c0-.379.308-.687.687-.687h2.604a.7.7 0 0 1 .274.041.7.7 0 0 1 .236.147.7.7 0 0 1 .159.227.7.7 0 0 1 0 .544.7.7 0 0 1-.159.227.7.7 0 0 1-.236.147.7.7 0 0 1-.274.041h-1.917v1.23z"/></svg>