<svg width="48" height="48" viewBox="0 0 48 48" fill="none" xmlns="http://www.w3.org/2000/svg">
<path d="M12.5 42H35.5C37.2239 42 38.8772 41.3152 40.0962 40.0962C41.3152 38.8772 42 37.2239 42 35.5V12.5C42 10.7761 41.3152 9.12279 40.0962 7.90381C38.8772 6.68482 37.2239 6 35.5 6H12.5C10.7761 6 9.12279 6.68482 7.90381 7.90381C6.68482 9.12279 6 10.7761 6 12.5V35.5C6 37.2239 6.68482 38.8772 7.90381 40.0962C9.12279 41.3152 10.7761 42 12.5 42Z" fill="#00C300"/>
<path d="M37.1129 22.417C37.1129 16.552 31.233 11.78 24.0059 11.78C16.7789 11.78 10.8979 16.552 10.8979 22.417C10.8979 27.675 15.561 32.079 21.86 32.912C22.287 33.004 22.8679 33.194 23.0149 33.558C23.1469 33.889 23.1009 34.408 23.0569 34.743C23.0569 34.743 22.904 35.668 22.87 35.865C22.813 36.196 22.6069 37.161 24.0049 36.572C25.4039 35.983 31.553 32.127 34.303 28.961H34.3019C36.2019 26.879 37.1129 24.764 37.1129 22.417ZM18.8749 25.907H16.2699C16.0877 25.9067 15.9129 25.8341 15.7841 25.7051C15.6553 25.5761 15.5829 25.4013 15.5829 25.219V20.01C15.5924 19.8342 15.669 19.6687 15.7968 19.5477C15.9245 19.4266 16.0939 19.3591 16.2699 19.3591C16.446 19.3591 16.6154 19.4266 16.7431 19.5477C16.8709 19.6687 16.9475 19.8342 16.957 20.01V24.531H18.874C19.0564 24.531 19.2314 24.6035 19.3604 24.7325C19.4895 24.8615 19.5619 25.0365 19.5619 25.219C19.5619 25.4015 19.4895 25.5765 19.3604 25.7055C19.2314 25.8345 19.0574 25.907 18.8749 25.907ZM21.568 25.219C21.573 25.3123 21.559 25.4057 21.5267 25.4935C21.4945 25.5812 21.4447 25.6614 21.3804 25.7293C21.3161 25.7971 21.2386 25.8512 21.1528 25.8881C21.0669 25.925 20.9744 25.9441 20.8809 25.9441C20.7875 25.9441 20.695 25.925 20.6091 25.8881C20.5233 25.8512 20.4458 25.7971 20.3815 25.7293C20.3172 25.6614 20.2674 25.5812 20.2352 25.4935C20.2029 25.4057 20.1889 25.3123 20.1939 25.219V20.01C20.2034 19.8342 20.28 19.6687 20.4078 19.5477C20.5355 19.4266 20.7049 19.3591 20.8809 19.3591C21.057 19.3591 21.2264 19.4266 21.3541 19.5477C21.4819 19.6687 21.5585 19.8342 21.568 20.01V25.219ZM27.8379 25.219C27.8385 25.3095 27.821 25.3992 27.7867 25.4829C27.7523 25.5666 27.7016 25.6427 27.6376 25.7067C27.5736 25.7707 27.4976 25.8213 27.4139 25.8557C27.3302 25.8901 27.2404 25.9075 27.1499 25.907C27.0433 25.9068 26.9381 25.8819 26.8426 25.8342C26.7472 25.7864 26.6641 25.7172 26.5999 25.632L23.9319 21.997V25.219C23.9225 25.3951 23.8458 25.5608 23.7178 25.682C23.5899 25.8033 23.4203 25.8709 23.2439 25.8709C23.0676 25.8709 22.898 25.8033 22.7701 25.682C22.6421 25.5608 22.5654 25.3951 22.5559 25.219V20.01C22.5559 19.8657 22.6012 19.7251 22.6856 19.608C22.7699 19.491 22.889 19.4035 23.0259 19.3579C23.1627 19.3123 23.3105 19.3109 23.4482 19.354C23.5859 19.3971 23.7065 19.4825 23.7929 19.598L26.4629 23.233V20.01C26.4697 19.8322 26.5451 19.6639 26.6733 19.5405C26.8015 19.4172 26.9725 19.3482 27.1504 19.3482C27.3284 19.3482 27.4994 19.4172 27.6276 19.5405C27.7558 19.6639 27.8312 19.8322 27.8379 20.01V25.219ZM32.0519 21.927C32.2264 21.9385 32.39 22.016 32.5095 22.1436C32.629 22.2713 32.6955 22.4396 32.6955 22.6145C32.6955 22.7894 32.629 22.9577 32.5095 23.0854C32.39 23.213 32.2264 23.2905 32.0519 23.302H30.1349V24.532H32.0519C32.2297 24.5388 32.398 24.6142 32.5214 24.7424C32.6448 24.8706 32.7137 25.0416 32.7137 25.2195C32.7137 25.3974 32.6448 25.5684 32.5214 25.6966C32.398 25.8248 32.2297 25.9002 32.0519 25.907H29.4479C29.2657 25.9067 29.0909 25.8341 28.9621 25.7051C28.8333 25.5761 28.7609 25.4013 28.7609 25.219V20.013V20.011C28.7609 19.632 29.0689 19.324 29.4479 19.324H32.0519C32.1453 19.319 32.2387 19.333 32.3264 19.3652C32.4141 19.3975 32.4944 19.4473 32.5622 19.5116C32.6301 19.5759 32.6841 19.6533 32.7211 19.7392C32.758 19.825 32.777 19.9175 32.777 20.011C32.777 20.1045 32.758 20.197 32.7211 20.2828C32.6841 20.3687 32.6301 20.4461 32.5622 20.5104C32.4944 20.5747 32.4141 20.6245 32.3264 20.6568C32.2387 20.689 32.1453 20.703 32.0519 20.698H30.1349V21.928L32.0519 21.927Z" fill="white"/>
</svg>
