<?xml version="1.0" encoding="utf-8"?>
<!-- Generator: Adobe Illustrator 23.0.0, SVG Export Plug-In . SVG Version: 6.00 Build 0)  -->
<svg version="1.1" id="Layer_1" xmlns="http://www.w3.org/2000/svg" xmlns:xlink="http://www.w3.org/1999/xlink" x="0px" y="0px"
	 viewBox="0 0 841.89 595.28" style="enable-background:new 0 0 841.89 595.28;" xml:space="preserve">
<style type="text/css">
	.st0{fill:#E92529;}
	.st1{fill:#FEFBFB;}
	.st2{fill:#FEFCFC;}
	.st3{fill:#FEFAFA;}
	.st4{fill:#060605;}
	.st5{fill:#FFFFFF;}
	.st6{fill:#ECD107;}
</style>
<g>
	<rect x="177" y="356.93" class="st0" width="627.74" height="53.95"/>
	<path class="st1" d="M491.85,378.58c-0.22,0.57-0.15,0.96-0.15,1.33c-0.01,6.14,0,12.27-0.01,18.41c0,0.32-0.01,0.65-0.03,0.97
		c-0.01,0.16-0.12,0.26-0.28,0.27c-0.14,0.02-0.29,0.03-0.43,0.03c-1.87,0-3.73,0-5.6,0c-0.21,0-0.43,0.02-0.62-0.14
		c-0.12-0.34-0.06-0.71-0.06-1.06c0-9.4,0-18.81,0-28.21c0-1.24-0.13-1.19,1.14-1.19c2.44,0,4.88,0.03,7.32-0.02
		c0.7-0.01,1.09,0.19,1.43,0.82c2.13,3.9,4.31,7.78,6.47,11.67c0.77,1.38,1.54,2.76,2.31,4.13c0.09,0.15,0.19,0.3,0.28,0.44
		c0.35-0.09,0.2-0.36,0.2-0.54c0.01-3.23,0.01-6.46,0.01-9.69c0-1.94,0-3.88,0-5.81c0-0.22,0-0.43,0.01-0.65
		c0.01-0.21,0.13-0.33,0.34-0.34c0.18-0.01,0.36-0.02,0.54-0.02c1.76,0,3.52,0,5.28,0c0.14,0,0.29,0,0.43,0.01
		c0.36,0.02,0.45,0.11,0.47,0.44c0.01,0.21,0.01,0.43,0.01,0.65c0,9.47,0,18.95,0,28.42c0,1.07,0.13,1.08-1.02,1.08
		c-1.85,0-3.7-0.02-5.54,0.01c-0.51,0.01-0.98-0.26-1.23-0.71c-2.47-4.49-4.97-8.97-7.46-13.46
		C494.42,383.21,493.19,380.99,491.85,378.58z"/>
	<path class="st2" d="M278.68,386.24c0-0.36,0-0.71,0-1.07c0-5.05,0-10.11,0-15.16c0-1.49-0.18-1.21,1.72-1.25
		c1.31-0.03,2.62-0.04,3.93,0c0.41,0.01,0.82-0.01,1.23,0.03c0.2,0.02,0.34,0.14,0.35,0.35c0.02,0.26,0.01,0.52,0.01,0.77
		c0,9.74,0,19.14,0,28.88c0,0.04,0,0.07,0,0.11c-0.01,1.25-0.01,0.89-2.11,1c-1.2,0.06-2.42,0.04-3.62-0.01
		c-2.11-0.08-1.74,0.23-2.34-0.86c-2.82-5.06-5.63-10.12-8.44-15.19c-0.84-1.52-1.68-3.03-2.52-4.55c-0.14-0.26-0.31-0.5-0.47-0.74
		c-0.02-0.03-0.12-0.02-0.18-0.01c-0.03,0-0.08,0.04-0.08,0.07c-0.04,0.86-0.09,1.72,0.16,2.57c1.08,3.73,1.34,7.66,0.52,11.46
		c-1.69,7.82,0.55,7.2-2.22,7.22c-1.48,0.01-2.95,0-4.43,0c-0.29,0-0.59-0.01-0.88-0.02c-0.21-0.01-0.34-0.13-0.35-0.34
		c-0.01-0.26-0.01-0.52-0.01-0.77c0-9.74,0-19.15,0-28.9c0-1.13-0.07-1.09,1.07-1.09c2.58,0,5.17,0.02,7.75-0.02
		c0.65-0.01,0.99,0.23,1.29,0.78c2.75,4.97,5.52,9.93,8.28,14.9c0.36,0.64,0.72,1.28,1.08,1.91
		C278.52,386.29,278.6,386.27,278.68,386.24z"/>
	<path class="st1" d="M334.71,384.32c0-4.66,0-9.33,0-13.99c0-0.32,0-0.65,0.01-0.97c0.01-0.21,0.13-0.33,0.33-0.34
		c0.25-0.02,0.5-0.02,0.75-0.02c2.8,0,5.6-0.02,8.39,0.01c2.12,0.02,4.23,0.15,6.32,0.49c5.75,0.96,9.54,5.43,10.7,9.5
		c1.07,3.76,1.13,7.52-0.27,11.2c-1.61,4.23-4.56,7.14-8.92,8.54c-1.55,0.5-3.16,0.64-4.77,0.74c-1.29,0.08-2.58,0.1-3.87,0.11
		c-2.51,0.02-5.02,0.01-7.53,0c-0.29,0-0.57-0.01-0.86-0.03c-0.15-0.01-0.26-0.12-0.27-0.28c-0.01-0.32-0.02-0.65-0.02-0.97
		C334.71,393.64,334.71,388.98,334.71,384.32z M341.98,384.31c0,2.73,0,5.46,0,8.18c0,0.25-0.01,0.5,0,0.75
		c0.02,0.53,0.07,0.6,0.65,0.59c1.22-0.03,2.44-0.07,3.66-0.12c2.56-0.11,4.5-1.31,5.88-3.44c0.67-1.03,1.07-2.18,1.31-3.39
		c0.2-1.04,0.23-2.09,0.2-3.14c-0.02-1.08-0.16-2.17-0.49-3.2c-1.06-3.32-3.22-5.17-6.33-5.65c-1.46-0.23-2.94-0.16-4.41-0.18
		c-0.04,0-0.07,0-0.11,0.01c-0.21,0.01-0.34,0.11-0.35,0.32c-0.02,0.29-0.02,0.57-0.02,0.86
		C341.98,378.71,341.98,381.51,341.98,384.31z"/>
	<path class="st2" d="M407.7,384.22c-0.03-2.2,0.22-4.37,0.94-6.46c1.52-4.39,4.42-7.39,8.91-8.75c1.77-0.54,3.59-0.7,5.42-0.65
		c1.47,0.04,2.93,0.21,4.35,0.64c4.36,1.32,7.26,4.18,8.86,8.41c0.54,1.42,0.84,2.89,0.98,4.39c0.28,2.99,0.14,5.95-0.78,8.83
		c-0.79,2.48-2.11,4.62-4.1,6.32c-1.49,1.28-3.2,2.18-5.1,2.68c-2.96,0.77-5.96,0.83-8.94,0.12c-4.6-1.11-7.69-3.98-9.4-8.35
		C407.94,389.1,407.66,386.68,407.7,384.22z M415.56,384.32c0.05,1.31,0.09,2.6,0.37,3.87c0.32,1.45,0.86,2.81,1.77,4
		c1.25,1.64,2.99,2.34,4.98,2.28c2.1-0.07,3.78-1.03,4.92-2.83c0.74-1.16,1.22-2.43,1.47-3.78c0.35-1.92,0.35-3.86,0.18-5.79
		c-0.12-1.36-0.48-2.68-1.02-3.94c-0.36-0.83-0.82-1.6-1.47-2.23c-1.45-1.43-3.21-1.97-5.22-1.7c-1.99,0.27-3.43,1.37-4.41,3.09
		c-0.57,1-0.98,2.07-1.21,3.2C415.66,381.76,415.62,383.05,415.56,384.32z"/>
	<path class="st2" d="M627.54,394.11c0-1,0-2.01,0-3.01c0-0.21-0.04-0.46,0.2-0.57c0.24-0.11,0.49-0.04,0.7,0.13
		c0.22,0.18,0.45,0.36,0.68,0.53c1.98,1.48,4.17,2.51,6.6,3.03c1.7,0.36,3.41,0.44,5.13,0.12c0.82-0.15,1.59-0.44,2.24-0.98
		c0.62-0.51,0.93-1.16,0.93-1.97c0-0.85-0.32-1.53-1.02-2.03c-0.56-0.4-1.18-0.69-1.84-0.86c-1.46-0.36-2.92-0.72-4.39-1.07
		c-1.15-0.28-2.28-0.61-3.38-1.06c-0.83-0.34-1.62-0.76-2.36-1.28c-1.63-1.15-2.63-2.71-3.07-4.65c-0.34-1.49-0.39-2.99-0.01-4.48
		c0.48-1.92,1.58-3.44,3.13-4.64c1.83-1.41,3.92-2.25,6.18-2.6c4.43-0.68,8.72-0.03,12.88,1.56c0.37,0.14,0.57,0.34,0.56,0.78
		c-0.02,1.97-0.01,3.95-0.01,5.92c0,0.07-0.01,0.14-0.01,0.21c-0.03,0.23-0.2,0.33-0.46,0.31c-0.28-0.02-0.46-0.19-0.65-0.34
		c-1.34-1.05-2.86-1.79-4.45-2.36c-2.06-0.74-4.18-0.96-6.35-0.53c-0.68,0.13-1.32,0.38-1.88,0.76c-0.78,0.52-1.31,1.21-1.3,2.22
		c0.01,0.82,0.36,1.45,1.03,1.9c0.51,0.34,1.09,0.55,1.67,0.74c1.19,0.39,2.44,0.6,3.66,0.87c1.3,0.29,2.57,0.66,3.82,1.11
		c1.29,0.47,2.48,1.12,3.54,2c1.49,1.23,2.27,2.82,2.49,4.73c0.13,1.19,0.13,2.37-0.12,3.53c-0.48,2.29-1.74,4.06-3.6,5.43
		c-1.5,1.11-3.2,1.76-5.01,2.14c-2.37,0.49-4.77,0.51-7.18,0.31c-2.53-0.2-4.93-0.89-7.28-1.8c-0.17-0.06-0.33-0.15-0.5-0.2
		c-0.45-0.13-0.6-0.42-0.59-0.89C627.56,396.12,627.54,395.12,627.54,394.11C627.54,394.11,627.54,394.11,627.54,394.11z"/>
	<path class="st2" d="M773.53,368.99c1.18,0,2.37,0.01,3.55,0c0.42,0,0.64,0.14,0.77,0.56c0.88,2.65,1.79,5.29,2.69,7.94
		c2.34,6.93,4.68,13.85,7.02,20.78c0.08,0.24,0.17,0.47,0.24,0.71c0.17,0.54,0.13,0.59-0.48,0.61c-0.07,0-0.14,0-0.22,0
		c-2.04,0-4.09,0-6.13,0c-0.73,0-0.81,0.13-1.1-0.83c-0.44-1.48-0.92-2.94-1.39-4.41c-0.06-0.2-0.13-0.41-0.2-0.61
		c-0.07-0.18-0.19-0.3-0.4-0.3c-0.14,0-0.29-0.01-0.43-0.01c-2.73,0-5.45,0-8.18,0c-0.65,0-0.76-0.11-1.02,0.79
		c-0.45,1.55-0.94,3.08-1.41,4.63c-0.05,0.17-0.09,0.35-0.16,0.51c-0.06,0.13-0.17,0.23-0.33,0.23c-0.14,0.01-0.29,0.01-0.43,0.01
		c-2.04,0-4.09,0-6.13,0c-0.18,0-0.36-0.01-0.53-0.04c-0.11-0.02-0.19-0.11-0.16-0.22c0.07-0.28,0.16-0.55,0.25-0.82
		c1.64-4.85,3.28-9.71,4.92-14.56c1.56-4.62,3.12-9.23,4.69-13.85c0.07-0.2,0.15-0.4,0.21-0.61c0.09-0.39,0.35-0.49,0.72-0.49
		C771.09,369,772.31,368.99,773.53,368.99z M776.39,387.75c-0.1-0.85-2.61-8.89-3.07-9.83c-0.11,0.31-0.21,0.57-0.29,0.84
		c-0.35,1.13-0.7,2.25-1.05,3.38c-0.53,1.71-1.05,3.42-1.57,5.13c-0.15,0.48-0.1,0.55,0.43,0.55c1.72,0.01,3.43,0,5.15,0
		C776.12,387.81,776.26,387.77,776.39,387.75z"/>
	<path class="st3" d="M559.87,384.2c0-4.7,0-9.61,0-14.57c0-0.3,0-0.61,0.01-0.91c0.01-0.22,0.14-0.35,0.36-0.36
		c0.26-0.02,0.53-0.02,0.79-0.02c6.53,0,13.05,0,19.58,0c0.59,0,1.07,0.48,1.07,1.07c0,1.52,0,3.04-0.01,4.56
		c0,0.5-0.09,0.58-0.61,0.58c-1.36,0.01-2.72,0-4.09,0.01c-2.57,0-5.39,0-7.88,0c-0.22,0-0.44,0-0.66,0
		c-0.54,0.02-0.58,0.05-0.59,0.55c-0.01,0.69-0.01,1.39,0,2.08c0,0.77,0,1.54,0.01,2.3c0.01,0.35,0.1,0.43,0.47,0.45
		c0.29,0.01,0.58,0.01,0.88,0.01c3.29,0,6.58,0,9.87,0c1,0,1.01,0.01,1.01,1.04c0,1.32,0,2.63,0,3.95c0,0.22,0,0.44-0.02,0.66
		c-0.02,0.2-0.14,0.34-0.34,0.35c-0.29,0.02-0.58,0.01-0.88,0.01c-3.25,0-6.9,0-10.09,0c-0.29,0-0.57,0-0.86,0.01
		c-0.21,0.01-0.32,0.12-0.33,0.33c-0.01,0.14-0.01,0.29-0.01,0.43c0,2.01,0,4.02,0,6.02c0,0.18,0.01,0.36,0.03,0.54
		c0.02,0.16,0.13,0.25,0.29,0.25c0.79,0.03,1.59,0.03,2.38-0.02c2.86-0.18,5.73-0.13,8.6,0.02c1.65,0.09,1.7-0.25,1.7,0.95
		c-0.01,1.47,0,2.94-0.01,4.41c0,0.45-0.07,0.51-0.48,0.53c-0.25,0.01-0.5,0.01-0.75,0.01c-6.06,0-12.12,0-18.18,0
		c-0.22,0-0.43,0.01-0.65,0c-0.55-0.02-0.6-0.07-0.6-0.64c-0.01-2.08,0-4.16,0-6.24C559.87,389.8,559.87,387,559.87,384.2z"/>
	<path class="st1" d="M705.62,399.47c-2.23,0-4.45,0-6.68,0c-0.24,0-0.47,0-0.71-0.02c-0.2-0.01-0.31-0.13-0.32-0.33
		c-0.01-0.46-0.01-0.92-0.01-1.38c0-1.02,0-2.05,0.01-3.07c0-0.35,0.08-0.43,0.43-0.43c0.91-0.01,1.82-0.01,2.73-0.01
		c0.2,0,0.4-0.01,0.61-0.01c0.2-0.01,0.32-0.12,0.33-0.32c0.02-0.21,0.01-0.42,0.01-0.63c0-5.89,0-11.78,0-17.67
		c0-0.18,0-0.35-0.01-0.53c-0.02-0.34-0.1-0.44-0.42-0.45c-0.71-0.01-1.42-0.01-2.13-0.01c-0.37,0-0.74,0.01-1.11-0.01
		c-0.36-0.01-0.45-0.08-0.45-0.41c-0.01-1.45-0.01-2.89,0-4.34c0-0.39,0.09-0.47,0.49-0.49c0.24-0.01,0.47,0,0.71,0
		c4.39,0,8.77,0,13.16,0c0.24,0,0.47-0.01,0.71,0.01c0.38,0.02,0.46,0.1,0.46,0.53c0.01,1.41,0.01,2.82,0,4.23
		c0,0.4-0.08,0.47-0.5,0.48c-0.91,0.01-1.82,0-2.73,0c-0.2,0-0.4,0-0.61,0.02c-0.2,0.01-0.29,0.15-0.31,0.35
		c-0.01,0.14-0.01,0.28-0.01,0.42c0,6,0,11.99,0,17.99c0,0.11,0,0.21,0,0.32c0.02,0.42,0.09,0.51,0.47,0.52
		c0.81,0.01,1.62,0,2.43,0.01c1.39,0.01,1.26-0.16,1.26,1.28c0,1.13,0.01,2.26,0,3.39c0,0.47-0.08,0.55-0.54,0.55
		c-2.02,0.01-4.05,0-6.07,0C706.43,399.47,706.02,399.47,705.62,399.47z"/>
	<path class="st2" d="M198.79,384.45c0-2.82,0-5.65,0-8.47c0-0.18,0-0.35,0-0.53c-0.01-0.81-0.01-0.81-0.79-0.82
		c-0.98-0.01-1.96,0-2.94-0.01c-0.31,0-0.49-0.17-0.34-0.69c0.2-0.71,0.31-1.46,0.21-2.19c-0.26-1.94-0.5-2.32,0.19-2.36
		c1.02-0.05,2.06,0.22,3.02-1.03c2.48-3.23,6.5-2.91,9.05,0.26c0.69,0.86,1.4,0.76,2.1,0.77c0.88,0.01,0.89,0.01,0.89,0.94
		c0,1.27,0,2.54-0.01,3.8c0,0.27-0.22,0.5-0.5,0.5c-0.94,0.01-1.87,0.01-2.81,0c-0.83,0-0.82,0.02-0.81,0.9c0,0.11,0,0.21,0,0.32
		c0,5.75,0,11.5,0,17.26c0,1.25-0.09,1.16,1.07,1.16c0.87,0,1.74,0,2.6,0.01c0.25,0,0.44,0.2,0.45,0.45c0.01,1.44,0,2.89,0,4.33
		c0,0.24-0.1,0.4-0.35,0.41c-0.17,0.01-0.34,0.01-0.51,0.01c-4.57,0-9.14,0-13.71,0c-0.52,0-0.95-0.42-0.95-0.95
		c0-1.23,0-2.45,0-3.68c0-0.55,0.03-0.58,0.6-0.58c1-0.01,2,0,3.01-0.01c0.28,0,0.51-0.23,0.51-0.51c0.01-0.6,0.01-1.19,0.01-1.79
		C198.79,389.46,198.79,386.95,198.79,384.45z"/>
</g>
<g>
	<path class="st4" d="M94.64,324.83c-2.69-0.5-5.14-1.11-7.55-1.92c-6.26-2.1-12.09-5.04-17.02-9.49
		c-3.71-3.36-7.19-6.96-9.88-11.24c-0.91-1.46-1.69-2.98-2.19-4.63c-0.06-0.19-0.17-0.38-0.06-0.64c0.35-0.04,0.58,0.24,0.86,0.38
		c0.47,0.22,0.94,0.41,1.48,0.21c0.55-0.2,0.9-0.47,0.95-1.15c0.14-2.05,0.79-3.96,1.95-5.67c0.45-0.66,0.41-1.35,0.35-2.07
		c-0.21-2.36-0.31-4.71-0.17-7.08c0.24-4.1,1.03-8.09,2.42-11.94c0.66-1.82,0.93-3.71,1.35-5.57c1.14-5,2.83-9.8,5.38-14.27
		c0.7-1.22,1.47-2.4,2.49-3.39c0.44-0.42,0.88-0.86,1.55-1.04c0.2,1.8,1.31,3.04,2.42,4.3c0.29,0.33,0.52,0.31,0.87,0.07
		c1.32-0.93,2.69-1.8,4.2-2.37c1.58-0.59,3-1.32,4.23-2.54c1.28-1.27,2.96-1.96,4.74-2.31c0.95-0.18,1.71-0.65,2.41-1.29
		c0.56-0.52,0.81-1.17,0.89-1.91c0.02-0.24,0.03-0.52,0.33-0.57c0.27-0.04,0.44,0.17,0.55,0.39c0.37,0.73,0.9,1.38,1.08,2.19
		c0.09,0.02,0.17,0.06,0.2,0.03c1.4-0.87,2.95-1.26,4.55-1.5c0.85-0.13,1.4-0.68,1.77-1.41c0.09-0.18,0.13-0.41,0.36-0.44
		c0.29-0.03,0.4,0.21,0.5,0.43c0.38,0.8,0.92,1.55,0.96,2.47c0.02,0.51,0.21,0.64,0.69,0.59c1.4-0.13,2.8-0.13,4.21-0.03
		c3.32,0.23,6.48,1.1,9.52,2.38c4.24,1.79,8.02,4.3,11.38,7.45c0.54,0.5,0.99,0.65,1.71,0.39c2.49-0.91,5.11-1.24,7.73-1.61
		c3.05-0.43,6.08-1.02,9.09-1.66c1.14-0.24,2.28-0.47,3.24-1.21c0.2-0.15,0.43-0.25,0.67-0.14c0.3,0.14,0.14,0.4,0.14,0.63
		c0,0.31,0,0.62,0.07,0.92c0.78,3.27,0.53,6.54,0.06,9.81c-0.64,4.5-1.84,8.84-3.6,13.04c-0.96,2.29-2.17,4.43-3.72,6.36
		c-0.31,0.39-0.4,0.66-0.17,1.16c0.8,1.75,0.9,3.65,0.94,5.53c0.05,1.99-0.08,3.97-0.51,5.93c-0.1,0.44-0.05,0.87,0.1,1.31
		c1.37,4.03,3.81,7.25,7.31,9.66c1.14,0.79,2.38,1.37,3.84,1.12c0.24-0.04,0.49,0,0.63,0.25c0.14,0.26-0.05,0.46-0.19,0.64
		c-0.52,0.68-1.14,1.28-1.78,1.85c-2.61,2.29-5.45,4.27-8.44,6.02c-7.54,4.4-15.5,7.86-23.89,10.3c-1.18,0.34-2.36,0.7-3.63,1.08
		c1.57,1.14,2.73,2.64,4.21,3.79c0.7,0.55,1.42,1.08,2.06,1.69c0.81,0.77,1.86,1.14,2.78,1.74c0.21,0.14,0.38,0.07,0.54-0.1
		c0.24-0.25,0.48-0.49,0.72-0.73c3.01-2.91,6.52-4.86,10.68-5.54c4.09-0.67,7.99-0.01,11.68,1.82c5.77,2.86,9.72,7.48,12.43,13.22
		c1.62,3.44,2.55,7.08,3.02,10.84c0.02,0.2,0.07,0.43,0.01,0.61c-0.15,0.4-0.09,0.72,0.22,1.01c0.1,0.09,0.11,0.25-0.02,0.4
		c-0.38,0-0.54-0.34-0.77-0.56c-1.28-1.21-2.66-2.26-4.32-2.91c-2.91-1.14-5.65-0.79-8.19,0.99c-2.11,1.48-3.49,3.56-4.53,5.87
		c-1.17,2.58-1.76,5.32-2.08,8.13c-0.51,4.43-1.78,8.58-4.54,12.17c-3.48,4.52-8.1,7.18-13.64,8.31c-1.31,0.27-2.62,0.44-4.02,0.46
		c0.05,0.94,0.13,1.8,0.15,2.65c0.15,5.6-0.1,11.17-1.2,16.68c-0.2,1.01-0.52,1.99-0.58,3.02c-0.02,0.35-0.2,0.65-0.37,0.95
		c-0.19,0.33-0.44,0.64-0.54,0.99c-0.62,2.15-3.65,3.27-5.83,2.53c-0.87-0.29-1.68-0.38-2.59-0.15c-1.08,0.26-2.12,0.02-2.91-0.86
		c-0.33-0.36-0.7-0.62-1.17-0.79c-1.19-0.44-1.62-1.58-1.11-2.77c0.33-0.76,0.89-1.3,1.68-1.56c0.57-0.19,0.79-0.51,0.74-1.14
		c-0.35-4.25-1.44-8.22-4.11-11.63c-1.44-1.84-2.74-3.77-3.87-5.81c-0.11-0.2-0.16-0.45-0.52-0.58c-0.12,0.85-0.22,1.67-0.36,2.49
		c-0.95,5.6-2.69,10.96-5.09,16.11c-0.64,1.37-1.37,2.69-2.33,3.86c-0.34,0.42-0.67,0.88-1.32,0.85c-0.15-0.01-0.31,0.13-0.45,0.23
		c-1.13,0.71-2.39,1.04-3.69,1.19c-2.2,0.26-4.38,0.1-6.5-0.61c-0.98-0.33-1.88-0.84-2.59-1.61c-0.83-0.9-0.98-2.29-0.36-3.34
		c0.45-0.76,1.11-1.23,2.01-1.21c1.11,0.03,2.13-0.52,3.25-0.44c0.14,0.01,0.22-0.09,0.32-0.19c0.88-0.93,1.33-2.04,1.48-3.3
		c0.2-1.6,0.01-3.15-0.65-4.62c-2.68-5.98-4.34-12.26-5.24-18.73c-0.52-3.74-0.7-7.51-0.34-11.28c0.01-0.06-0.03-0.12-0.07-0.28
		c-0.53,0.09-1.05,0.23-1.64,0.1c-1.17-0.26-1.76-1-2.09-2.03c-0.42-1.32-0.28-2.64,0.12-3.95c0.25-0.8,0.24-0.79-0.38-1.29
		c-1.09-0.89-1.59-2.04-1.46-3.44c0.16-1.77,1.43-2.64,3.16-2.17c0.17,0.05,0.33,0.07,0.52-0.07c-0.14-0.64-0.55-1.15-0.94-1.66
		c-1.37-1.78-2.31-3.8-3.33-5.77c-0.41-0.79-0.73-1.62-1.22-2.37c-0.87-1.33-0.78-2.65,0.07-3.95c0.22-0.34,0.48-0.69,0.79-0.94
		c0.64-0.5,1.08-0.97,0.88-1.92c-0.14-0.66,0.36-1.26,1.02-1.51c0.47-0.18,0.81-0.5,1.16-0.81c3.53-3.1,7.43-5.6,11.86-7.23
		c0.32-0.12,0.65-0.21,0.98-0.31C93.88,325.07,94.16,324.98,94.64,324.83z M157.46,347.38c0.33,0.03,0.58-0.19,0.85-0.31
		c1.93-0.85,3.9-0.95,5.92-0.38c1.79,0.5,3.31,1.46,4.66,2.71c0.18,0.16,0.3,0.43,0.62,0.43c-1.01-9.92-6.96-18.93-13.09-22.45
		c1.59,2.68,2.31,5.51,2.58,8.46c0.34,3.73,0.04,7.39-1.39,10.9c-0.09,0.21-0.26,0.41-0.15,0.67l-0.05,0.02L157.46,347.38z
		 M134,332.06c-0.04-0.32-0.23-0.49-0.54-0.51c-0.52-0.02-0.87-0.41-1.41-0.52c-2.32-0.44-4.44-1.69-5.73-3.66
		c-1.61-2.46-3.71-4.06-6.29-4.97c-1.67-0.59-3.07-0.33-4.3,0.97c-2.34,2.48-3.85,5.33-3.92,8.83c0,0.08-0.05,0.14-0.13,0.16
		c-0.64,0.17-1.29,0.35-1.89,0.61c-2.66,1.15-4.65,3.13-6.44,5.34c-0.05,0.06-0.08,0.14-0.09,0.22c-0.17,1.87,0.23,3.6,1.31,5.1
		c0.79,1.11,0.63,0.71-1.08,2.77c-0.2,0.25-0.39,0.52-0.54,0.8c-1.51,2.8-2.21,5.7-2.17,8.75c0.01,0.62,0.28,0.92,0.83,1.13
		c0.79,0.3,1.48,0.15,2.1-0.39c0.5-0.44,0.84-0.99,1.09-1.6c0.38-0.93,0.58-1.91,0.73-2.9c0.02-0.12,0.03-0.31,0.03-0.43
		c-0.02-2.84,0.33-5.63,1.31-8.32c-0.76-0.33-1.43-0.61-2.12-0.95c-0.13-0.06-0.25-0.17-0.3-0.31c-0.26-0.64-0.19-1.38-0.01-2.07
		c0.22-0.84,0.53-1,1.32-0.7c0.63,0.24,1.22,0.57,1.93,0.64c0.2-0.69,0.52-1.23,1.18-1.51c1.28-0.55,2.79,0.14,3.14,1.57
		c0.16,0.65,0.4,0.77,0.96,0.67c0.14-0.02,0.33-0.08,0.47,0.21c-0.23,0.07-0.44,0.16-0.65,0.18c-0.44,0.04-0.73,0.25-1.02,0.59
		c-0.73,0.89-1.6,1.13-2.65,0.62c-0.53-0.26-0.74-0.12-0.96,0.3c-0.09,0.17-0.3,0.29-0.2,0.56c1.63,0.44,3.23,0.29,4.83-0.24
		c1.03-0.34,1.23-0.65,1.01-1.76c-0.04-0.19-0.2-0.39,0.22-0.49c0.11,0.64,0.24,1.25-0.07,1.87c-0.1,0.19-0.16,0.36-0.38,0.44
		c-1.59,0.54-3.17,1.13-4.9,0.72c-0.2-0.05-0.41-0.06-0.61-0.11c-0.37-0.1-0.58,0.05-0.71,0.39c-0.29,0.77-0.52,1.55-0.66,2.36
		c-0.35,2-0.37,4.02-0.55,6.03c-0.13,1.51-0.49,2.98-1.34,4.27c-0.84,1.28-1.77,1.61-3.26,1.19c-0.12-0.03-0.25-0.12-0.46,0.04
		c0.06,0.31,0.12,0.67,0.21,1.02c0.47,2,1.66,3.59,2.98,5.09c1.22,1.38,2.62,2.4,4.56,2.59c1.78,0.18,3.54,0.45,5.3-0.07
		c1.75-0.51,2.37-0.18,3.41,1.59c0.09,0.15,0.25,0.26,0.43,0.26c0.85-0.02,1.54-0.42,2.22-0.85c1.12-0.71,1.88-1.78,2.76-2.74
		c0.2-0.21,0.13-0.43,0.09-0.67c-0.17-1.2-0.12-2.39,0.14-3.58c0.12-0.57,0.46-1.17,0.35-1.69c-0.11-0.51-0.68-0.9-0.99-1.38
		c-2.61-4.1-3.86-8.59-3.7-13.5c0.01-0.25,0.12-0.63,0.24-0.84c0.34-0.61,0.12-0.8-0.34-1.01c-0.55-0.25-1.14-0.46-1.52-1
		c-1.04-1.47-1.6-3.09-1.63-4.89c0-0.2-0.03-0.43,0.26-0.47c0.24,0.16,0.17,0.43,0.19,0.65c0.11,1.03,0.38,2.01,0.76,2.98
		c0.33,0.84,0.68,1.65,1.76,1.73c0.1,0.01,0.19,0.07,0.29,0.11c2.87,1.38,5.74,2.75,8.53,4.29c0.58,0.32,1.18,0.54,1.8,0.74
		c0.38,0.12,0.75,0.06,1.02-0.29c0.06-0.08,0.12-0.17,0.06-0.28c-0.05-0.09-0.12-0.2-0.23-0.16c-1.06,0.41-1.28-0.52-1.6-1.1
		c-0.43-0.76-0.43-1.65-0.38-2.51c0.22-3.61,1.68-6.67,4.15-9.26c0.23-0.24,0.53-0.43,0.8-0.64c0.29-0.23,0.57-0.18,0.84,0.03
		c0.04,0.14,0.08,0.29,0.12,0.43c0.03,0,0.06-0.01,0.09-0.01C134,332.37,134,332.22,134,332.06z M90.85,284.46
		c0.5,2.15-0.08,3.44-1.93,4.45c-0.3,0.16-0.61,0.32-0.93,0.43c-3.16,1.1-6.15,0.6-8.97-1.04c-1.15-0.67-2.02-1.66-2.11-3.11
		c-0.02-0.41-0.22-0.53-0.58-0.54c-0.31,0-0.62-0.01-0.92-0.01c-1.81-0.03-3.54,0.46-5.21,1.06c-4.74,1.7-8.53,5.94-8.39,12.03
		c0.04,1.73,0.53,3.38,1.17,4.97c1.64,4.05,4.15,7.39,7.63,10.12c4.4,3.45,9.11,6.3,14.31,8.34c5.34,2.1,10.85,3.35,16.63,3.19
		c2.4-0.07,4.79-0.26,7.17-0.56c0.93-0.12,1.78-0.39,2.63-0.79c2.49-1.18,5.09-1.82,7.86-1.42c0.29,0.04,0.54-0.06,0.8-0.13
		c5.4-1.46,10.62-3.39,15.54-6.1c0.77-0.43,1.56-0.84,2.41-1.57c-1.01-0.04-1.7-0.48-2.4-0.89c-0.27-0.16-0.61-0.32-0.46-0.68
		c0.13-0.31,0.42,0.01,0.64-0.03c0.13-0.02,0.28,0.01,0.41-0.02c1.74-0.37,3.38-1.01,4.93-1.89c-0.16-0.34-0.46-0.37-0.7-0.48
		c-3.86-1.84-7.37-4.21-10.61-6.98c-2.16-1.85-4.39-3.6-6.76-5.17c-6.8-4.5-14.01-8.15-21.79-10.63
		C97.85,285.93,94.44,285.07,90.85,284.46z M69.61,262.17c1.31-0.37,2.55-0.46,3.78,0.03c1.85,0.73,3.31,1.9,4.27,3.67
		c0.83,1.52,1.27,3.17,1.84,4.79c0.46,1.3,1.09,2.52,1.99,3.57c1.32,1.54,2.99,1.97,4.92,1.47c0.94-0.24,1.79-0.68,2.58-1.24
		c0.97-0.68,1.8-1.5,2.47-2.45c1.69-2.43,3.73-4.55,5.74-6.71c2.04-2.2,4.21-4.23,6.76-5.81c2.92-1.81,6.05-3.06,9.52-3.3
		c3.8-0.26,7.1,0.87,9.78,3.63c1.97,2.03,3.03,4.53,3.75,7.21c0.46,1.73,0.58,3.51,0.96,5.25c1.81,8.32,5.4,15.79,10.81,22.36
		c2.3,2.79,4.93,5.24,8.05,7.12c2.08,1.26,4.28,2.18,6.74,2.3c1.31,0.07,2.61,0.03,3.99-0.61c-1.16-0.48-2.15-0.94-3.02-1.6
		c-2.63-1.97-4.66-4.44-6.04-7.42c-0.77-1.67-1.28-3.33-0.81-5.32c0.61-2.57,0.44-5.25,0.05-7.88c-0.12-0.82-0.25-1.65-0.69-2.42
		c-0.31,0.19-0.53,0.35-0.77,0.47c-0.17,0.08-0.34,0.02-0.46-0.12c-0.13-0.14-0.14-0.33-0.04-0.48c0.13-0.2,0.32-0.35,0.47-0.54
		c0.23-0.27,0.58-0.45,0.72-0.95c-0.43,0.14-0.78,0.26-1.13,0.36c-2.4,0.69-4.33-0.43-4.92-2.85c-0.23-0.95-0.19-1.9-0.04-2.86
		c0.21-1.26,0.72-2.41,1.44-3.58c-0.6,0.1-1.07,0.2-1.53,0.24c-2.21,0.16-3.85-1.43-3.74-3.64c0.07-1.46,0.79-2.6,1.85-3.54
		c1.07-0.95,2.35-1.4,3.73-1.8c3.29-0.95,6.26-2.58,8.69-5.08c1.09-1.12,1.99-2.36,2.51-3.85c0.27-0.79,0.55-1.59,0.46-2.54
		c-0.9,0.47-1.78,0.74-2.68,0.95c-2.7,0.64-5.44,1.07-8.18,1.51c-3.08,0.49-6.19,0.74-9.18,1.68c-1.25,0.39-2.48,0.79-3.55,1.56
		c-0.21,0.15-0.4,0.4-0.79,0.23c0.53-0.74,1.34-1.1,2.06-1.61c-0.76-0.77-1.5-1.38-2.26-1.97c-6.75-5.29-14.3-8.3-22.99-7.97
		c-0.55,0.02-0.67-0.15-0.69-0.69c-0.04-0.9-0.18-1.81-0.94-2.51c-0.54,0.6-1.13,0.99-1.85,1.16c-0.47,0.11-0.96,0.15-1.4,0.31
		c-1.41,0.51-3.2,0.47-3.66,2.43c-0.03,0.13-0.2,0.2-0.34,0.13c-0.08-0.04-0.17-0.14-0.17-0.22c-0.01-0.2,0.03-0.41,0.05-0.61
		c0.06-0.91-0.22-1.7-0.92-2.46c-0.4,1.24-1.28,1.94-2.26,2.52c-0.65,0.39-1.38,0.59-2.11,0.8c-1.78,0.5-3.35,1.4-4.64,2.73
		c-1.18,1.22-2.07,2.57-1.61,4.4c0,0.02-0.04,0.05-0.12,0.15c-0.5-0.36-0.58-0.89-0.53-1.42c0.05-0.55,0.2-1.09,0.33-1.73
		C78.39,250.22,73.4,255.53,69.61,262.17z M116.45,398.09c0.47,0.13,0.5,0.48,0.65,0.74c0.46,0.81,0.93,1.6,1.61,2.25
		c1.56,1.49,3.14,1.27,4.23-0.59c0.21-0.36,0.36-0.74,0.48-1.13c0.04-0.13,0.17-0.21,0.33-0.15c0.1,0.04,0.16,0.12,0.17,0.23
		c0.01,0.17,0,0.34,0,0.51c0,0.38,0.01,0.78,0.41,0.98c0.4,0.19,0.75-0.03,1.03-0.28c1.22-1.06,2.17-2.26,2.29-3.97
		c0.13-1.88,0.23-3.76,0.26-5.65c0.09-6.81-0.56-13.54-2.12-20.18c-0.46-1.95-1.44-3.55-2.72-5.1c-0.77,1.08-1.62,1.99-2.72,2.66
		c-2.54,1.54-5.28,1.84-8.13,1.27c-3.03-0.61-5.65-2.05-7.89-4.17c-0.23-0.22-0.39-0.56-0.78-0.58c-0.14,0.29-0.03,0.56-0.03,0.83
		c0,1.42-0.18,2.81-0.81,4.1c-0.85,1.75-2.2,2.89-4.13,3.2c-1.47,0.24-2.99,0.09-4.35-0.48c-3.06-1.27-5.34-3.45-6.88-6.4
		c-0.6-1.16-1.13-2.34-1.58-3.6c-0.32,0.24-0.2,0.44-0.15,0.63c0.34,1.33,0.85,2.62,1.54,3.79c1.91,3.24,4.47,5.87,7.86,7.61
		c2.26,1.16,4.65,1.8,7.21,1.81c0.53,0,0.78-0.17,0.73-0.7c-0.1-1,0.14-1.98,0.24-2.96c0.03-0.24,0.02-0.52,0.35-0.73
		c-0.04,0.44-0.07,0.78-0.1,1.12c-0.18,2.49,0.01,4.92,1.02,7.25c0.86,1.98,1.76,3.94,2.83,5.82c1.14,1.99,2.42,3.9,3.84,5.7
		c1.91,2.42,2.82,5.29,3.55,8.24c0.14,0.57,0.22,1.16,0.52,1.79C116.12,400.74,116.22,399.39,116.45,398.09z M95.84,400.42
		c0.21,0.42,0.07,0.72,0.06,1.02c-0.02,0.48-0.03,0.96,0.07,1.43c0.21,0.94,0.86,1.31,1.77,1.01c0.46-0.15,0.86-0.42,1.24-0.72
		c1.46-1.16,2.52-2.65,3.16-4.36c1.64-4.37,2.95-8.84,3.38-13.51c0.07-0.7-0.02-1.35-0.33-1.99c-0.87-1.79-1.59-3.64-2.06-5.58
		c-0.13-0.55-0.39-0.69-0.93-0.66c-1.59,0.08-3.15-0.11-4.66-0.6c-5.94-1.92-9.9-5.92-12.23-11.63c-0.13-0.33-0.15-0.72-0.59-1.08
		c-0.1,0.89-0.2,1.65-0.26,2.41c-0.21,2.81-0.01,5.61,0.33,8.41c0.86,7.05,2.66,13.85,5.58,20.33c0.9,2,1.81,3.98,2,6.21
		c0.06,0.65,0.26,1.38,1.01,1.52c0.72,0.14,1.16-0.46,1.58-0.97C95.27,401.29,95.39,400.8,95.84,400.42z M93.61,334.08
		c-2.18,2.88-4.08,5.75-5.04,9.13c-0.63,2.21-1.09,4.46-1.4,6.73c-0.25,1.86-0.57,3.74-0.42,5.62c0.15,1.8,0.02,3.56-0.47,5.29
		c-0.11,0.37-0.13,0.72-0.03,1.1c1.06,3.75,3.03,6.87,6.29,9.09c1.29,0.88,2.72,1.45,4.3,1.55c2.25,0.14,4-0.71,5.18-2.66
		c0.45-0.74,0.73-1.56,0.83-2.41c0.22-1.83,0.18-3.55-1.06-5.16c-1.38-1.79-2.34-3.86-3.02-6.04c-0.14-0.46-0.34-0.89-0.58-1.31
		c-3.16-5.4-4.36-11.17-3.28-17.37c0.04-0.22,0.09-0.43,0.02-0.69C94.68,335.99,94.15,335.14,93.61,334.08z M106.55,288.35
		c-0.06-0.35-0.08-0.55-0.13-0.74c-0.39-1.68-0.49-3.39-0.38-5.11c0.16-2.62,0.73-5.15,1.95-7.5c0.59-1.14,1.34-2.16,2.36-2.94
		c1.62-1.23,3.39-1.09,4.8,0.36c0.73,0.75,1.22,1.64,1.59,2.61c0.54,1.42,0.82,2.9,0.91,4.41c0.21,3.41-0.32,6.69-1.75,9.81
		c-0.43,0.93-1.04,1.74-1.71,2.61c0.98,0.52,1.89,0.97,2.77,1.48c0.43,0.25,0.61,0.11,0.77-0.27c0.26-0.6,0.56-1.18,0.81-1.77
		c2.23-5.27,2.83-10.77,2.21-16.41c-0.29-2.67-0.97-5.25-2.18-7.67c-0.85-1.71-1.97-3.21-3.53-4.34c-1.82-1.32-3.8-1.64-5.94-0.94
		c-1.19,0.39-2.23,1.05-3.16,1.87c-1.4,1.24-2.52,2.7-3.43,4.33c-2.92,5.28-3.93,10.98-3.74,16.94c0.01,0.41,0.16,0.61,0.54,0.72
		C101.74,286.48,104.07,287.37,106.55,288.35z M136.26,344.09c-0.32,0.55-0.87,0.81-1.36,1.13c-3.28,2.15-6.06,4.81-8.27,8.05
		c-0.64,0.94-1.12,1.96-1.43,3.06c-0.09,0.33-0.16,0.67-0.16,1.01c0,0.91,0.48,1.19,1.25,0.72c0.26-0.16,0.49-0.38,0.72-0.57
		c0.68-0.56,1.18-1.28,1.7-2c-0.08,0.53-0.16,1.03-0.11,1.55c0.09,0.89,0.57,1.21,1.41,0.91c0.65-0.23,1.22-0.61,1.74-1.07
		c1.65-1.46,3.5-2.63,5.48-3.6c2.53-1.24,4.94-2.64,6.94-4.68c0.61-0.62,0.88-1.27,0.91-2.08c0.04-1.05-0.27-2.03-0.74-2.96
		c-1.02-2.02-2.46-3.7-4.13-5.2c-2.16-1.94-4.6-3.45-7.23-4.66c-0.94-0.43-0.95-0.46-1.61,0.37c-1.51,1.88-2.44,4.03-2.93,6.38
		c-0.2,0.95-0.23,1.9-0.17,2.86c0.07,0.95,0.58,1.5,1.46,1.75c0.63,0.18,1.27,0.3,1.92,0.33c1.04,0.06,2.03-0.01,2.92-0.68
		C135.04,344.35,135.6,344.06,136.26,344.09z M125.59,368.24c0.1,0.37,0.14,0.53,0.18,0.69c0.64,2.17,1.15,4.37,1.52,6.6
		c0.37,2.23,0.64,4.47,0.83,6.73c0.1,1.19,0.11,0.98,1.1,0.91c1.92-0.13,3.79-0.53,5.63-1.1c0.43-0.13,0.65-0.32,0.73-0.83
		c0.75-4.66-0.46-8.81-3.15-12.61c-0.37-0.53-0.82-0.57-1.34-0.4C129.33,368.8,127.56,369.01,125.59,368.24z M145.38,343.99
		c0.12,0.48,0.24,0.84,0.3,1.2c0.22,1.33,0.14,2.61-0.85,3.65c-0.56,0.59-1.14,1.2-1.81,1.65c-1.59,1.05-3.18,2.14-4.9,2.98
		c-1.17,0.57-2.27,1.26-3.44,1.83c-0.18,0.09-0.46,0.16-0.38,0.51c0.28-0.02,0.55-0.05,0.82-0.07c3.08-0.22,6.09,0.13,8.96,1.31
		c2.27,0.93,4.21,2.29,5.39,4.52c0.01,0.03,0.1,0.02,0.23,0.04c0.09-1.77,0.62-3.43,1.14-5.09c0.13-0.4,0.07-0.82,0-1.22
		c-0.64-3.59-1.98-6.89-4.16-9.83C146.31,344.98,145.96,344.47,145.38,343.99z M76.05,284c0.39-0.05,0.63-0.13,0.86-0.11
		c0.63,0.05,0.81-0.31,0.89-0.85c0.39-2.94,0.41-5.87-0.37-8.76c-0.34-1.26-0.82-2.47-1.67-3.49c-1.43-1.71-3.17-1.81-4.8-0.28
		c-0.86,0.81-1.46,1.8-1.96,2.87c-1.25,2.69-1.68,5.55-1.78,8.48c-0.05,1.36,0.11,2.7,0.4,4.17c0.88-0.58,1.73-0.91,2.63-1.11
		c0.71-0.16,0.7-0.16,0.63-0.88c-0.22-2.13-0.12-4.24,0.61-6.28c0.29-0.81,0.66-1.58,1.3-2.18c0.86-0.81,1.72-0.76,2.46,0.17
		c0.35,0.43,0.58,0.93,0.74,1.46c0.25,0.82,0.41,1.66,0.44,2.52C76.48,281.1,76.4,282.49,76.05,284z M98.43,345.12
		c0.07-0.01,0.13,0,0.13-0.02c0.16-0.38,0.31-0.76,0.47-1.14c1.61-3.7,3.91-6.9,6.99-9.52c1.34-1.14,2.78-2.12,4.54-2.5
		c0.43-0.09,0.41-0.35,0.43-0.67c0.25-3.3,1.74-6,3.99-8.34c0.17-0.18,0.45-0.27,0.5-0.6c-1.57,0.23-3,0.77-4.38,1.47
		c-0.31,0.16-0.54,0.36-0.74,0.68c-2.15,3.44-4.98,6.26-8.13,8.77c-0.44,0.35-0.78,0.74-1.02,1.26c-1.21,2.59-2.08,5.28-2.55,8.1
		C98.53,343.44,98.33,344.27,98.43,345.12z M83.17,351.37c0.17-1.33,0.33-2.58,0.5-3.84c0.17-1.26,0.48-2.48,0.71-3.73
		c0.24-1.28-0.12-2.41-0.9-3.47c-0.68-0.93-1.5-1.47-2.66-1.44c-0.21,0.01-0.44-0.01-0.47-0.27c-0.02-0.25,0.19-0.33,0.4-0.39
		c0.27-0.08,0.54-0.06,0.81-0.01c0.6,0.09,1.16,0.29,1.8,0.68c-0.31-1.34-0.96-2.28-1.78-3.11c-0.19-0.19-0.4-0.4-0.72-0.25
		c-1.36,0.66-2.69,1.38-3.49,2.75c-0.56,0.95-0.7,1.91-0.17,2.93c0.35,0.67,0.68,1.34,1.03,2.01
		C79.7,346.01,81.27,348.72,83.17,351.37z M82.93,357.58c-0.31,0.11-0.56,0.23-0.83,0.28c-0.31,0.05-0.48,0.19-0.6,0.47
		c-0.58,1.37-0.76,2.78-0.28,4.21c0.4,1.19,1.12,1.63,2.61,1.1c0.41-0.15,0.66-0.49,0.89-0.83c0.99-1.45,1.54-3.05,1.51-4.82
		c-0.03-2.06,0.03-4.1,0.17-6.16c0.18-2.62,0.52-5.26-0.13-7.87c-0.19-0.78-0.21-1.62-0.68-2.42c-0.46,1.08-0.84,2.08-0.98,3.18
		c-0.21,1.66-0.51,3.32-0.72,4.98c-0.36,2.89-0.65,5.78-0.26,8.7c0.03,0.21,0.16,0.46-0.08,0.66
		C83.08,358.68,83.36,358,82.93,357.58z M79.16,335.54c0.33-0.83,0.82-1.12,1.58-0.94c0.72,0.17,1.3,0.58,1.8,1.12
		c1.13,1.2,1.62,2.69,1.88,4.25c0.1,0.59,0.33,1.06,0.64,1.56c0.53-0.54,0.34-1.06,0.08-1.55c-0.23-0.43-0.17-0.76,0.3-0.89
		c0.81-0.23,1.09-0.88,1.34-1.55c0.23-0.61,0.37-1.25,0.63-1.84c0.17-0.37,0.07-0.63-0.07-0.95c-0.23-0.5-0.69-0.81-0.99-1.22
		c2.61-3.3,5.5-6.18,9.27-8.06c-1.23-0.08-2.34,0.28-3.41,0.72c-4.21,1.74-8.03,4.11-11.38,7.21c-0.28,0.26-0.55,0.51-0.91,0.65
		C79.3,334.28,79.01,334.73,79.16,335.54z M123.63,357.92c0.26-0.59,0.5-1.19,0.8-1.76c0.27-0.51,0.32-1.01,0.23-1.58
		c-0.15-0.87-0.31-1.74-0.32-2.64c-0.02-2.09-0.03-4.18,0.22-6.26c0.04-0.29,0.15-0.6-0.25-0.78c-1.47-0.66-2.92-1.34-4.38-2
		c-0.27-0.12-0.44-0.05-0.53,0.26c-0.14,0.46-0.22,0.94-0.21,1.42c0.05,4.56,1.37,8.75,3.73,12.63
		C123.08,357.48,123.22,357.83,123.63,357.92z M67.12,265.58c0.06,0.04,0.13,0.07,0.19,0.11c2.66-6.04,6.4-11.26,11.64-15.4
		c-1.24-1.24-2.18-2.57-2.77-4.15c-0.58,0.27-0.93,0.69-1.29,1.09c-0.87,0.97-1.58,2.07-2.21,3.2c-1.87,3.36-3.24,6.93-4.3,10.62
		C67.95,262.56,67.54,264.07,67.12,265.58z M99.76,334.91c-0.98,0.51-1.98,0.86-2.98,1.21c-0.32,0.11-0.49,0.28-0.67,0.55
		c-0.62,0.9-0.65,1.94-0.73,2.94c-0.35,4.16,0.34,8.19,1.85,12.07c0.18,0.46,0.32,0.94,0.71,1.3c-0.14-0.74-0.33-1.47-0.36-2.23
		c-0.22-4.92,0.37-9.71,2.25-14.29C100.02,335.96,100.09,335.48,99.76,334.91z M99.97,333.22c1.23-0.79,2.4-1.52,3.12-2.82
		c0.53-0.96,1.27-1.79,2.02-2.59c0.6-0.64,1.22-1.27,1.97-2.04c-3.37,0.25-5.93,1.98-8.7,3.57c0.6-1.23,0.53-1.49-0.53-2.47
		c-2.18,1.18-3.12,3.1-3.31,5.55C97.77,330.7,98.33,330.78,99.97,333.22z M102.3,339.54c-1.23,1.44-2.75,4.38-3.5,6.74
		c-0.26,0.81-0.56,1.63-0.56,2.49c-0.01,2.03,0.32,4.02,0.79,5.99c0.11,0.45,0.34,0.79,0.68,1.06c0.08-0.05,0.12-0.07,0.12-0.09
		c0.09-4.13,1.13-7.9,4.07-10.98c0.26-0.27,0.04-0.4-0.1-0.59c-0.74-1.06-1.11-2.26-1.28-3.54
		C102.47,340.3,102.52,339.95,102.3,339.54z M88.68,340.4c0.15-0.03,0.2-0.03,0.21-0.05c0.11-0.28,0.23-0.57,0.33-0.86
		c1.52-4.57,4.05-8.58,6.75-12.51c0.19-0.28,0.75-0.51,0.44-0.91c-0.27-0.34-0.7-0.01-1.03,0.13c-0.41,0.17-0.81,0.38-1.18,0.62
		c-2.57,1.68-4.8,3.75-6.76,6.1c-0.18,0.21-0.49,0.39-0.15,0.77c0.92,1.02,1.13,2.32,1.25,3.62
		C88.63,338.32,88.63,339.35,88.68,340.4z M112.21,279.48c0.02,1.16,0.09,2.25,0.55,3.27c0.27,0.6,0.61,1.22,1.37,1.24
		c0.71,0.01,1.05-0.57,1.35-1.12c0.68-1.23,0.9-2.58,0.93-3.96c0.03-1.41-0.09-2.81-0.82-4.08c-0.5-0.87-1.33-0.97-2.03-0.25
		c-0.39,0.4-0.63,0.89-0.81,1.41C112.36,277.14,112.24,278.33,112.21,279.48z M125.26,354.35c1.96-3.05,4.22-5.81,7.05-8.1
		c-0.43-0.29-0.86-0.2-1.24-0.31c-0.43-0.13-0.68-0.1-0.8,0.42c-0.08,0.36-0.48,0.46-0.83,0.49c-0.45,0.04-0.87-0.1-1.29-0.27
		c-0.96-0.4-1.93-0.78-2.96-1.19C124.81,348.44,124.63,351.37,125.26,354.35z M107.84,366.95c2.86,1.77,5.92,2.47,9.31,1.8
		c-0.32-0.52-0.55-0.97-0.85-1.38c-0.43-0.61-1.1-0.83-1.79-0.61c-1.45,0.47-2.94,0.58-4.44,0.43
		C109.32,367.13,108.58,367.04,107.84,366.95z M88.04,337.67c-0.78,0.9-1.63,1.52-2.58,2.01c0.42,1.1,0.84,2.18,1.07,3.32
		c0.24,1.15,0.28,2.34,0.64,3.53C88.06,343.74,88.43,340.44,88.04,337.67z M97.27,331.69c-0.94,0.02-1.7,0.6-2.43,1.22
		c-0.22,0.18-0.19,0.41-0.14,0.66c0.14,0.7,1.02,1.37,1.74,1.26c0.99-0.14,1.88-0.57,2.74-1.06c0.19-0.11,0.3-0.23,0.23-0.49
		C99.15,332.41,98.23,331.68,97.27,331.69z M73.67,278.95c0.02,0.49,0.03,1.04,0.3,1.54c0.37,0.69,0.94,0.74,1.29,0.06
		c0.58-1.12,0.6-2.29,0.1-3.45c-0.28-0.64-0.85-0.66-1.25-0.07C73.73,277.6,73.67,278.25,73.67,278.95z M104.94,339.53
		c-0.09,0.05-0.22,0.07-0.26,0.14c-0.38,0.65-0.4,1.37-0.31,2.09c0.06,0.52,0.53,0.58,0.89,0.73c1.49,0.65,1.5,0.64,2.25-0.77
		c0.33-0.61,0.1-1.15-0.57-1.4c-0.51-0.19-1.02-0.39-1.52-0.59C105.26,339.67,105.11,339.6,104.94,339.53z M93.82,331.29
		c-1.47,2.01-2.57,4.15-3.36,6.44c0.61-0.82,1.09-1.75,1.75-2.51c0.93-1.06,1.61-2.18,1.56-3.63
		C93.77,331.49,93.8,331.39,93.82,331.29z M108,340.94c0.38-0.11,0.22-0.44,0.29-0.68c0.19-0.71,0.85-1.12,1.57-0.98
		c0.68,0.13,1.17,0.78,1.07,1.41c-0.1,0.63-0.71,1.08-1.44,1.05c-0.26-0.01-0.51-0.23-0.78-0.01c0.7,0.64,1.58,0.7,2.27,0.15
		c0.64-0.52,0.78-1.39,0.33-2.13c-0.52-0.86-1.63-1.24-2.49-0.87C107.96,339.26,107.7,339.92,108,340.94z M107.9,326.02
		c-1.53,1.11-2.8,2.47-3.85,4.04C105.56,328.92,106.89,327.62,107.9,326.02z M110.6,340.47c-0.01-0.52-0.44-0.9-1.02-0.91
		c-0.56,0-1,0.42-0.99,0.94c0.01,0.49,0.5,0.92,1.03,0.92C110.16,341.42,110.61,340.99,110.6,340.47z M87.61,335.91
		c-0.11,0.34-0.23,0.65-0.3,0.96c-0.08,0.34-0.34,0.65-0.19,1.05C87.92,337.16,88.04,336.68,87.61,335.91z"/>
	<path class="st5" d="M90.85,284.46c3.6,0.61,7,1.47,10.36,2.54c7.78,2.48,14.99,6.13,21.79,10.63c2.38,1.57,4.6,3.33,6.76,5.17
		c3.24,2.78,6.75,5.14,10.61,6.98c0.24,0.11,0.54,0.15,0.7,0.48c-1.55,0.88-3.19,1.52-4.93,1.89c-0.13,0.03-0.28,0-0.41,0.02
		c-0.22,0.04-0.51-0.28-0.64,0.03c-0.15,0.36,0.19,0.53,0.46,0.68c0.7,0.41,1.38,0.85,2.4,0.89c-0.85,0.73-1.64,1.14-2.41,1.57
		c-4.91,2.7-10.13,4.64-15.54,6.1c-0.26,0.07-0.52,0.17-0.8,0.13c-2.78-0.41-5.38,0.24-7.86,1.42c-0.85,0.4-1.69,0.68-2.63,0.79
		c-2.38,0.3-4.77,0.49-7.17,0.56c-5.78,0.16-11.29-1.09-16.63-3.19c-5.2-2.04-9.91-4.89-14.31-8.34c-3.48-2.73-5.98-6.07-7.63-10.12
		c-0.65-1.59-1.13-3.24-1.17-4.97c-0.15-6.09,3.65-10.33,8.39-12.03c1.67-0.6,3.39-1.09,5.21-1.06c0.31,0,0.62,0.01,0.92,0.01
		c0.36,0,0.56,0.13,0.58,0.54c0.08,1.44,0.95,2.44,2.11,3.11c2.82,1.64,5.81,2.14,8.97,1.04c0.32-0.11,0.63-0.26,0.93-0.43
		C90.76,287.91,91.34,286.61,90.85,284.46z M100.45,313.93c1.82,0.27,3.62,0.09,5.4-0.29c3.08-0.66,5.92-1.88,8.39-3.88
		c1.02-0.83,1.91-1.77,2.37-3.04c0.33-0.91,0.35-1.81-0.19-2.66c-0.09-0.14-0.19-0.33-0.39-0.26c-0.28,0.11-0.17,0.33-0.07,0.51
		c0.62,1.14,0.3,2.19-0.32,3.19c-0.72,1.15-1.69,2.06-2.8,2.82c-2.83,1.92-5.95,3.04-9.35,3.39c-1.8,0.09-3.59,0.07-5.44-0.66
		c0.27,0.42,0.57,0.45,0.82,0.54C99.37,313.77,99.9,313.92,100.45,313.93z"/>
	<path class="st6" d="M69.61,262.17c3.79-6.64,8.78-11.95,16.22-14.78c-0.13,0.65-0.28,1.19-0.33,1.73
		c-0.04,0.53,0.04,1.06,0.53,1.42c0.08-0.1,0.12-0.13,0.12-0.15c-0.46-1.83,0.43-3.18,1.61-4.4c1.29-1.33,2.86-2.22,4.64-2.73
		c0.73-0.21,1.46-0.41,2.11-0.8c0.98-0.58,1.86-1.29,2.26-2.52c0.69,0.75,0.97,1.54,0.92,2.46c-0.01,0.2-0.05,0.41-0.05,0.61
		c0,0.08,0.09,0.19,0.17,0.22c0.14,0.06,0.31,0,0.34-0.13c0.46-1.96,2.25-1.92,3.66-2.43c0.45-0.16,0.94-0.2,1.4-0.31
		c0.72-0.17,1.31-0.56,1.85-1.16c0.76,0.71,0.91,1.62,0.94,2.51c0.02,0.54,0.14,0.71,0.69,0.69c8.7-0.34,16.24,2.67,22.99,7.97
		c0.75,0.59,1.5,1.19,2.26,1.97c-0.72,0.51-1.53,0.88-2.06,1.61c0.39,0.17,0.59-0.08,0.79-0.23c1.08-0.77,2.3-1.17,3.55-1.56
		c3-0.94,6.11-1.19,9.18-1.68c2.74-0.43,5.48-0.86,8.18-1.51c0.9-0.21,1.78-0.48,2.68-0.95c0.08,0.95-0.19,1.75-0.46,2.54
		c-0.51,1.49-1.42,2.73-2.51,3.85c-2.43,2.5-5.4,4.12-8.69,5.08c-1.38,0.4-2.66,0.85-3.73,1.8c-1.07,0.94-1.78,2.09-1.85,3.54
		c-0.11,2.21,1.53,3.8,3.74,3.64c0.47-0.03,0.93-0.14,1.53-0.24c-0.72,1.17-1.23,2.32-1.44,3.58c-0.16,0.95-0.2,1.91,0.04,2.86
		c0.6,2.43,2.52,3.54,4.92,2.85c0.35-0.1,0.7-0.22,1.13-0.36c-0.13,0.49-0.49,0.67-0.72,0.95c-0.15,0.18-0.34,0.34-0.47,0.54
		c-0.1,0.14-0.09,0.33,0.04,0.48c0.12,0.14,0.3,0.2,0.46,0.12c0.24-0.12,0.46-0.28,0.77-0.47c0.43,0.77,0.56,1.61,0.69,2.42
		c0.39,2.63,0.56,5.31-0.05,7.88c-0.47,1.99,0.03,3.65,0.81,5.32c1.38,2.98,3.41,5.44,6.04,7.42c0.88,0.66,1.86,1.12,3.02,1.6
		c-1.37,0.64-2.68,0.68-3.99,0.61c-2.46-0.13-4.66-1.04-6.74-2.3c-3.11-1.89-5.75-4.33-8.05-7.12c-5.42-6.57-9-14.04-10.81-22.36
		c-0.38-1.74-0.5-3.52-0.96-5.25c-0.72-2.68-1.78-5.19-3.75-7.21c-2.68-2.76-5.99-3.89-9.78-3.63c-3.46,0.24-6.59,1.49-9.52,3.3
		c-2.56,1.59-4.72,3.62-6.76,5.81c-2,2.16-4.04,4.29-5.74,6.71c-0.67,0.96-1.5,1.78-2.47,2.45c-0.79,0.55-1.64,1-2.58,1.24
		c-1.93,0.5-3.6,0.07-4.92-1.47c-0.91-1.05-1.53-2.27-1.99-3.57c-0.57-1.61-1.01-3.27-1.84-4.79c-0.97-1.76-2.43-2.94-4.27-3.67
		C72.16,261.71,70.92,261.8,69.61,262.17z M87.77,265.58c-0.95,0.57-0.95,0.57-1.17,1.26c-0.3,0.95-0.51,1.92-0.67,2.9
		c-0.12,0.71-0.14,1.44-0.05,2.15c0.15,1.2,0.95,1.58,1.96,0.93c0.12-0.07,0.22-0.17,0.33-0.25c0.96-0.71,1.56-1.73,2.15-2.72
		c1.2-2.01,2.65-3.83,4.18-5.58c2.57-2.92,5.4-5.54,8.76-7.54c1.6-0.95,3.29-1.7,5.13-2.02c1.67-0.29,3.34-0.37,4.86,0.62
		c0.11,0.07,0.23,0.16,0.37,0.06c0.16-0.11,0.18-0.26,0.13-0.45c-0.23-0.93-0.46-1.86-0.93-2.71c-1.08-1.94-2.82-2.86-5.04-2.62
		c-1.36,0.14-2.57,0.68-3.74,1.35c-1.74,0.99-3.26,2.27-4.69,3.65c-3.03,2.91-5.5,6.28-7.73,9.82c-0.33,0.52-0.73,0.99-1.01,1.53
		c-0.86,1.6-1.67,3.22-2.51,4.83c-0.13,0.24-0.28,0.48-0.47,0.67c-0.29,0.3-0.57,0.21-0.66-0.19c-0.12-0.58-0.06-1.16,0.03-1.74
		C87.18,268.26,87.43,266.99,87.77,265.58z M85.9,266.51c-0.75,0.07-1.05,0.48-1.21,1.05c-0.24,0.86-0.5,1.7-0.76,2.55
		c-0.26,0.84-0.81,1.01-1.53,0.51c-0.27-0.19-0.36-0.6-0.8-0.66c-0.15,0.87,0.26,1.52,0.76,2.12c0.41,0.49,0.94,0.83,1.62,0.64
		c0.65-0.18,0.86-0.74,0.96-1.34c0.15-0.94,0.22-1.9,0.46-2.83C85.56,267.91,85.87,267.29,85.9,266.51z M84.16,264.35
		c-0.44,0.22-0.55,0.53-0.69,0.79c-0.18,0.33-0.39,0.68-0.08,1.04c0.28,0.32,0.65,0.34,1.04,0.26c0.71-0.15,1.39-0.4,2-0.79
		c1.35-0.87,2.7-1.76,4.04-2.64c0.17-0.11,0.33-0.23,0.42-0.43c0.11-0.22,0.25-0.46,0.01-0.65c-0.21-0.16-0.37,0.05-0.52,0.17
		c-1.54,1.25-3.34,2-5.18,2.66C84.68,264.95,84.35,264.88,84.16,264.35z"/>
	<path class="st5" d="M133.55,332.11c-0.27-0.21-0.56-0.25-0.84-0.03c-0.27,0.21-0.57,0.39-0.8,0.64c-2.48,2.6-3.94,5.65-4.15,9.26
		c-0.05,0.86-0.05,1.75,0.38,2.51c0.33,0.59,0.54,1.51,1.6,1.1c0.11-0.04,0.18,0.06,0.23,0.16c0.06,0.11,0,0.2-0.06,0.28
		c-0.26,0.35-0.63,0.41-1.02,0.29c-0.62-0.19-1.22-0.42-1.8-0.74c-2.78-1.55-5.66-2.91-8.53-4.29c-0.09-0.04-0.19-0.1-0.29-0.11
		c-1.08-0.08-1.43-0.89-1.76-1.73c-0.38-0.96-0.64-1.95-0.76-2.98c-0.02-0.23,0.05-0.49-0.19-0.65c-0.29,0.05-0.27,0.28-0.26,0.47
		c0.03,1.8,0.59,3.42,1.63,4.89c0.38,0.54,0.97,0.75,1.52,1c0.44,0.2,0.66,0.37,0.4,0.91c-0.26,0.52-0.31,1.12-0.31,1.71
		c-0.01,4.61,1.24,8.85,3.71,12.73c0.31,0.48,0.88,0.88,0.99,1.38c0.11,0.52-0.23,1.12-0.35,1.69c-0.25,1.18-0.31,2.38-0.14,3.58
		c0.03,0.24,0.1,0.46-0.09,0.67c-0.88,0.96-1.64,2.03-2.76,2.74c-0.44,0.28-0.88,0.54-1.37,0.7c-0.7,0.23-1.17,0.03-1.57-0.59
		c-0.88-1.35-1.54-1.57-3.12-1.11c-1.76,0.52-3.52,0.24-5.3,0.07c-1.94-0.19-3.34-1.21-4.56-2.59c-1.32-1.5-2.5-3.09-2.98-5.09
		c-0.08-0.35-0.14-0.71-0.21-1.02c0.21-0.16,0.33-0.08,0.46-0.04c1.49,0.41,2.42,0.08,3.26-1.19c0.85-1.29,1.21-2.76,1.34-4.27
		c0.17-2.01,0.2-4.03,0.55-6.03c0.14-0.81,0.38-1.59,0.66-2.36c0.13-0.34,0.33-0.49,0.71-0.39c0.2,0.05,0.41,0.06,0.61,0.11
		c1.73,0.41,3.31-0.18,4.9-0.72c0.22-0.08,0.29-0.25,0.38-0.44c0.31-0.62,0.18-1.23,0.07-1.87c-0.41,0.09-0.25,0.3-0.22,0.49
		c0.21,1.11,0.02,1.41-1.01,1.76c-1.6,0.53-3.2,0.68-4.83,0.24c-0.09-0.27,0.11-0.39,0.2-0.56c0.22-0.42,0.43-0.56,0.96-0.3
		c1.05,0.51,1.92,0.27,2.65-0.62c0.28-0.34,0.57-0.55,1.02-0.59c0.22-0.02,0.43-0.12,0.65-0.18c-0.14-0.29-0.33-0.24-0.47-0.21
		c-0.56,0.1-0.8-0.02-0.96-0.67c-0.35-1.43-1.86-2.12-3.14-1.57c-0.66,0.28-0.98,0.82-1.18,1.51c-0.72-0.06-1.31-0.4-1.93-0.64
		c-0.79-0.3-1.1-0.13-1.32,0.7c-0.08,0.3-0.14,0.6-0.16,0.91c-0.07,1.03,0.11,1.31,1.05,1.74c0.49,0.22,0.99,0.44,1.54,0.68
		c-0.96,2.64-1.31,5.37-1.31,8.15c0,0.37-0.05,0.75-0.11,1.12c-0.14,0.81-0.33,1.61-0.64,2.38c-0.25,0.61-0.59,1.16-1.09,1.6
		c-0.62,0.54-1.31,0.69-2.1,0.39c-0.54-0.21-0.82-0.51-0.83-1.13c-0.03-2.18,0.32-4.29,1.08-6.34c0.61-1.66,1.53-3.13,2.71-4.44
		c0.64-0.72,0.57-0.73,0-1.53c-1.03-1.44-1.44-3.08-1.33-4.85c0.02-0.25,0.1-0.46,0.26-0.66c1.75-2.14,3.7-4.05,6.29-5.16
		c0.53-0.23,1.09-0.39,1.65-0.54c0.28-0.08,0.36-0.18,0.37-0.48c0.14-3.39,1.63-6.16,3.91-8.58c1.23-1.3,2.63-1.56,4.3-0.97
		c1.84,0.65,3.44,1.65,4.78,3.06c2.32,2.42,5,4.35,7.98,5.88c0.21,0.11,0.43,0.21,0.68,0.22c0.31,0.01,0.5,0.19,0.54,0.5
		C133.66,331.98,133.59,331.98,133.55,332.11z M108.04,359.01c-0.21,0.34-0.14,0.66,0,0.99c0.44,1.02,1.04,1.92,1.87,2.66
		c0.4,0.36,0.85,0.53,1.4,0.51c0.75-0.03,1.51-0.08,2.26,0c1.65,0.18,2.99-0.46,4.24-1.44c0.27-0.21,0.53-0.44,0.84-0.58
		c0.29-0.14,0.37-0.38,0.49-0.62c0.53-1.05,0-1.92-0.48-2.79c-0.37-0.68-0.61-0.68-1.05-0.04c-0.36,0.52-0.81,0.93-1.37,1.2
		C113.55,360.18,110.84,360.15,108.04,359.01z"/>
	<path class="st6" d="M116.45,398.09c-0.23,1.3-0.32,2.64-1.25,3.84c-0.3-0.63-0.38-1.22-0.52-1.79c-0.72-2.94-1.64-5.82-3.55-8.24
		c-1.42-1.81-2.7-3.71-3.84-5.7c-1.07-1.87-1.97-3.84-2.83-5.82c-1.01-2.33-1.2-4.76-1.02-7.25c0.02-0.34,0.06-0.68,0.1-1.12
		c-0.33,0.21-0.32,0.49-0.35,0.73c-0.1,0.98-0.34,1.96-0.24,2.96c0.05,0.53-0.2,0.7-0.73,0.7c-2.56-0.01-4.95-0.65-7.21-1.81
		c-3.38-1.74-5.95-4.36-7.86-7.61c-0.69-1.17-1.2-2.46-1.54-3.79c-0.05-0.19-0.17-0.39,0.15-0.63c0.45,1.26,0.98,2.45,1.58,3.6
		c1.53,2.95,3.82,5.13,6.88,6.4c1.36,0.57,2.88,0.71,4.35,0.48c1.93-0.31,3.29-1.46,4.13-3.2c0.62-1.29,0.81-2.68,0.81-4.1
		c0-0.27-0.11-0.54,0.03-0.83c0.39,0.02,0.55,0.36,0.78,0.58c2.25,2.12,4.86,3.56,7.89,4.17c2.85,0.57,5.58,0.27,8.13-1.27
		c1.1-0.67,1.95-1.59,2.72-2.66c1.28,1.55,2.26,3.15,2.72,5.1c1.56,6.64,2.22,13.37,2.12,20.18c-0.03,1.88-0.12,3.77-0.26,5.65
		c-0.12,1.72-1.08,2.92-2.29,3.97c-0.28,0.24-0.63,0.47-1.03,0.28c-0.41-0.19-0.41-0.6-0.41-0.98c0-0.17,0-0.34,0-0.51
		c0-0.11-0.06-0.19-0.17-0.23c-0.16-0.06-0.29,0.02-0.33,0.15c-0.13,0.39-0.27,0.77-0.48,1.13c-1.09,1.86-2.67,2.08-4.23,0.59
		c-0.68-0.65-1.15-1.44-1.61-2.25C116.95,398.58,116.92,398.23,116.45,398.09z"/>
	<path class="st6" d="M95.84,400.42c-0.45,0.38-0.57,0.87-0.87,1.23c-0.42,0.51-0.85,1.11-1.58,0.97c-0.75-0.14-0.95-0.87-1.01-1.52
		c-0.2-2.23-1.1-4.21-2-6.21c-2.93-6.48-4.72-13.28-5.58-20.33c-0.34-2.8-0.54-5.59-0.33-8.41c0.06-0.76,0.16-1.52,0.26-2.41
		c0.44,0.36,0.46,0.75,0.59,1.08c2.33,5.72,6.29,9.71,12.23,11.63c1.52,0.49,3.08,0.68,4.66,0.6c0.53-0.03,0.79,0.11,0.93,0.66
		c0.47,1.94,1.18,3.79,2.06,5.58c0.31,0.64,0.4,1.29,0.33,1.99c-0.44,4.68-1.74,9.14-3.38,13.51c-0.64,1.71-1.7,3.2-3.16,4.36
		c-0.38,0.3-0.78,0.57-1.24,0.72c-0.91,0.3-1.56-0.07-1.77-1.01c-0.11-0.47-0.09-0.95-0.07-1.43
		C95.92,401.15,96.05,400.84,95.84,400.42z"/>
	<path class="st5" d="M93.61,334.08c0.54,1.06,1.07,1.91,1.34,2.89c0.07,0.26,0.02,0.46-0.02,0.69c-1.08,6.2,0.13,11.97,3.28,17.37
		c0.25,0.42,0.44,0.85,0.58,1.31c0.67,2.18,1.64,4.24,3.02,6.04c1.24,1.61,1.28,3.33,1.06,5.16c-0.1,0.85-0.38,1.67-0.83,2.41
		c-1.18,1.95-2.93,2.81-5.18,2.66c-1.58-0.1-3-0.67-4.3-1.55c-3.26-2.22-5.24-5.34-6.29-9.09c-0.11-0.38-0.08-0.73,0.03-1.1
		c0.49-1.73,0.61-3.49,0.47-5.29c-0.15-1.89,0.16-3.76,0.42-5.62c0.31-2.27,0.77-4.52,1.4-6.73
		C89.53,339.83,91.43,336.96,93.61,334.08z"/>
	<path class="st5" d="M106.55,288.35c-2.48-0.97-4.81-1.87-7.22-2.55c-0.38-0.11-0.53-0.31-0.54-0.72
		c-0.18-5.96,0.83-11.67,3.74-16.94c0.9-1.63,2.03-3.09,3.43-4.33c0.93-0.83,1.96-1.49,3.16-1.87c2.14-0.7,4.12-0.38,5.94,0.94
		c1.56,1.13,2.68,2.63,3.53,4.34c1.21,2.42,1.88,5,2.18,7.67c0.62,5.65,0.03,11.15-2.21,16.41c-0.25,0.6-0.55,1.18-0.81,1.77
		c-0.17,0.38-0.35,0.52-0.77,0.27c-0.88-0.51-1.8-0.96-2.77-1.48c0.66-0.87,1.28-1.68,1.71-2.61c1.43-3.12,1.95-6.4,1.75-9.81
		c-0.09-1.51-0.37-2.99-0.91-4.41c-0.37-0.97-0.86-1.86-1.59-2.61c-1.41-1.46-3.18-1.6-4.8-0.36c-1.03,0.78-1.77,1.8-2.36,2.94
		c-1.22,2.35-1.79,4.88-1.95,7.5c-0.11,1.72-0.01,3.42,0.38,5.11C106.47,287.8,106.49,288,106.55,288.35z"/>
	<path class="st6" d="M136.26,344.09c-0.67-0.03-1.22,0.26-1.69,0.62c-0.89,0.68-1.88,0.74-2.92,0.68
		c-0.65-0.04-1.29-0.15-1.92-0.33c-0.89-0.25-1.39-0.8-1.46-1.75c-0.07-0.96-0.03-1.91,0.17-2.86c0.5-2.35,1.42-4.5,2.93-6.38
		c0.66-0.82,0.67-0.8,1.61-0.37c2.63,1.21,5.07,2.72,7.23,4.66c1.67,1.5,3.11,3.18,4.13,5.2c0.47,0.93,0.78,1.9,0.74,2.96
		c-0.03,0.81-0.3,1.46-0.91,2.08c-2,2.04-4.41,3.44-6.94,4.68c-1.97,0.97-3.83,2.13-5.48,3.6c-0.52,0.46-1.09,0.84-1.74,1.07
		c-0.84,0.3-1.32-0.01-1.41-0.91c-0.05-0.51,0.03-1.01,0.11-1.55c-0.52,0.71-1.02,1.44-1.7,2c-0.24,0.19-0.46,0.41-0.72,0.57
		c-0.77,0.47-1.25,0.2-1.25-0.72c0-0.34,0.07-0.69,0.16-1.01c0.31-1.1,0.79-2.12,1.43-3.06c2.22-3.24,5-5.9,8.27-8.05
		C135.39,344.9,135.94,344.64,136.26,344.09z"/>
	<path class="st6" d="M157.48,347.4c-0.11-0.26,0.06-0.46,0.15-0.67c1.43-3.51,1.73-7.16,1.39-10.9c-0.27-2.95-0.99-5.77-2.58-8.46
		c6.13,3.52,12.07,12.53,13.09,22.45c-0.32,0.01-0.45-0.26-0.62-0.43c-1.36-1.24-2.88-2.2-4.66-2.71c-2.02-0.57-3.99-0.47-5.92,0.38
		c-0.28,0.12-0.52,0.34-0.85,0.31L157.48,347.4z"/>
	<path class="st6" d="M125.59,368.24c1.97,0.77,3.74,0.56,5.51-0.01c0.52-0.17,0.97-0.12,1.34,0.4c2.69,3.8,3.9,7.95,3.15,12.61
		c-0.08,0.5-0.3,0.69-0.73,0.83c-1.84,0.58-3.71,0.97-5.63,1.1c-0.99,0.07-1,0.28-1.1-0.91c-0.19-2.25-0.46-4.5-0.83-6.73
		c-0.37-2.23-0.88-4.43-1.52-6.6C125.72,368.77,125.69,368.61,125.59,368.24z"/>
	<path class="st6" d="M145.38,343.99c0.58,0.48,0.93,0.98,1.29,1.47c2.18,2.94,3.52,6.24,4.16,9.83c0.07,0.41,0.13,0.82,0,1.22
		c-0.52,1.66-1.05,3.32-1.14,5.09c-0.13-0.02-0.22-0.01-0.23-0.04c-1.18-2.24-3.12-3.6-5.39-4.52c-2.87-1.17-5.88-1.52-8.96-1.31
		c-0.27,0.02-0.54,0.04-0.82,0.07c-0.08-0.35,0.21-0.42,0.38-0.51c1.16-0.58,2.27-1.26,3.44-1.83c1.72-0.84,3.31-1.92,4.9-2.98
		c0.67-0.45,1.25-1.06,1.81-1.65c0.99-1.04,1.08-2.32,0.85-3.65C145.62,344.83,145.51,344.47,145.38,343.99z"/>
	<path class="st5" d="M76.05,284c0.35-1.51,0.43-2.9,0.38-4.3c-0.03-0.86-0.19-1.7-0.44-2.52c-0.16-0.53-0.39-1.02-0.74-1.46
		c-0.74-0.92-1.6-0.98-2.46-0.17c-0.64,0.6-1.01,1.37-1.3,2.18c-0.73,2.04-0.83,4.15-0.61,6.28c0.07,0.72,0.08,0.72-0.63,0.88
		c-0.9,0.2-1.75,0.54-2.63,1.11c-0.29-1.46-0.44-2.81-0.4-4.17c0.1-2.92,0.53-5.79,1.78-8.48c0.49-1.06,1.1-2.06,1.96-2.87
		c1.63-1.53,3.37-1.43,4.8,0.28c0.85,1.02,1.33,2.23,1.67,3.49c0.77,2.89,0.75,5.82,0.37,8.76c-0.07,0.54-0.26,0.9-0.89,0.85
		C76.67,283.87,76.44,283.94,76.05,284z"/>
	<path class="st5" d="M98.43,345.12c-0.1-0.86,0.1-1.69,0.24-2.51c0.47-2.82,1.34-5.51,2.55-8.1c0.24-0.51,0.58-0.9,1.02-1.26
		c3.16-2.51,5.98-5.33,8.13-8.77c0.19-0.31,0.43-0.52,0.74-0.68c1.38-0.7,2.81-1.23,4.38-1.47c-0.04,0.33-0.33,0.42-0.5,0.6
		c-2.25,2.34-3.74,5.05-3.99,8.34c-0.02,0.32,0,0.58-0.43,0.67c-1.76,0.38-3.2,1.36-4.54,2.5c-3.08,2.62-5.38,5.82-6.99,9.52
		c-0.16,0.38-0.31,0.76-0.47,1.14C98.56,345.12,98.5,345.12,98.43,345.12z"/>
	<path class="st6" d="M83.17,351.37c-1.9-2.65-3.47-5.36-4.94-8.14c-0.35-0.67-0.68-1.34-1.03-2.01c-0.53-1.01-0.38-1.98,0.17-2.93
		c0.8-1.37,2.13-2.09,3.49-2.75c0.31-0.15,0.53,0.06,0.72,0.25c0.82,0.84,1.47,1.77,1.78,3.11c-0.64-0.39-1.21-0.59-1.8-0.68
		c-0.27-0.04-0.54-0.06-0.81,0.01c-0.2,0.06-0.42,0.14-0.4,0.39c0.03,0.27,0.26,0.28,0.47,0.27c1.17-0.04,1.98,0.51,2.66,1.44
		c0.78,1.06,1.14,2.19,0.9,3.47c-0.23,1.24-0.54,2.47-0.71,3.73C83.5,348.79,83.34,350.04,83.17,351.37z"/>
	<path class="st5" d="M82.93,357.58c0.43,0.43,0.16,1.1,0.62,1.48c0.25-0.2,0.11-0.45,0.08-0.66c-0.4-2.91-0.11-5.81,0.26-8.7
		c0.21-1.66,0.51-3.32,0.72-4.98c0.14-1.09,0.52-2.1,0.98-3.18c0.47,0.8,0.49,1.64,0.68,2.42c0.65,2.61,0.31,5.25,0.13,7.87
		c-0.14,2.05-0.2,4.1-0.17,6.16c0.03,1.77-0.53,3.36-1.51,4.82c-0.23,0.34-0.48,0.68-0.89,0.83c-1.49,0.53-2.21,0.09-2.61-1.1
		c-0.48-1.43-0.3-2.84,0.28-4.21c0.12-0.29,0.3-0.42,0.6-0.47C82.36,357.81,82.61,357.68,82.93,357.58z"/>
	<path class="st5" d="M79.16,335.54c-0.16-0.81,0.14-1.26,0.76-1.5c0.36-0.14,0.64-0.39,0.91-0.65c3.35-3.1,7.17-5.47,11.38-7.21
		c1.07-0.44,2.19-0.8,3.41-0.72c-3.77,1.88-6.66,4.77-9.27,8.06c0.3,0.42,0.76,0.73,0.99,1.22c0.15,0.32,0.24,0.58,0.07,0.95
		c-0.26,0.59-0.4,1.23-0.63,1.84c-0.25,0.68-0.53,1.33-1.34,1.55c-0.47,0.13-0.52,0.46-0.3,0.89c0.26,0.49,0.45,1-0.08,1.55
		c-0.31-0.5-0.54-0.97-0.64-1.56c-0.26-1.57-0.75-3.06-1.88-4.25c-0.51-0.54-1.08-0.95-1.8-1.12
		C79.98,334.42,79.49,334.71,79.16,335.54z"/>
	<path class="st5" d="M123.63,357.92c-0.42-0.09-0.56-0.43-0.73-0.71c-2.36-3.88-3.68-8.07-3.73-12.63c0-0.48,0.07-0.95,0.21-1.42
		c0.09-0.3,0.26-0.38,0.53-0.26c1.46,0.67,2.92,1.35,4.38,2c0.41,0.18,0.29,0.49,0.25,0.78c-0.25,2.08-0.25,4.17-0.22,6.26
		c0.01,0.9,0.17,1.77,0.32,2.64c0.1,0.57,0.04,1.07-0.23,1.58C124.13,356.73,123.9,357.33,123.63,357.92z"/>
	<path class="st6" d="M67.12,265.58c0.42-1.51,0.83-3.02,1.26-4.53c1.06-3.69,2.43-7.26,4.3-10.62c0.63-1.14,1.34-2.23,2.21-3.2
		c0.36-0.4,0.71-0.83,1.29-1.09c0.59,1.58,1.53,2.91,2.77,4.15c-5.24,4.14-8.98,9.36-11.64,15.4
		C67.24,265.65,67.18,265.62,67.12,265.58z"/>
	<path class="st5" d="M99.76,334.91c0.33,0.57,0.26,1.05,0.05,1.56c-1.87,4.59-2.47,9.38-2.25,14.29c0.03,0.76,0.22,1.48,0.36,2.23
		c-0.39-0.35-0.53-0.84-0.71-1.3c-1.51-3.89-2.2-7.91-1.85-12.07c0.08-1,0.11-2.05,0.73-2.94c0.19-0.27,0.36-0.44,0.67-0.55
		C97.78,335.76,98.79,335.42,99.76,334.91z"/>
	<path class="st6" d="M99.97,333.22c-1.64-2.44-2.2-2.52-5.43-0.8c0.19-2.45,1.13-4.36,3.31-5.55c1.06,0.98,1.13,1.25,0.53,2.47
		c2.77-1.59,5.33-3.33,8.7-3.57c-0.75,0.78-1.37,1.4-1.97,2.04c-0.75,0.8-1.49,1.63-2.02,2.59
		C102.37,331.7,101.2,332.43,99.97,333.22z"/>
	<path class="st5" d="M102.3,339.54c0.21,0.4,0.17,0.76,0.21,1.09c0.17,1.27,0.54,2.47,1.28,3.54c0.13,0.19,0.36,0.32,0.1,0.59
		c-2.94,3.07-3.98,6.85-4.07,10.98c0,0.02-0.04,0.03-0.12,0.09c-0.34-0.27-0.57-0.61-0.68-1.06c-0.46-1.97-0.8-3.96-0.79-5.99
		c0.01-0.86,0.3-1.68,0.56-2.49C99.55,343.92,101.07,340.99,102.3,339.54z"/>
	<path class="st5" d="M88.68,340.4c-0.05-1.06-0.05-2.08-0.15-3.1c-0.12-1.3-0.34-2.6-1.25-3.62c-0.33-0.37-0.03-0.55,0.15-0.77
		c1.96-2.36,4.19-4.42,6.76-6.1c0.37-0.24,0.77-0.45,1.18-0.62c0.33-0.14,0.76-0.47,1.03-0.13c0.31,0.4-0.24,0.63-0.44,0.91
		c-2.69,3.93-5.23,7.95-6.75,12.51c-0.1,0.29-0.21,0.57-0.33,0.86C88.88,340.37,88.82,340.37,88.68,340.4z"/>
	<path class="st5" d="M112.21,279.48c0.03-1.15,0.15-2.34,0.55-3.48c0.18-0.52,0.43-1.01,0.81-1.41c0.7-0.72,1.52-0.63,2.03,0.25
		c0.73,1.26,0.85,2.67,0.82,4.08c-0.03,1.38-0.25,2.73-0.93,3.96c-0.3,0.55-0.65,1.13-1.35,1.12c-0.76-0.01-1.1-0.63-1.37-1.24
		C112.3,281.73,112.23,280.63,112.21,279.48z"/>
	<path class="st6" d="M125.26,354.35c-0.62-2.97-0.45-5.91-0.07-8.98c1.03,0.41,2,0.79,2.96,1.19c0.42,0.18,0.83,0.31,1.29,0.27
		c0.35-0.03,0.75-0.12,0.83-0.49c0.12-0.52,0.38-0.55,0.8-0.42c0.38,0.12,0.81,0.03,1.24,0.31
		C129.48,348.54,127.22,351.29,125.26,354.35z"/>
	<path class="st5" d="M107.84,366.95c0.74,0.09,1.48,0.18,2.23,0.25c1.51,0.15,2.99,0.04,4.44-0.43c0.69-0.23,1.36,0,1.79,0.61
		c0.29,0.41,0.53,0.86,0.85,1.38C113.75,369.42,110.7,368.72,107.84,366.95z"/>
	<path class="st5" d="M88.04,337.67c0.39,2.77,0.02,6.08-0.86,8.87c-0.37-1.19-0.4-2.38-0.64-3.53c-0.24-1.14-0.65-2.22-1.07-3.32
		C86.41,339.18,87.26,338.57,88.04,337.67z"/>
	<path class="st5" d="M97.27,331.69c0.96,0,1.88,0.72,2.13,1.59c0.08,0.26-0.04,0.38-0.23,0.49c-0.86,0.49-1.75,0.92-2.74,1.06
		c-0.72,0.11-1.6-0.56-1.74-1.26c-0.05-0.24-0.07-0.47,0.14-0.66C95.57,332.28,96.33,331.71,97.27,331.69z"/>
	<path class="st5" d="M73.67,278.95c0-0.71,0.06-1.35,0.44-1.91c0.4-0.59,0.97-0.58,1.25,0.07c0.5,1.15,0.49,2.33-0.1,3.45
		c-0.36,0.68-0.92,0.63-1.29-0.06C73.7,279.99,73.69,279.45,73.67,278.95z"/>
	<path class="st5" d="M104.94,339.53c0.17,0.07,0.32,0.14,0.48,0.2c0.51,0.2,1.01,0.41,1.52,0.59c0.67,0.24,0.9,0.79,0.57,1.4
		c-0.76,1.41-0.76,1.41-2.25,0.77c-0.36-0.15-0.83-0.21-0.89-0.73c-0.08-0.72-0.06-1.44,0.31-2.09
		C104.72,339.6,104.85,339.58,104.94,339.53z"/>
	<path class="st6" d="M93.82,331.29c-0.02,0.1-0.05,0.2-0.04,0.3c0.05,1.46-0.63,2.57-1.56,3.63c-0.67,0.76-1.15,1.68-1.75,2.51
		C91.25,335.44,92.35,333.3,93.82,331.29z"/>
	<path class="st5" d="M108,340.94c-0.3-1.01-0.04-1.68,0.82-2.06c0.86-0.38,1.97,0.01,2.49,0.87c0.45,0.74,0.31,1.61-0.33,2.13
		c-0.69,0.55-1.56,0.49-2.27-0.15c0.26-0.22,0.52,0,0.78,0.01c0.73,0.03,1.34-0.41,1.44-1.05c0.1-0.63-0.39-1.27-1.07-1.41
		c-0.72-0.14-1.38,0.27-1.57,0.98C108.22,340.5,108.38,340.83,108,340.94z"/>
	<path class="st5" d="M107.9,326.02c-1.01,1.61-2.34,2.9-3.85,4.04C105.11,328.49,106.37,327.12,107.9,326.02z"/>
	<path class="st5" d="M110.6,340.47c0.01,0.52-0.43,0.96-0.98,0.95c-0.54,0-1.02-0.43-1.03-0.92c-0.01-0.52,0.43-0.95,0.99-0.94
		C110.16,339.56,110.59,339.95,110.6,340.47z"/>
	<path class="st5" d="M87.61,335.91c0.43,0.78,0.31,1.25-0.49,2.02c-0.15-0.4,0.1-0.72,0.19-1.05
		C87.38,336.55,87.5,336.25,87.61,335.91z"/>
	<path class="st6" d="M133.79,332.11c0.04-0.13,0.11-0.13,0.21-0.05c0,0.16,0,0.32,0,0.47c-0.03,0-0.06,0.01-0.09,0.01
		C133.87,332.4,133.83,332.25,133.79,332.11z"/>
	<polygon class="st6" points="157.46,347.38 157.43,347.41 157.48,347.4 	"/>
	<path class="st4" d="M103.48,313.71c3.4-0.35,6.52-1.47,9.35-3.39c1.11-0.76,2.09-1.67,2.8-2.82c0.63-1.01,0.94-2.05,0.32-3.19
		c-0.09-0.17-0.21-0.4,0.07-0.51c0.2-0.07,0.3,0.12,0.39,0.26c0.54,0.85,0.52,1.75,0.19,2.66c-0.46,1.27-1.35,2.21-2.37,3.04
		c-2.47,2-5.31,3.21-8.39,3.88c-1.78,0.38-3.58,0.56-5.4,0.29c0.44-0.02,0.87-0.04,1.3-0.07
		C102.33,313.81,102.93,313.98,103.48,313.71z"/>
	<path class="st4" d="M103.48,313.71c-0.56,0.27-1.15,0.1-1.73,0.15c-0.43,0.04-0.87,0.05-1.3,0.07c-0.55-0.02-1.08-0.17-1.6-0.35
		c-0.25-0.09-0.54-0.12-0.82-0.54C99.89,313.78,101.68,313.8,103.48,313.71z"/>
	<path class="st4" d="M87.77,265.58c-0.34,1.41-0.59,2.68-0.77,3.96c-0.08,0.58-0.15,1.16-0.03,1.74c0.09,0.41,0.36,0.49,0.66,0.19
		c0.19-0.19,0.34-0.43,0.47-0.67c0.84-1.61,1.65-3.23,2.51-4.83c0.29-0.54,0.69-1.01,1.01-1.53c2.24-3.54,4.7-6.91,7.73-9.82
		c1.44-1.38,2.96-2.65,4.69-3.65c1.17-0.67,2.38-1.2,3.74-1.35c2.21-0.24,3.96,0.67,5.04,2.62c0.47,0.85,0.7,1.78,0.93,2.71
		c0.05,0.18,0.03,0.33-0.13,0.45c-0.14,0.1-0.26,0.02-0.37-0.06c-1.52-1-3.19-0.91-4.86-0.62c-1.84,0.32-3.53,1.07-5.13,2.02
		c-3.37,1.99-6.2,4.62-8.76,7.54c-1.54,1.75-2.98,3.57-4.18,5.58c-0.59,0.99-1.19,2.01-2.15,2.72c-0.11,0.08-0.21,0.17-0.33,0.25
		c-1.01,0.64-1.81,0.27-1.96-0.93c-0.09-0.72-0.07-1.44,0.05-2.15c0.16-0.98,0.37-1.95,0.67-2.9
		C86.81,266.15,86.81,266.15,87.77,265.58z"/>
	<path class="st4" d="M85.9,266.51c-0.03,0.78-0.34,1.4-0.51,2.05c-0.24,0.93-0.31,1.89-0.46,2.83c-0.1,0.6-0.31,1.15-0.96,1.34
		c-0.68,0.19-1.21-0.15-1.62-0.64c-0.5-0.6-0.92-1.25-0.76-2.12c0.44,0.06,0.53,0.47,0.8,0.66c0.72,0.5,1.28,0.33,1.53-0.51
		c0.26-0.85,0.52-1.7,0.76-2.55C84.85,266.98,85.14,266.57,85.9,266.51z"/>
	<path class="st4" d="M84.16,264.35c0.19,0.53,0.52,0.6,1.04,0.41c1.85-0.66,3.64-1.4,5.18-2.66c0.16-0.13,0.32-0.34,0.52-0.17
		c0.24,0.19,0.09,0.42-0.01,0.65c-0.09,0.2-0.25,0.32-0.42,0.43c-1.35,0.88-2.69,1.77-4.04,2.64c-0.61,0.39-1.29,0.64-2,0.79
		c-0.39,0.09-0.76,0.07-1.04-0.26c-0.31-0.36-0.1-0.71,0.08-1.04C83.62,264.87,83.72,264.57,84.16,264.35z"/>
	<path class="st4" d="M108.04,359.01c2.8,1.14,5.5,1.17,8.19-0.1c0.57-0.27,1.01-0.69,1.37-1.2c0.44-0.63,0.68-0.63,1.05,0.04
		c0.47,0.87,1,1.74,0.48,2.79c-0.12,0.24-0.2,0.48-0.49,0.62c-0.3,0.14-0.57,0.37-0.84,0.58c-1.25,0.98-2.59,1.62-4.24,1.44
		c-0.74-0.08-1.5-0.04-2.26,0c-0.55,0.02-1-0.15-1.4-0.51c-0.83-0.74-1.43-1.64-1.87-2.66C107.9,359.68,107.83,359.35,108.04,359.01
		z M118.13,357.8c-2.87,2.89-6.22,2.8-9.82,1.83c0.28,1.09,0.97,1.8,1.6,2.54c0.4,0.48,0.9,0.69,1.53,0.67
		c0.99-0.03,1.99-0.05,2.98,0c0.94,0.05,1.75-0.2,2.46-0.79c0.26-0.22,0.55-0.4,0.82-0.62c1.48-1.24,1.58-1.83,0.57-3.49
		C118.23,357.88,118.17,357.84,118.13,357.8z"/>
	<path class="st5" d="M118.13,357.8c0.04,0.04,0.1,0.08,0.14,0.14c1.01,1.66,0.91,2.25-0.57,3.49c-0.26,0.22-0.55,0.4-0.82,0.62
		c-0.72,0.6-1.52,0.84-2.46,0.79c-0.99-0.05-1.98-0.03-2.98,0c-0.63,0.02-1.13-0.19-1.53-0.67c-0.63-0.75-1.31-1.45-1.6-2.54
		C111.91,360.6,115.26,360.69,118.13,357.8z"/>
</g>
<g>
	<path class="st5" d="M805.13,282.68c-0.07,0.16-0.18,0.31-0.2,0.47c-0.53,3.87-1.26,7.71-2.02,11.55
		c-0.78,3.98-1.54,7.96-2.31,11.93c-1.23,6.34-2.62,12.64-4.31,18.87c-1.02,3.74-2.86,7.03-5.65,9.75c-0.72,0.7-1.48,1.37-2.29,1.95
		c-3.09,2.19-6.5,3.62-10.3,4.07c-1.54,0.18-3.07,0.3-4.61,0.3c-15.07,0-30.14,0-45.22,0c-2.05,0-4.08-0.18-6.06-0.78
		c-5.19-1.56-8.14-5.11-9.19-10.35c-0.28-1.42-0.3-2.85-0.28-4.29c0.04-3.06,0.44-6.08,1.06-9.07c1.72-8.36,3.47-16.71,5.2-25.07
		c0.75-3.62,1.49-7.24,2.22-10.86c0.61-3.01,1.58-5.88,3.22-8.5c3.76-6.01,9.16-9.55,16.15-10.68c0.99-0.16,1.99-0.24,2.99-0.35
		c0.36-0.04,0.72-0.05,1.07-0.03c3.94,0.27,7.88,0.33,11.83,0.32c9.76-0.04,19.52-0.11,29.28-0.15c1.33-0.01,2.66,0.02,3.98,0.06
		c1.22,0.04,2.44,0.09,3.66,0.17c1.51,0.11,2.98,0.45,4.39,1.01c2.64,1.04,4.64,2.82,5.98,5.32c0.54,1.01,1.02,2.06,1.22,3.2
		c0.02,0.13,0.12,0.25,0.19,0.38C805.13,275.51,805.13,279.09,805.13,282.68z M754.82,325.55c0-0.02,0-0.04,0-0.06
		c1.97-0.06,3.95-0.08,5.92-0.2c2.39-0.14,4.17-1.24,5.04-3.55c0.34-0.9,0.62-1.84,0.8-2.78c0.95-4.89,1.87-9.79,2.8-14.68
		c0.91-4.79,1.82-9.58,2.71-14.37c0.45-2.4,0.89-4.79,1.27-7.2c0.14-0.84,0.17-1.72,0.14-2.57c-0.05-1.42-0.71-2.26-2.09-2.65
		c-0.75-0.21-1.55-0.34-2.33-0.35c-3.52-0.04-7.03-0.03-10.55-0.01c-1.15,0.01-2.28,0.18-3.38,0.56c-1.4,0.49-2.4,1.39-3.01,2.74
		c-0.4,0.89-0.65,1.82-0.85,2.77c-1,4.88-2.02,9.76-2.99,14.65c-1.3,6.54-2.55,13.09-3.83,19.63c-0.29,1.49-0.38,2.99-0.37,4.5
		c0.01,1.47,0.73,2.44,2.07,2.95c0.43,0.17,0.88,0.31,1.34,0.38c0.81,0.12,1.64,0.21,2.46,0.23
		C751.59,325.57,753.21,325.55,754.82,325.55z"/>
	<path class="st5" d="M440.39,261.37c-0.02,0.43,0.01,0.87-0.06,1.28c-0.92,5.26-1.86,10.52-2.79,15.78
		c-0.05,0.28-0.14,0.56-0.23,0.92c-0.17-0.09-0.31-0.15-0.44-0.24c-0.09-0.06-0.15-0.15-0.21-0.24c-0.67-1.01-1.69-1.42-2.83-1.55
		c-0.89-0.1-1.79-0.18-2.68-0.19c-8.11-0.02-16.22-0.04-24.33-0.02c-2.73,0.01-5.45,0.11-8.18,0.22c-0.93,0.04-1.86,0.18-2.76,0.39
		c-1.72,0.4-2.85,1.49-3.3,3.19c-0.32,1.21-0.58,2.44-0.81,3.67c-1.44,7.72-2.88,15.44-4.3,23.16c-0.65,3.53-1.25,7.06-1.86,10.6
		c-0.2,1.17-0.24,2.35,0.04,3.53c0.35,1.48,1.25,2.47,2.64,3.04c1.01,0.41,2.07,0.62,3.15,0.62c2.01,0.01,4.02-0.05,6.03-0.07
		c1-0.01,2.01-0.01,3.01,0.01c1.83,0.02,3.66,0.09,5.49,0.08c1.68-0.01,1.99-0.21,2.49-1.93c0.32-1.1,0.48-2.24,0.67-3.37
		c0.31-1.8,0.59-3.61,0.88-5.41c0.02-0.1,0-0.21,0-0.39c-0.54,0.01-1.05,0.15-1.57,0.19c-0.57,0.04-1.14,0.11-1.71,0.18
		c-0.53,0.06-1.07,0.12-1.6,0.18c-0.53,0.06-1.07,0.12-1.6,0.18c-0.53,0.06-1.07,0.11-1.6,0.17c-0.57,0.06-1.14,0.14-1.71,0.2
		c-0.53,0.05-1.07,0.07-1.52,0.1c-0.36-0.32-0.29-0.66-0.3-0.98c-0.05-1.95,0.21-3.87,0.55-5.77c0.27-1.48,0.62-2.95,1.2-4.35
		c0.33-0.79,0.71-1.57,1.15-2.3c0.29-0.48,0.7-0.91,1.11-1.3c0.59-0.56,1.32-0.85,2.15-0.84c0.29,0.01,0.57,0,0.86,0
		c5.78,0,11.55-0.01,17.33,0c3.52,0.01,7.03,0.06,10.55,0.1c0.61,0.01,1.22,0.06,1.82,0.15c1.18,0.17,2.19,0.68,2.97,1.59
		c1.14,1.36,1.82,2.89,1.87,4.7c0.06,2.17-0.21,4.3-0.53,6.43c-1.01,6.67-2.25,13.29-3.49,19.92c-0.35,1.87-0.61,3.75-0.93,5.63
		c-0.1,0.6-0.25,1.19-0.43,1.77c-0.2,0.68-0.68,1.08-1.4,1.16c-0.39,0.04-0.79,0.08-1.18,0.08c-20.2-0.01-40.41-0.02-60.61-0.03
		c-1.4,0-2.8,0.03-4.2,0.01c-1.33-0.02-2.65-0.07-3.96-0.34c-1.97-0.4-3.61-1.36-4.92-2.88c-1.45-1.67-2.32-3.62-2.73-5.77
		c-0.36-1.87-0.45-3.77-0.33-5.68c0.18-3.09,0.73-6.12,1.26-9.16c0.68-3.92,1.37-7.84,2.08-11.76c0.9-5.01,1.8-10.02,2.72-15.03
		c0.64-3.45,1.31-6.9,2-10.35c0.5-2.5,1.13-4.96,2.11-7.33c0.48-1.16,1.05-2.28,1.73-3.34c1.44-2.24,3.26-4.09,5.57-5.44
		c1.96-1.15,3.99-2.11,6.22-2.61c0.54-0.12,1.14-0.16,1.6-0.55C400.48,261.37,420.43,261.37,440.39,261.37z"/>
	<path class="st5" d="M615.18,304.98c0.11-0.48,0.2-0.79,0.26-1.1c1.38-7.84,2.73-15.68,4.15-23.52c0.61-3.39,1.35-6.75,2.03-10.12
		c0.13-0.67,0.24-1.34,0.3-2.02c0.16-1.89-0.31-3.63-1.33-5.22c-0.13-0.2-0.24-0.42-0.35-0.59c0.15-0.27,0.34-0.21,0.51-0.22
		c0.29-0.01,0.57-0.01,0.86-0.01c11.63,0,23.25,0,34.88,0c0.43,0,0.85,0.01,1.25,0.02c0.19,0.43-0.02,0.69-0.22,0.93
		c-0.25,0.3-0.55,0.57-0.8,0.87c-1.09,1.27-1.82,2.74-2.33,4.33c-0.83,2.56-1.48,5.17-2.08,7.79c-1.28,5.59-2.35,11.23-3.28,16.89
		c-0.85,5.17-1.69,10.33-2.5,15.5c-0.63,3.97-1.19,7.94-1.82,11.91c-0.64,4.04-1.34,8.06-2.01,12.1c-0.14,0.85-0.32,1.69-0.46,2.54
		c-0.14,0.82-0.15,1.64,0.07,2.46c0.2,0.76,0.4,1.53,0.59,2.29c0.13,0.52,0.25,1.04,0.09,1.62c-0.21,0.05-0.41,0.13-0.62,0.15
		c-0.28,0.03-0.57,0.02-0.86,0.02c-11.27,0-22.53,0-33.8,0c-0.29,0-0.58,0.01-0.86-0.02c-0.17-0.02-0.33-0.1-0.55-0.17
		c0.15-0.31,0.26-0.56,0.4-0.81c0.9-1.68,1.81-3.34,2.7-5.02c0.49-0.93,0.79-1.92,0.94-2.96c0.19-1.28-0.01-2.51-0.57-3.67
		c-0.31-0.64-0.67-1.27-1.06-1.87c-0.46-0.72-0.97-1.42-1.47-2.12c-8.61-11.93-17.21-23.85-25.82-35.78
		c-1.01-1.4-2.01-2.79-3.04-4.17c-0.29-0.4-0.61-0.78-1.1-1.07c-0.24,0.23-0.27,0.52-0.31,0.79c-0.6,3.28-1.19,6.56-1.78,9.84
		c-0.83,4.59-1.66,9.17-2.49,13.76c-0.75,4.16-1.49,8.33-2.24,12.49c-0.67,3.74-1.36,7.48-2.03,11.22c-0.18,1.02-0.39,2.05-0.5,3.08
		c-0.07,0.67-0.04,1.37,0.07,2.03c0.14,0.88,0.41,1.74,0.6,2.62c0.08,0.38,0.12,0.78,0.14,1.17c0.01,0.28-0.19,0.47-0.46,0.5
		c-0.25,0.03-0.5,0.02-0.75,0.02c-10.66,0-21.31,0-31.97,0c-0.28,0-0.57,0-0.8,0c-0.21-0.24-0.11-0.4,0.02-0.53
		c1.18-1.08,1.77-2.51,2.31-3.96c0.88-2.39,1.54-4.85,2.15-7.32c1.26-5.12,2.32-10.28,3.26-15.47c0.93-5.08,1.84-10.16,2.71-15.25
		c0.71-4.13,1.35-8.28,2.04-12.42c0.82-4.92,1.67-9.83,2.47-14.75c0.24-1.52,0.37-3.06,0.49-4.6c0.09-1.12-0.13-2.21-0.45-3.29
		c-0.11-0.38-0.22-0.76-0.29-1.15c-0.08-0.44,0.08-0.68,0.54-0.77c0.42-0.08,0.86-0.14,1.28-0.11c3.91,0.31,7.82,0.19,11.73,0.2
		c2.62,0.01,5.24-0.01,7.86-0.04c1.69-0.02,3.37-0.09,5.06-0.12c1.83-0.03,3.66-0.05,5.49-0.04c1.97,0.02,3.53,0.84,4.61,2.51
		c0.08,0.12,0.16,0.24,0.25,0.35c1.83,2.62,3.65,5.24,5.48,7.86c5.86,8.42,11.68,16.87,17.72,25.17c1.37,1.88,2.8,3.73,4.22,5.58
		C614.06,303.86,614.5,304.38,615.18,304.98z"/>
	<path class="st5" d="M272.03,283.78c-0.12,0.41-0.19,0.61-0.23,0.81c-1.38,7.66-2.76,15.31-4.14,22.97
		c-1.47,8.15-2.96,16.3-4.43,24.45c-0.17,0.95-0.32,1.91-0.46,2.87c-0.13,0.9-0.11,1.79,0.11,2.67c0.13,0.56,0.27,1.11,0.41,1.67
		c0.08,0.31,0.16,0.62,0.23,0.94c0.21,1.06,0.03,1.29-1.04,1.29c-5.49,0-10.98,0-16.47,0c-5.13,0-10.26,0-15.39,0
		c-0.38,0-0.77,0.05-1.23-0.08c0.08-0.18,0.1-0.33,0.19-0.42c1.11-1.04,1.71-2.37,2.23-3.76c0.86-2.29,1.5-4.64,2.1-7
		c1.25-4.94,2.27-9.93,3.2-14.93c0.89-4.72,1.73-9.45,2.55-14.19c0.78-4.52,1.49-9.06,2.24-13.58c0.87-5.27,1.75-10.54,2.64-15.81
		c0.24-1.42,0.41-2.84,0.48-4.27c0.05-1.15-0.09-2.29-0.42-3.4c-0.12-0.41-0.25-0.82-0.32-1.25c-0.08-0.46,0.08-0.7,0.52-0.79
		c0.38-0.08,0.78-0.14,1.17-0.12c6.63,0.43,13.27,0.13,19.91,0.16c1.61,0.01,3.23-0.09,4.84-0.12c1.69-0.03,3.37-0.04,5.06-0.06
		c0.25,0,0.5,0.02,0.75,0.03c1.8,0.1,3.21,0.9,4.24,2.39c1.51,2.19,3.03,4.36,4.56,6.53c5.89,8.4,11.77,16.81,17.69,25.19
		c1.63,2.31,3.37,4.56,5.08,6.82c0.43,0.57,0.91,1.11,1.38,1.65c0.13,0.15,0.31,0.26,0.56,0.46c0.11-0.44,0.22-0.77,0.28-1.11
		c0.54-3.07,1.07-6.15,1.61-9.22c0.61-3.5,1.23-6.99,1.85-10.49c0.81-4.63,1.68-9.24,2.68-13.83c0.11-0.53,0.23-1.05,0.29-1.59
		c0.24-1.92-0.16-3.71-1.12-5.38c-0.18-0.3-0.36-0.6-0.51-0.86c0.11-0.29,0.31-0.25,0.48-0.25c0.29-0.01,0.57-0.01,0.86-0.01
		c11.63,0,23.25,0,34.88,0c0.43,0,0.85,0.01,1.36,0.02c-0.05,0.27-0.06,0.48-0.14,0.66c-0.09,0.19-0.24,0.36-0.39,0.5
		c-1.5,1.47-2.45,3.27-3.02,5.26c-0.7,2.45-1.37,4.9-1.95,7.38c-1.3,5.52-2.34,11.08-3.26,16.68c-0.93,5.63-1.83,11.25-2.72,16.89
		c-0.69,4.39-1.32,8.79-2.02,13.18c-0.63,3.93-1.32,7.85-2.01,11.77c-0.21,1.19-0.24,2.35,0.09,3.51c0.2,0.69,0.37,1.39,0.55,2.08
		c0.11,0.42,0.17,0.84,0.03,1.3c-0.22,0.06-0.42,0.14-0.62,0.16c-0.32,0.03-0.65,0.02-0.97,0.02c-11.23,0-22.46,0-33.69,0
		c-0.45,0-0.94,0.12-1.41-0.21c0.12-0.25,0.24-0.51,0.37-0.75c0.91-1.71,1.85-3.4,2.74-5.12c0.57-1.09,0.91-2.26,0.97-3.5
		c0.05-1.06-0.14-2.07-0.61-3.03c-0.25-0.51-0.52-1.03-0.83-1.51c-0.48-0.76-0.99-1.5-1.51-2.22c-8.1-11.23-16.21-22.45-24.32-33.68
		c-1.01-1.4-1.98-2.82-2.99-4.21c-0.61-0.84-1.24-1.67-1.88-2.49C272.8,284.53,272.48,284.25,272.03,283.78z"/>
	<path class="st5" d="M523.29,322.35c-0.09,0.4-0.15,0.71-0.23,1.02c-1.45,5.51-2.91,11.02-4.37,16.53
		c-0.34,1.29-0.55,1.44-1.85,1.44c-9.4-0.01-18.8-0.14-28.2,0c-7.61,0.11-15.21,0.01-22.82,0.14c-3.12,0.05-6.24,0.11-9.36,0.11
		c-1.11,0-2.22-0.07-3.31-0.34c-3.73-0.91-5.95-3.27-6.71-7.02c-0.38-1.85-0.26-3.72-0.12-5.58c0.36-4.84,1.27-9.59,2.15-14.36
		c0.47-2.57,0.9-5.16,1.36-7.73c0.47-2.65,0.96-5.29,1.41-7.94c0.5-2.93,0.96-5.87,1.45-8.81c0.79-4.74,1.66-9.46,2.8-14.14
		c0.69-2.84,1.98-5.37,3.86-7.6c0.68-0.8,1.42-1.52,2.25-2.15c1.6-1.22,3.28-2.31,5.12-3.16c1-0.46,2.02-0.71,3.12-0.72
		c2.8-0.04,5.6-0.1,8.4-0.14c1.15-0.02,2.3,0,3.44,0c13.03-0.04,26.05-0.07,39.08-0.11c0.75,0,1.51,0.01,2.26,0.01
		c2.09,0,3.85,0.79,5.31,2.23c1.76,1.73,2.88,3.82,3.36,6.25c0.29,1.45,0.32,2.92,0.29,4.39c-0.06,2.77-0.5,5.5-1.05,8.21
		c-0.91,4.54-1.74,9.08-2.51,13.65c-0.5,2.97-1.06,5.93-1.58,8.9c-0.18,1.02-0.35,2.05-0.53,3.07c-0.06,0.32-0.11,0.64-0.2,0.95
		c-0.19,0.73-0.44,0.93-1.21,0.98c-0.25,0.02-0.5,0.01-0.75,0.01c-14,0-27.99,0-41.99,0c-0.75,0-1.51-0.01-2.26,0
		c-0.29,0-0.57,0-0.86,0.03c-0.64,0.05-1.09,0.36-1.24,1c-0.17,0.7-0.36,1.39-0.46,2.1c-0.23,1.67-0.45,3.34-0.61,5.02
		c-0.1,1.11-0.01,2.22,0.27,3.31c0.47,1.82,1.55,3.12,3.28,3.87c1.23,0.53,2.53,0.81,3.83,1.04c2.44,0.44,4.91,0.67,7.39,0.62
		c2.8-0.05,5.6-0.08,8.39-0.22c6.34-0.3,12.52-1.53,18.55-3.5c1.09-0.36,2.17-0.74,3.27-1.08
		C522.17,322.47,522.64,322.23,523.29,322.35z M481,293.98c0.49,0,0.84,0,1.2,0c6.92,0,13.85,0,20.77,0c1.4,0,1.43-0.01,1.69-1.36
		c0.53-2.78,1.05-5.57,1.54-8.36c0.19-1.13,0.3-2.27,0.1-3.43c-0.23-1.37-0.94-2.39-2.17-3.02c-0.44-0.23-0.93-0.39-1.41-0.53
		c-3.25-0.93-6.57-1.11-9.92-0.78c-1.43,0.14-2.84,0.37-4.22,0.79c-1.1,0.34-2.16,0.77-3.1,1.46c-0.89,0.66-1.56,1.48-1.86,2.56
		c-0.26,0.93-0.57,1.85-0.77,2.8c-0.61,2.98-1.19,5.98-1.77,8.97C481.04,293.33,481.04,293.58,481,293.98z"/>
	<path class="st5" d="M212.84,341.47c-0.51,0.18-0.9,0.13-1.29,0.13c-7.1,0.02-14.2,0.06-21.31,0.05c-3.84,0-7.68-0.08-11.51-0.12
		c-0.39,0-0.78-0.05-1.11-0.07c-0.25-0.3-0.18-0.54-0.08-0.77c0.06-0.13,0.14-0.25,0.22-0.37c1.7-2.75,2.74-5.76,3.37-8.91
		c0.47-2.35,0.84-4.73,1.28-7.09c0.61-3.28,1.24-6.55,1.87-9.82c1.04-5.46,2.11-10.91,3.13-16.37c0.86-4.58,1.69-9.16,2.49-13.75
		c0.75-4.34,1.44-8.7,1.96-13.08c0.13-1.14,0.21-2.29,0.28-3.43c0.07-1.15,0.04-2.29-0.26-3.42c-0.12-0.44-0.14-0.92-0.16-1.38
		c-0.01-0.34,0.18-0.54,0.51-0.58c0.28-0.04,0.57-0.04,0.86-0.04c10.8,0,21.59,0,32.39,0c0.42,0,0.86-0.07,1.27,0.24
		c-0.1,0.18-0.16,0.35-0.28,0.48c-2.19,2.46-3.36,5.4-3.99,8.58c-0.42,2.11-0.72,4.24-1.05,6.36c-0.41,2.62-0.75,5.25-1.19,7.87
		c-0.65,3.92-1.34,7.84-2.05,11.76c-0.8,4.37-1.65,8.73-2.48,13.1c-1.2,6.3-2.39,12.61-3.59,18.91c-0.25,1.3-0.51,2.6-0.72,3.91
		c-0.19,1.17-0.32,2.34-0.19,3.53c0.13,1.16,0.47,2.24,1.05,3.25C212.44,340.72,212.61,341.04,212.84,341.47z"/>
	<path class="st5" d="M673.58,262.53c0.86-0.12,35.02-0.14,36.12-0.02c0,0.13,0.03,0.28-0.01,0.4c-0.06,0.16-0.16,0.32-0.27,0.46
		c-1.89,2.45-3.06,5.25-3.98,8.18c-0.8,2.54-1.35,5.13-1.72,7.76c-0.59,4.19-1.3,8.36-2.05,12.52c-0.69,3.84-1.36,7.69-2.04,11.54
		s-1.36,7.69-2.04,11.54c-0.68,3.85-1.37,7.69-2.04,11.54c-0.26,1.48-0.55,2.96-0.75,4.45c-0.35,2.65-0.38,5.3,0.31,7.9
		c0.19,0.73,0.48,1.42,0.72,2.14c0.05,0.16,0.1,0.32,0.18,0.56c-0.24,0.03-0.41,0.07-0.58,0.08c-0.54,0.01-1.08,0.01-1.61,0.01
		c-9.08,0-18.15,0-27.23,0c-1.43,0-2.87,0.03-4.3,0.05c-0.39,0-0.79,0.02-1.18-0.01c-0.61-0.06-0.8-0.35-0.64-0.96
		c0.07-0.28,0.18-0.55,0.29-0.81c0.29-0.66,0.57-1.32,0.89-1.96c1.64-3.26,2.65-6.73,3.31-10.31c1.28-6.98,2.58-13.96,3.84-20.94
		c1.03-5.71,2.01-11.44,3.02-17.16c0.7-3.95,1.41-7.9,2.09-11.86c0.34-2.01,0.68-4.03,0.91-6.06c0.28-2.45,0.1-4.87-0.74-7.22
		c-0.14-0.41-0.29-0.81-0.41-1.22C673.59,262.95,673.6,262.74,673.58,262.53z"/>
</g>
</svg>
