<svg id="Layer_1" data-name="Layer 1" xmlns="http://www.w3.org/2000/svg" viewBox="0 0 628.13 149.52"><defs><style>.cls-1{fill:#e92529;}.cls-2{fill:#fefbfb;}.cls-3{fill:#fefcfc;}.cls-4{fill:#fefafa;}.cls-5{fill:#040606;}</style></defs><title>Logo Ingenio Hitam Tanpa Raccon</title><rect class="cls-1" y="95.56" width="627.74" height="53.95"/><path class="cls-2" d="M447-416.53a3.06,3.06,0,0,0-.15,1.34q0,9.19,0,18.41,0,.48,0,1a.29.29,0,0,1-.28.28l-.43,0h-5.6a.87.87,0,0,1-.62-.14,3.13,3.13,0,0,1-.06-1.06v-28.21c0-1.24-.13-1.19,1.13-1.18,2.44,0,4.89,0,7.32,0a1.38,1.38,0,0,1,1.44.82c2.13,3.91,4.31,7.78,6.47,11.67l2.31,4.13c.09.16.19.3.28.45.35-.1.21-.37.21-.54q0-4.84,0-9.69v-5.82c0-.21,0-.43,0-.64a.33.33,0,0,1,.34-.34,4.61,4.61,0,0,1,.53,0h5.71c.36,0,.45.11.47.44s0,.43,0,.65v28.42c0,1.07.13,1.09-1,1.09-1.85,0-3.7,0-5.55,0a1.35,1.35,0,0,1-1.22-.71q-3.71-6.74-7.47-13.45C449.53-411.89,448.29-414.11,447-416.53Z" transform="translate(-132.1 533.74)"/><path class="cls-3" d="M233.79-408.86v-16.23c0-1.49-.18-1.21,1.72-1.25,1.31,0,2.62,0,3.94,0,.41,0,.82,0,1.23,0a.37.37,0,0,1,.36.35c0,.26,0,.52,0,.78v29c0,1.25,0,.89-2.11,1-1.2.06-2.41,0-3.62,0-2.11-.08-1.74.23-2.34-.86q-4.23-7.59-8.44-15.18c-.85-1.52-1.68-3-2.53-4.55a7.11,7.11,0,0,0-.47-.74s-.12,0-.18,0-.08.05-.08.07a7.67,7.67,0,0,0,.16,2.57,23.44,23.44,0,0,1,.52,11.46c-1.69,7.82.55,7.2-2.22,7.22h-4.43c-.29,0-.59,0-.88,0a.33.33,0,0,1-.35-.34c0-.26,0-.52,0-.78v-28.89c0-1.13-.07-1.1,1.07-1.1,2.59,0,5.17,0,7.76,0a1.28,1.28,0,0,1,1.29.77q4.11,7.47,8.28,14.9c.35.64.72,1.28,1.08,1.91Z" transform="translate(-132.1 533.74)"/><path class="cls-2" d="M289.82-410.79v-14c0-.32,0-.64,0-1a.32.32,0,0,1,.33-.34c.25,0,.5,0,.75,0,2.8,0,5.6,0,8.4,0a40.5,40.5,0,0,1,6.32.5,13.64,13.64,0,0,1,10.7,9.49,17.33,17.33,0,0,1-.27,11.2,13.64,13.64,0,0,1-8.92,8.55,19.28,19.28,0,0,1-4.77.74c-1.29.08-2.58.1-3.87.11-2.51,0-5,0-7.54,0a8,8,0,0,1-.85,0,.29.29,0,0,1-.28-.28c0-.32,0-.64,0-1Zm7.26,0v8.18c0,.25,0,.5,0,.76,0,.53.08.6.65.58,1.22,0,2.44-.07,3.66-.12a7,7,0,0,0,5.88-3.43,9.4,9.4,0,0,0,1.31-3.4,14.93,14.93,0,0,0,.2-3.13,11.49,11.49,0,0,0-.49-3.2A7.52,7.52,0,0,0,302-420.2a30.93,30.93,0,0,0-4.41-.18h-.1a.32.32,0,0,0-.35.32c0,.28,0,.57,0,.86Z" transform="translate(-132.1 533.74)"/><path class="cls-3" d="M362.8-410.88a18.88,18.88,0,0,1,.94-6.46,13,13,0,0,1,8.91-8.75,16.59,16.59,0,0,1,5.42-.65,16.41,16.41,0,0,1,4.35.64,13.16,13.16,0,0,1,8.86,8.4,17.11,17.11,0,0,1,1,4.4,22,22,0,0,1-.79,8.83,13.54,13.54,0,0,1-4.1,6.32,12.6,12.6,0,0,1-5.1,2.68,18.28,18.28,0,0,1-8.94.12,12.91,12.91,0,0,1-9.4-8.35A18.69,18.69,0,0,1,362.8-410.88Zm7.86.1a21.49,21.49,0,0,0,.37,3.86,10,10,0,0,0,1.77,4,5.75,5.75,0,0,0,5,2.28,5.82,5.82,0,0,0,4.93-2.83,10.46,10.46,0,0,0,1.47-3.78,21.59,21.59,0,0,0,.18-5.79,12.48,12.48,0,0,0-1-3.93,7,7,0,0,0-1.47-2.24,6,6,0,0,0-5.22-1.7,5.82,5.82,0,0,0-4.41,3.09,10.79,10.79,0,0,0-1.21,3.2A25.05,25.05,0,0,0,370.66-410.78Z" transform="translate(-132.1 533.74)"/><path class="cls-3" d="M582.65-401c0-1,0-2,0-3,0-.21,0-.46.2-.57a.66.66,0,0,1,.7.13l.68.53a16.8,16.8,0,0,0,6.59,3,13,13,0,0,0,5.13.12,4.8,4.8,0,0,0,2.25-1,2.45,2.45,0,0,0,.93-2,2.35,2.35,0,0,0-1-2,5.64,5.64,0,0,0-1.84-.86l-4.39-1.06a23.68,23.68,0,0,1-3.38-1.07,11.94,11.94,0,0,1-2.36-1.27,7.54,7.54,0,0,1-3.07-4.65,9.43,9.43,0,0,1,0-4.48,8.29,8.29,0,0,1,3.13-4.64,13.31,13.31,0,0,1,6.18-2.6,25,25,0,0,1,12.88,1.56.74.74,0,0,1,.57.78c0,2,0,4,0,5.92a1.64,1.64,0,0,1,0,.22c0,.23-.19.33-.45.31a1.24,1.24,0,0,1-.66-.34,15.43,15.43,0,0,0-4.44-2.36,11.88,11.88,0,0,0-6.36-.54,5.07,5.07,0,0,0-1.88.76,2.49,2.49,0,0,0-1.3,2.21,2.2,2.2,0,0,0,1,1.9,6.78,6.78,0,0,0,1.67.75,37.43,37.43,0,0,0,3.66.86,31.35,31.35,0,0,1,3.81,1.11,12.21,12.21,0,0,1,3.55,2,6.87,6.87,0,0,1,2.48,4.73,11.36,11.36,0,0,1-.11,3.54,8.91,8.91,0,0,1-3.6,5.43,12.62,12.62,0,0,1-5,2.14,25.06,25.06,0,0,1-7.18.31,25.73,25.73,0,0,1-7.28-1.8c-.17-.06-.33-.15-.5-.2a.76.76,0,0,1-.58-.89c0-1,0-2,0-3Z" transform="translate(-132.1 533.74)"/><path class="cls-3" d="M728.63-426.11c1.19,0,2.37,0,3.55,0a.71.71,0,0,1,.78.57c.88,2.65,1.79,5.29,2.68,7.94l7,20.78c.08.23.17.47.24.71.17.54.14.59-.48.6h-6.34c-.73,0-.82.13-1.1-.83-.44-1.48-.92-2.94-1.39-4.41a6.21,6.21,0,0,0-.2-.61.42.42,0,0,0-.39-.31h-8.61c-.65,0-.76-.11-1,.79-.45,1.55-.94,3.08-1.42,4.62a4.48,4.48,0,0,1-.16.52.38.38,0,0,1-.33.23h-6.57a3.23,3.23,0,0,1-.53,0,.18.18,0,0,1-.16-.22c.07-.28.16-.55.25-.82q2.46-7.29,4.92-14.57L724.05-425c.07-.21.16-.41.21-.62.09-.38.34-.49.71-.49Zm2.87,18.76c-.1-.85-2.61-8.9-3.08-9.83-.11.3-.21.57-.29.84l-1,3.37q-.8,2.57-1.57,5.13c-.14.48-.09.55.43.55h5.15A2.9,2.9,0,0,0,731.5-407.35Z" transform="translate(-132.1 533.74)"/><path class="cls-4" d="M515-410.9v-14.57c0-.3,0-.6,0-.91a.36.36,0,0,1,.36-.36c.26,0,.52,0,.79,0h19.58a1.07,1.07,0,0,1,1.07,1.08c0,1.52,0,3,0,4.56,0,.5-.09.58-.61.58h-12c-.22,0-.44,0-.66,0-.54,0-.58,0-.58.55,0,.7,0,1.39,0,2.09s0,1.53,0,2.3c0,.35.09.43.47.45h10.75c1,0,1,0,1,1v3.95c0,.21,0,.43,0,.65a.37.37,0,0,1-.35.36h-11l-.86,0a.31.31,0,0,0-.33.33c0,.14,0,.28,0,.43v6a4.89,4.89,0,0,0,0,.54.28.28,0,0,0,.29.25,23.62,23.62,0,0,0,2.38,0,72.57,72.57,0,0,1,8.6,0c1.65.09,1.7-.25,1.7.95,0,1.47,0,2.94,0,4.41,0,.45-.07.52-.48.53-.25,0-.5,0-.76,0H515.58c-.54,0-.6-.07-.6-.64,0-2.08,0-4.16,0-6.24Z" transform="translate(-132.1 533.74)"/><path class="cls-2" d="M660.72-395.63H654l-.71,0A.3.3,0,0,1,653-396c0-.46,0-.92,0-1.38,0-1,0-2,0-3.07,0-.34.08-.42.43-.43h3.34a.32.32,0,0,0,.33-.32c0-.21,0-.42,0-.63v-17.67c0-.18,0-.36,0-.53,0-.34-.1-.44-.42-.45h-3.24c-.36,0-.45-.08-.45-.41,0-1.45,0-2.89,0-4.34,0-.39.09-.47.49-.49h13.87c.24,0,.47,0,.71,0s.46.1.47.52c0,1.41,0,2.83,0,4.24,0,.4-.07.47-.5.47H664.7a.32.32,0,0,0-.3.35c0,.14,0,.28,0,.42v18.31c0,.42.09.51.47.52h2.43c1.39,0,1.26-.17,1.26,1.28,0,1.13,0,2.25,0,3.38,0,.48-.08.55-.54.56h-7.29Z" transform="translate(-132.1 533.74)"/><path class="cls-3" d="M153.89-410.66v-9c0-.8,0-.81-.79-.81h-2.93c-.31,0-.49-.17-.34-.69a5.61,5.61,0,0,0,.21-2.19c-.26-1.94-.5-2.32.19-2.35,1-.05,2.06.22,3-1,2.47-3.23,6.49-2.91,9.05.26a2.21,2.21,0,0,0,2.1.77c.88,0,.88,0,.89.94,0,1.27,0,2.53,0,3.8a.5.5,0,0,1-.5.5H162c-.83,0-.82,0-.81.89V-402c0,1.25-.09,1.15,1.07,1.16.87,0,1.73,0,2.6,0a.46.46,0,0,1,.45.46c0,1.44,0,2.88,0,4.33,0,.24-.1.4-.35.41H150.71a.94.94,0,0,1-.94-.95c0-1.22,0-2.45,0-3.68,0-.55,0-.57.6-.58h3a.53.53,0,0,0,.52-.5c0-.6,0-1.2,0-1.79Z" transform="translate(-132.1 533.74)"/><path class="cls-5" d="M760.23-512.42a1.9,1.9,0,0,0-.2.47c-.53,3.88-1.26,7.72-2,11.55s-1.54,8-2.31,11.94c-1.23,6.34-2.62,12.64-4.32,18.87a21.08,21.08,0,0,1-5.64,9.75,20.17,20.17,0,0,1-2.29,1.95,22,22,0,0,1-10.3,4.07,39.51,39.51,0,0,1-4.61.31H683.33a20.71,20.71,0,0,1-6.06-.78c-5.19-1.56-8.14-5.11-9.19-10.35a19.85,19.85,0,0,1-.29-4.29,48.51,48.51,0,0,1,1.06-9.07c1.71-8.36,3.47-16.71,5.2-25.07q1.13-5.42,2.21-10.85a25.26,25.26,0,0,1,3.22-8.51,22.49,22.49,0,0,1,16.16-10.68c1-.16,2-.24,3-.34a6.41,6.41,0,0,1,1.07,0c3.94.26,7.89.33,11.83.32l29.29-.16c1.32,0,2.65,0,4,.06s2.44.08,3.65.17a14.69,14.69,0,0,1,4.39,1,11.33,11.33,0,0,1,6,5.31,10.87,10.87,0,0,1,1.22,3.21,1.41,1.41,0,0,0,.18.37Zm-50.31,42.86v-.05c2-.06,4-.09,5.92-.2a5.27,5.27,0,0,0,5-3.54,16.79,16.79,0,0,0,.8-2.79c1-4.89,1.87-9.79,2.8-14.68s1.82-9.58,2.71-14.37c.45-2.4.89-4.8,1.28-7.2a13.91,13.91,0,0,0,.13-2.58,2.55,2.55,0,0,0-2.09-2.64,9.19,9.19,0,0,0-2.33-.35c-3.51,0-7,0-10.54,0a10.61,10.61,0,0,0-3.39.56,4.93,4.93,0,0,0-3,2.74,13,13,0,0,0-.85,2.77c-1,4.88-2,9.76-3,14.65-1.3,6.54-2.55,13.09-3.83,19.63a22.66,22.66,0,0,0-.37,4.5,2.93,2.93,0,0,0,2.07,2.95,6.38,6.38,0,0,0,1.34.38,20.43,20.43,0,0,0,2.46.22C706.7-469.53,708.31-469.56,709.92-469.56Z" transform="translate(-132.1 533.74)"/><path class="cls-5" d="M395.49-533.74a11,11,0,0,1-.06,1.29q-1.4,7.89-2.8,15.78c-.05.28-.13.56-.22.92A3.49,3.49,0,0,1,392-516a.81.81,0,0,1-.21-.24,3.64,3.64,0,0,0-2.83-1.55,24.14,24.14,0,0,0-2.68-.19q-12.17,0-24.33,0c-2.73,0-5.46.11-8.18.22a15,15,0,0,0-2.76.39,4.19,4.19,0,0,0-3.3,3.19c-.33,1.21-.58,2.44-.81,3.67q-2.17,11.58-4.31,23.17c-.65,3.52-1.25,7.06-1.86,10.59a8.75,8.75,0,0,0,.05,3.53,4.14,4.14,0,0,0,2.64,3,8.47,8.47,0,0,0,3.15.63c2,0,4-.05,6-.07h3c1.83,0,3.66.09,5.49.09s2-.21,2.49-1.94a34,34,0,0,0,.67-3.37c.31-1.8.59-3.61.88-5.41a2.48,2.48,0,0,0,0-.39c-.54,0-1.05.15-1.57.19s-1.14.11-1.71.17l-1.6.18c-.54.06-1.07.13-1.61.18l-1.6.18c-.57.06-1.14.14-1.71.19s-1.07.08-1.53.11a1.08,1.08,0,0,1-.29-1,27.87,27.87,0,0,1,.55-5.77,20.92,20.92,0,0,1,1.2-4.35,17.63,17.63,0,0,1,1.15-2.3,6,6,0,0,1,1.11-1.3,3,3,0,0,1,2.16-.84h.86c5.78,0,11.55,0,17.33,0,3.52,0,7,.06,10.55.1a13.82,13.82,0,0,1,1.82.15,4.54,4.54,0,0,1,3,1.59,7.45,7.45,0,0,1,1.87,4.7,36.39,36.39,0,0,1-.53,6.43c-1,6.66-2.25,13.29-3.49,19.92-.35,1.87-.6,3.75-.93,5.62a15.84,15.84,0,0,1-.42,1.78,1.52,1.52,0,0,1-1.4,1.15c-.4,0-.79.08-1.18.08l-60.61,0c-1.4,0-2.8,0-4.2,0a21,21,0,0,1-4-.34,8.63,8.63,0,0,1-4.92-2.88,12.07,12.07,0,0,1-2.73-5.77,22.9,22.9,0,0,1-.34-5.67,83.17,83.17,0,0,1,1.26-9.17q1-5.88,2.08-11.75c.9-5,1.8-10,2.73-15q1-5.19,2-10.35a38.88,38.88,0,0,1,2.11-7.33,21.14,21.14,0,0,1,1.73-3.34,16.44,16.44,0,0,1,5.56-5.44,22,22,0,0,1,6.22-2.62,3.3,3.3,0,0,0,1.6-.55Z" transform="translate(-132.1 533.74)"/><path class="cls-5" d="M570.28-490.13c.12-.48.21-.79.26-1.1,1.38-7.84,2.74-15.68,4.15-23.51.61-3.39,1.35-6.75,2-10.13a16.94,16.94,0,0,0,.29-2,8.19,8.19,0,0,0-1.33-5.22c-.13-.2-.24-.41-.35-.59.15-.27.35-.21.51-.22h37a.81.81,0,0,1-.22.94c-.26.3-.55.57-.81.87a12.5,12.5,0,0,0-2.33,4.32c-.83,2.56-1.48,5.17-2.08,7.8-1.28,5.59-2.35,11.22-3.28,16.89q-1.27,7.74-2.5,15.5c-.63,4-1.19,7.94-1.82,11.91s-1.34,8.06-2,12.1c-.14.84-.31,1.69-.46,2.54a5.78,5.78,0,0,0,.07,2.45c.21.76.4,1.53.6,2.29a3.05,3.05,0,0,1,.08,1.62,3.5,3.5,0,0,1-.62.15,8.17,8.17,0,0,1-.86,0h-33.8a8.29,8.29,0,0,1-.86,0,3,3,0,0,1-.55-.17c.15-.3.27-.56.4-.81.9-1.67,1.81-3.34,2.7-5a9.06,9.06,0,0,0,.94-3,6.15,6.15,0,0,0-.56-3.66,20.05,20.05,0,0,0-1.06-1.87c-.47-.73-1-1.43-1.48-2.12q-12.9-17.89-25.82-35.78c-1-1.4-2-2.8-3-4.18a3.63,3.63,0,0,0-1.1-1.07,1.31,1.31,0,0,0-.31.79q-.9,4.92-1.78,9.84-1.25,6.89-2.48,13.76l-2.25,12.5q-1,5.61-2,11.21c-.18,1-.39,2.05-.49,3.08a7.66,7.66,0,0,0,.07,2c.14.89.41,1.75.6,2.62a7.63,7.63,0,0,1,.14,1.17.48.48,0,0,1-.47.5c-.25,0-.5,0-.75,0H489.83a.33.33,0,0,1,0-.53,9.58,9.58,0,0,0,2.31-3.95,67.45,67.45,0,0,0,2.14-7.33c1.26-5.12,2.32-10.28,3.27-15.47s1.83-10.16,2.71-15.24c.71-4.14,1.35-8.29,2-12.42.82-4.92,1.67-9.83,2.47-14.75.24-1.52.36-3.06.48-4.6a8.75,8.75,0,0,0-.45-3.28,11.38,11.38,0,0,1-.29-1.15.59.59,0,0,1,.55-.77,4.92,4.92,0,0,1,1.27-.11c3.91.31,7.82.2,11.73.2q3.93,0,7.86,0c1.68,0,3.37-.1,5-.13s3.66,0,5.49,0a5.24,5.24,0,0,1,4.61,2.52l.25.35,5.47,7.86c5.86,8.42,11.68,16.87,17.73,25.16,1.37,1.89,2.8,3.73,4.22,5.58A10.16,10.16,0,0,0,570.28-490.13Z" transform="translate(-132.1 533.74)"/><path class="cls-5" d="M227.13-511.33c-.11.42-.19.61-.22.81q-2.08,11.49-4.15,23-2.2,12.24-4.43,24.45c-.17,1-.32,1.91-.46,2.87a6.86,6.86,0,0,0,.11,2.67c.13.56.27,1.12.41,1.67.07.32.16.63.22.95.22,1.06,0,1.29-1,1.29H185.72a3.77,3.77,0,0,1-1.23-.09,1.63,1.63,0,0,1,.18-.41,9.41,9.41,0,0,0,2.23-3.76,65.5,65.5,0,0,0,2.1-7c1.25-4.94,2.27-9.93,3.2-14.93q1.34-7.08,2.55-14.19c.78-4.52,1.49-9.06,2.25-13.58q1.31-7.9,2.64-15.81a34.16,34.16,0,0,0,.47-4.28,9.81,9.81,0,0,0-.42-3.4,10.75,10.75,0,0,1-.32-1.24.6.6,0,0,1,.52-.8,4.19,4.19,0,0,1,1.17-.11c6.63.42,13.27.13,19.91.16,1.61,0,3.22-.09,4.84-.12s3.37,0,5.06-.06c.25,0,.5,0,.75,0a5.27,5.27,0,0,1,4.24,2.39c1.5,2.18,3,4.36,4.55,6.53q8.84,12.6,17.69,25.19c1.63,2.32,3.37,4.56,5.08,6.82.43.57.91,1.11,1.38,1.65a5.25,5.25,0,0,0,.55.46c.12-.44.23-.77.29-1.11.54-3.07,1.07-6.15,1.61-9.22q.92-5.25,1.84-10.49c.82-4.62,1.68-9.24,2.68-13.83.12-.52.23-1,.3-1.58a8.38,8.38,0,0,0-1.13-5.38c-.17-.3-.35-.6-.51-.86.11-.3.31-.25.48-.26h35.74l1.36,0a3.6,3.6,0,0,1-.14.65,2.2,2.2,0,0,1-.4.51,11.71,11.71,0,0,0-3,5.26c-.7,2.45-1.36,4.91-1.95,7.38-1.3,5.52-2.34,11.09-3.26,16.68s-1.83,11.25-2.72,16.88c-.69,4.4-1.32,8.8-2,13.19-.63,3.93-1.32,7.85-2,11.77a7.71,7.71,0,0,0,.09,3.51c.2.69.37,1.39.55,2.08a2.38,2.38,0,0,1,0,1.3,4.05,4.05,0,0,1-.62.16c-.32,0-.65,0-1,0H257.64a2.14,2.14,0,0,1-1.41-.21c.12-.25.23-.5.36-.75.92-1.71,1.85-3.4,2.75-5.12a8.36,8.36,0,0,0,1-3.5,6.05,6.05,0,0,0-.61-3,13.72,13.72,0,0,0-.82-1.51c-.48-.76-1-1.5-1.51-2.23Q245.2-486.7,233-503.54c-1-1.39-2-2.82-3-4.21-.61-.85-1.24-1.67-1.89-2.49C227.9-510.57,227.58-510.86,227.13-511.33Z" transform="translate(-132.1 533.74)"/><path class="cls-5" d="M478.4-472.76c-.1.4-.16.71-.24,1q-2.18,8.28-4.37,16.54c-.34,1.29-.55,1.44-1.85,1.44-9.4,0-18.8-.14-28.2,0-7.61.11-15.22,0-22.82.13-3.12.05-6.25.12-9.37.12a14.77,14.77,0,0,1-3.31-.34,8.44,8.44,0,0,1-6.71-7,20.06,20.06,0,0,1-.13-5.58,138.89,138.89,0,0,1,2.15-14.36c.47-2.57.9-5.16,1.36-7.73s.95-5.3,1.41-7.95c.5-2.93,1-5.87,1.45-8.81.79-4.74,1.66-9.46,2.81-14.13a18.28,18.28,0,0,1,3.86-7.61,14.78,14.78,0,0,1,2.25-2.15,27.45,27.45,0,0,1,5.12-3.16,7.82,7.82,0,0,1,3.12-.72l8.39-.14c1.15,0,2.3,0,3.45,0l39.07-.11h2.27a7.36,7.36,0,0,1,5.31,2.23,11.84,11.84,0,0,1,3.36,6.26,20.18,20.18,0,0,1,.29,4.39,47.17,47.17,0,0,1-1.05,8.21q-1.35,6.81-2.5,13.65c-.5,3-1.06,5.93-1.59,8.9-.18,1-.35,2.05-.53,3.07,0,.32-.11.64-.19.95-.2.73-.44.92-1.21,1-.25,0-.5,0-.75,0H435c-.29,0-.57,0-.86,0a1.25,1.25,0,0,0-1.24,1,19.25,19.25,0,0,0-.47,2.1c-.23,1.67-.45,3.34-.6,5a9.73,9.73,0,0,0,.26,3.31,5.49,5.49,0,0,0,3.29,3.87,16.83,16.83,0,0,0,3.83,1,37.38,37.38,0,0,0,7.39.62c2.8-.06,5.6-.09,8.39-.22a70.66,70.66,0,0,0,18.55-3.5c1.09-.35,2.18-.74,3.27-1.08A3.05,3.05,0,0,1,478.4-472.76Zm-42.29-28.36h22c1.4,0,1.43,0,1.68-1.36.53-2.79,1.06-5.57,1.54-8.36a10.12,10.12,0,0,0,.1-3.43,3.92,3.92,0,0,0-2.17-3,7.68,7.68,0,0,0-1.41-.52,26.3,26.3,0,0,0-9.91-.79,21.77,21.77,0,0,0-4.23.8,10.24,10.24,0,0,0-3.1,1.46,4.69,4.69,0,0,0-1.85,2.56c-.26.93-.58,1.85-.77,2.8-.62,3-1.19,6-1.77,9C436.15-501.77,436.14-501.52,436.11-501.12Z" transform="translate(-132.1 533.74)"/><path class="cls-5" d="M167.94-453.64a3.15,3.15,0,0,1-1.28.13c-7.11,0-14.21.06-21.31.05-3.84,0-7.67-.07-11.51-.12-.39,0-.78-.05-1.11-.07a.64.64,0,0,1-.08-.77,2.77,2.77,0,0,1,.22-.37,26.46,26.46,0,0,0,3.36-8.91c.47-2.35.84-4.73,1.28-7.09.61-3.28,1.24-6.55,1.87-9.82,1-5.46,2.11-10.91,3.13-16.37q1.29-6.87,2.49-13.76c.76-4.34,1.44-8.7,2-13.08.13-1.13.21-2.28.28-3.43a10.59,10.59,0,0,0-.26-3.41,5.85,5.85,0,0,1-.16-1.38.53.53,0,0,1,.51-.59,6,6,0,0,1,.85,0h32.39a1.91,1.91,0,0,1,1.28.24,3,3,0,0,1-.28.48,17.79,17.79,0,0,0-4,8.57c-.42,2.11-.72,4.24-1.05,6.37-.41,2.62-.75,5.25-1.19,7.86q-1,5.89-2.05,11.76c-.8,4.37-1.65,8.74-2.48,13.1q-1.78,9.45-3.59,18.91c-.24,1.3-.51,2.6-.72,3.91a12.71,12.71,0,0,0-.18,3.54,8.19,8.19,0,0,0,1.05,3.24C167.55-454.38,167.71-454.06,167.94-453.64Z" transform="translate(-132.1 533.74)"/><path class="cls-5" d="M628.68-532.57c.87-.12,35-.14,36.12,0a1.33,1.33,0,0,1,0,.4,1.79,1.79,0,0,1-.27.46,25.74,25.74,0,0,0-4,8.17,48,48,0,0,0-1.72,7.76c-.59,4.19-1.3,8.36-2.05,12.52-.69,3.85-1.36,7.7-2,11.55s-1.37,7.69-2.05,11.54l-2,11.54c-.26,1.48-.55,3-.75,4.45a20.21,20.21,0,0,0,.31,7.9c.19.73.48,1.43.72,2.14l.18.57a5.57,5.57,0,0,1-.58.07H621.68c-1.43,0-2.87,0-4.3.05-.4,0-.79,0-1.18,0-.61-.06-.8-.35-.64-1a4.59,4.59,0,0,1,.29-.81c.29-.66.57-1.32.89-2a38,38,0,0,0,3.31-10.3c1.28-7,2.58-14,3.84-20.94,1-5.72,2-11.44,3-17.16.7-3.95,1.41-7.9,2.09-11.86.34-2,.68-4,.91-6.06a16,16,0,0,0-.74-7.22c-.15-.4-.3-.81-.42-1.22A4.07,4.07,0,0,1,628.68-532.57Z" transform="translate(-132.1 533.74)"/></svg>