<svg id="Layer_1" data-name="Layer 1" xmlns="http://www.w3.org/2000/svg" viewBox="0 0 746.72 137.26"><defs><style>.cls-1{fill:#f0a410;}.cls-2{fill:#3b3b3b;}.cls-3{opacity:0.8;}.cls-4{fill:#a82f02;}.cls-5{fill:#f8ca2b;}.cls-6{fill:#f28705;}.cls-7{fill:#f29f05;}.cls-8{fill:#f25c05;}.cls-9{font-size:63.07px;fill:#fff;font-family:Milky-Honey, Milky Honey;}</style></defs><title>Logo Ingenio Hitam v2.0</title><path class="cls-1" d="M161.85-246.06c-.83,0-1.63,0-1.63-1.13a19.76,19.76,0,0,1,.33-2.44c.43-2.72.36-3.56,2.72-4.78,4.14-2.19,9.07-2.77,13.57-2.77a22,22,0,0,1,5.48.54c2.24.59,2.06,1.89,3,4.79.32,1-.84,2.56-1.35,3.48l-8.52,15,.07.09a.56.56,0,0,1,.84.58c0,.84-1.09,2.36-1.53,3-.65,1-2.1,3.44-3.23,3.44a1.85,1.85,0,0,1-2-1.77c0-4.15,6.68-13.94,9-17.42l3.63-5.38A57.46,57.46,0,0,0,164-247.65v.08c.51.13,2.9.42,2.9,1.26s-1.45.17-2.9.21Z" transform="translate(-160.22 349.83)"/><path class="cls-1" d="M185-233.42c1.78-1.64,8.38-8.35,10.38-8.35a2.07,2.07,0,0,1,1.74,2c0,.8-1.45,2.65-1.89,3.23-2.25,3.15-2.14,3.28-2.14,3.7a.81.81,0,0,0,.8.88c1.2,0,3.85-2.27,4.9-3.06l.18,1.72c-1.67,1.47-6.06,5.58-8.05,5.58-1.09,0-1.67-1.09-1.67-2.22,0-2.65,2.5-5.84,3.81-7.81l-.08-.09c-6.2,4.92-8,9.37-9.18,9.37s-1.45-3.28-1.45-4.24c0-2.9.95-4.92,2.22-7.31,4.28-8.19,11.5-15.54,12.73-15.54.58,0,1.56.3,1.56,1.14,0,2.85-11.54,16.71-13.86,19.35Z" transform="translate(-160.22 349.83)"/><path class="cls-1" d="M212.17-234.38c-2.21,3-6.2,6.92-9.8,6.92-2.64,0-3.88-2.72-4-5.5-.14-5.5,5.12-11.12,9.83-11.08,1.16,0,2.61.33,2.61,2,0,2.06-1.77,5.17-8.74,7.81l-.07.93c-.11,1.59,1.09,2.14,2.25,2.14,2.57,0,5.62-3.07,7.54-4.83Zm-4.5-6.76c0-.3-.18-.55-.43-.47a8.57,8.57,0,0,0-4.9,5.34C205.53-237.53,207.71-240.43,207.67-241.14Z" transform="translate(-160.22 349.83)"/><path class="cls-1" d="M236.33-234.38c-1.81,1.55-5.08,4.57-7.15,4.28-2.86-.38-4.06-2.94-4.06-5.88,0-3.61,2.36-8.06,4.46-10.58A29.87,29.87,0,0,1,248.66-257a1.32,1.32,0,0,1,1.49.71,6,6,0,0,1,.65,2.69,2.86,2.86,0,0,1-1.48,2.26c-5,3.78-5.74,3.83-6.06,3.83s-.47-.26-.47-.59.72-1,1-1.22l1.52-1.43-.07-.08c-10.85,3.69-17.31,13.94-16.91,16,.18.88.47,1.59,1.27,1.59a4.8,4.8,0,0,0,2.47-1.3l13.28-11.67a1.25,1.25,0,0,1,.83-.55,3.82,3.82,0,0,1,1.34.72c.4.25.91.59.91,1.13a4.84,4.84,0,0,1-.51,1.47c-1.56,3.65-3.84,7.31-6.64,12.39l.08.08,8-6c-.08,1.85.18,2.18-4.76,6.05l-5.84,4.57c-1.48,2.35-7,9.24-9.43,9.24-.91,0-1.3-.84-1.34-1.76-.11-2.82,3.12-6.55,6.67-8.57a56.08,56.08,0,0,0,5.81-10.37l-.07-.08Z" transform="translate(-160.22 349.83)"/><path class="cls-1" d="M264.08-234.43c-1.63,2.4-3.23,3.41-5.88,3.41-1.52,1.8-3.3,3.14-5.58,3.14-1.89,0-3.63-2.18-3.78-6a8.62,8.62,0,0,1,3.3-7.05,11.38,11.38,0,0,1,6.79-3.11c.8,0,2,.38,2,1.51,0,.63-.43.88-.83,1.13,1.09.34,1.31,1.22,1.31,2.48a12.44,12.44,0,0,1-1.42,5c1.6.33,2.61-1.26,3.74-2.23Zm-11.06-2a6.63,6.63,0,0,0-1.49,3.86,1.41,1.41,0,0,0,1.59,1.6c1.2,0,2-.8,2.8-1.68a5,5,0,0,1-.44-1.93c0-2.18,1.71-4.83,1.56-4.91A21.7,21.7,0,0,0,253-236.4Z" transform="translate(-160.22 349.83)"/><path class="cls-1" d="M275.18-234.34c-2,2.39-5.4,6.63-8.52,6.63-2.65,0-3.23-3-3.23-5.46a22.89,22.89,0,0,1,4-12.51c3.19-4.58,6.64-8.48,7.8-8.48.61,0,.76,1,.72,1.55-.25,4-1.19,7.69-9.07,16.5a5.48,5.48,0,0,0-.25,2.9c.33,1,.83,1.81,1.81,1.81,2,0,4.79-2.69,6.24-4.2ZM267.67-240a26.14,26.14,0,0,0,5.48-9.19c-1.78,1-3.85,4.78-5.55,9.11Z" transform="translate(-160.22 349.83)"/><path class="cls-1" d="M289-241.1c-1.2,2.18-2.94,4.91-2.94,7.6,0,.67,0,2.1.83,2.1,1.24,0,4.57-3.4,5.74-4.29l.25,1.39c-1.71,2.18-5.44,6.59-8.09,6.59-1.38,0-1.92-1.68-1.92-3a22.92,22.92,0,0,1,.29-3.19c-1.27,1.26-4.65,5.33-6.28,5.33s-2.65-4-2.65-5.5c0-4.95,7.22-9.15,10.31-9.36.76-.05,1.05.54,1.52,1.17,1.2-2.39,4.39-11.08,7-11.08.72,0,1.16.84,1.16,1.59,0,1.26-1,3-1.56,4Zm-11.57,7.89a.68.68,0,0,0,.54.8c.43.13,6.28-4.91,6.86-7.39C278.48-237.41,277.68-236,277.47-233.21Z" transform="translate(-160.22 349.83)"/><path class="cls-1" d="M323.61-242.49c3.66,1,5.37,3.24,5.37,5.29,0,8.36-12.66,9.7-17.89,9.7-1.41,0-5.84,0-5.84-2.43a9.32,9.32,0,0,1,1.85-3.74,8.83,8.83,0,0,1,3.12-1.22c.18,0,.29,0,.29.3,0,.42-.36.63-.61.79a4.64,4.64,0,0,0-.62.63v.09c13,.54,16.51-3.78,16.51-4.45,0-2.14-10.05-3.82-11.79-4.16s-3.7-1-3.7-3.53a17.61,17.61,0,0,1,1.16-5.58c1.12-2.14,7.69-6.13,15.63-6.13a18.79,18.79,0,0,1,4.57.59c.84.21.95.54.95,1.38,0,3.11-.91,3.82-3.05,4.79a9.92,9.92,0,0,0-3.27,2.06,2.06,2.06,0,0,1-.9.42c-.37,0-.58-.21-.58-.63a8.83,8.83,0,0,1,2.64-2.94l-.07-.09C318-251,314-247.06,314-246.1,314-245.51,313.49-245.22,323.61-242.49Z" transform="translate(-160.22 349.83)"/><path class="cls-1" d="M343.45-245.64c-1.7,4-2,5.55-6,5.25-1.24,1.85-3.31,5.29-3.31,7.81,0,.93.26,1.47,1.09,1.47,1.16,0,2.47-1.26,6.24-4.37l.18,1.85c-2.14,2.27-6.05,6.76-9.14,6.76-1.41,0-2.28-1.13-2.28-2.81a12.55,12.55,0,0,1,.94-4.2l-.07-.08-1.85,1.72-.4-1.6a23.12,23.12,0,0,0,5.51-6.72,11.52,11.52,0,0,0-3.44.17l.39-.75c2-3.7,2.25-4.37,6.14-4.54,1.08-1.72,1.88-3.69,4-3.69.47,0,1.16.12,1.16.79s-1.05,2.15-1.42,2.73Z" transform="translate(-160.22 349.83)"/><path class="cls-1" d="M347.37-231c-.69.63-3,2.81-3.85,2.81-1,0-3.12-2.77-3.19-5-.14-5.25,9.29-10.63,13.5-10.75a2.32,2.32,0,0,1,2.35,2c0,.51-.94.93-1.27,1.05a1.69,1.69,0,0,1,1.06,1.72c0,1.35-3.16,4.29-3.16,6.26a1,1,0,0,0,1.13,1c1.52,0,3.59-2.14,5.15-3.36l.29,1.55c-1.56,2.06-6.42,6.55-8.2,6.55-1.2,0-1.74-1-1.74-2.22a15.78,15.78,0,0,1,1.34-4.71l-.07-.08ZM343-232.07c0,.21.18,1,.72.84.73-.17,1.86-.05,9-8.44l-.07-.09C344-236.69,343-234.13,343-232.07Z" transform="translate(-160.22 349.83)"/><path class="cls-1" d="M376.1-236.44l.29,1.85c-1.92,2-5.66,7.13-8.31,7.13-1.38,0-2-1.34-2-2.77,0-2.52,2-5.29,3.12-7.22l-.07-.08a31.28,31.28,0,0,0-5.59,6.42c-.54.8-1.88,2.86-2.86,2.86-1.6,0-2-2.65-2-4.08-.1-2.89,2.18-7.13,4.29-9.19a1.64,1.64,0,0,1,1.41-.51c2.18.09,2,.68,2,.93,0,1.64-4.58,5.88-4.58,6.88a.45.45,0,0,0,.4.47c.26,0,.58-.38.73-.59,2.9-4.28,9.58-9.45,10.63-9.45.14,0,.36.21.58.8a10.83,10.83,0,0,1,.54,2.27c0,1.63-4.46,4.82-4.46,7.72a.74.74,0,0,0,.65.76c.87,0,2.47-1.47,3.12-2.1Z" transform="translate(-160.22 349.83)"/><path class="cls-1" d="M390.32-241.1c-1.2,2.18-2.94,4.91-2.94,7.6,0,.67,0,2.1.84,2.1,1.23,0,4.57-3.4,5.73-4.29l.25,1.39c-1.7,2.18-5.44,6.59-8.09,6.59-1.38,0-1.92-1.68-1.92-3a22.92,22.92,0,0,1,.29-3.19c-1.27,1.26-4.64,5.33-6.28,5.33s-2.64-4-2.64-5.5c0-4.95,7.21-9.15,10.3-9.36.76-.05,1.05.54,1.52,1.17,1.2-2.39,4.39-11.08,7-11.08.73,0,1.16.84,1.16,1.59,0,1.26-1,3-1.56,4Zm-11.57,7.89a.68.68,0,0,0,.54.8c.44.13,6.28-4.91,6.86-7.39C379.76-237.41,379-236,378.75-233.21Z" transform="translate(-160.22 349.83)"/><path class="cls-1" d="M399.9-231c-.69.63-3,2.81-3.85,2.81-1,0-3.12-2.77-3.19-5-.15-5.25,9.29-10.63,13.49-10.75a2.34,2.34,0,0,1,2.36,2c0,.51-.94.93-1.27,1.05a1.68,1.68,0,0,1,1.05,1.72c0,1.35-3.15,4.29-3.15,6.26a1,1,0,0,0,1.12,1c1.53,0,3.59-2.14,5.15-3.36l.29,1.55c-1.56,2.06-6.42,6.55-8.19,6.55-1.2,0-1.75-1-1.75-2.22a15.51,15.51,0,0,1,1.35-4.71l-.08-.08Zm-4.39-1.09c0,.21.18,1,.72.84.73-.17,1.85-.05,9-8.44l-.08-.09C396.56-236.69,395.51-234.13,395.51-232.07Z" transform="translate(-160.22 349.83)"/><path class="cls-1" d="M414.19-237.24c-1.27,2.31-2.79,3.4-4.35,5.21l-.15-1.85a14.43,14.43,0,0,0,2.4-3.06c-.77-.09-1-.42-1-1.31,0-3,3.7-6,4.57-6a.69.69,0,0,1,.65.71,3.37,3.37,0,0,1-.25,1.18c3.41-.55,5.4-1,5.76-.55a4.48,4.48,0,0,1,.87,2.23,3.51,3.51,0,0,1-1.52,2.73c-1.05,1.05-2.83,3.1-2.83,4.78a1.19,1.19,0,0,0,1.13,1.18c1.56,0,3.84-2.73,5-3.78l.25,1.55c-1.38,1.81-5.55,6.47-7.62,6.47-1.52,0-2.46-1.64-2.46-3.23,0-2.86,1.88-5.09,3.33-7.1l-.07-.08Z" transform="translate(-160.22 349.83)"/><path class="cls-1" d="M438.78-241.1c-1.19,2.18-2.93,4.91-2.93,7.6,0,.67,0,2.1.83,2.1,1.23,0,4.57-3.4,5.73-4.29l.26,1.39c-1.71,2.18-5.44,6.59-8.09,6.59-1.38,0-1.93-1.68-1.93-3a24.56,24.56,0,0,1,.29-3.19c-1.27,1.26-4.64,5.33-6.27,5.33s-2.65-4-2.65-5.5c0-4.95,7.22-9.15,10.3-9.36.76-.05,1.05.54,1.53,1.17,1.19-2.39,4.39-11.08,7-11.08.73,0,1.17.84,1.17,1.59,0,1.26-1,3-1.56,4Zm-11.57,7.89a.7.7,0,0,0,.55.8c.43.13,6.27-4.91,6.85-7.39C428.23-237.41,427.43-236,427.21-233.21Z" transform="translate(-160.22 349.83)"/><path class="cls-1" d="M469.58-234.43C468-232,466.35-231,463.71-231c-1.53,1.8-3.31,3.14-5.59,3.14-1.89,0-3.63-2.18-3.77-6a8.59,8.59,0,0,1,3.3-7.05,11.35,11.35,0,0,1,6.78-3.11c.8,0,2,.38,2,1.51,0,.63-.44.88-.84,1.13,1.09.34,1.31,1.22,1.31,2.48a12.44,12.44,0,0,1-1.42,5c1.6.33,2.62-1.26,3.74-2.23Zm-11.06-2a6.63,6.63,0,0,0-1.49,3.86,1.41,1.41,0,0,0,1.6,1.6c1.19,0,2-.8,2.79-1.68a5.2,5.2,0,0,1-.43-1.93c0-2.18,1.7-4.83,1.56-4.91A21.77,21.77,0,0,0,458.52-236.4Z" transform="translate(-160.22 349.83)"/><path class="cls-1" d="M473.65-235.39c1.05.71,1.41,2.1,1.88,3.32l4.9-3.53.4,1.55a21.31,21.31,0,0,1-4.68,4,10,10,0,0,1,0,2.31c-.29,5-5.36,9.62-8,10.08-1.67.29-2.14-3.61-2.14-5,0-2.73,1.56-6.05,2.54-8.44a3.53,3.53,0,0,1-1.06-2.39c0-1.68,1-2.14,2-2.81,2.14-1.35,3.3-3.32,4.42-5.72.95-2.05,5.63-12.05,7.48-12.05.79,0,.87,1.18.87,1.85a14.85,14.85,0,0,1-1.89,5.88Zm-.15,6.13a4.75,4.75,0,0,1-2.61-.34,14,14,0,0,0-1.67,4.75,6.9,6.9,0,0,0,.73,3.73A9.52,9.52,0,0,0,473.5-229.26Z" transform="translate(-160.22 349.83)"/><path class="cls-1" d="M512.17-238.41a64.25,64.25,0,0,0,5.88-10.25c.62-1.34.47-1.81.07-1.81s-.87.55-1.12.89l-8.71,10.91-5.44,8.49c-.62,1-1.53,2.56-2.69,2.56-1.52,0-2.25-3.32-2.64-4.62l7.58-11.09c3.81-7.89,3.15-8.73,2.54-8.73a3.3,3.3,0,0,0-1.13.5c-11.17,6.05-9.43,6.13-11.28,6.13-.58,0-1.05-.54-.87-1.55.36-2.27.65-4.58.94-5s.11-.42,3.34-3.07c.18-.17.65-.59.91-.59a.45.45,0,0,1,.43.42c0,.25-.51,1-1.92,2.44l.07.08,4.1-2.18c.44-.21,5.55-3,6.86-2.94.87,0,1,.63,1.38,1.34l.87,1.77a3.46,3.46,0,0,1,.43,1.59c0,1.39-1.85,5.75-2.25,7.31l.08.08,5.76-6.47c1.35-1.46,4.43-4.61,5.92-4.66a2.78,2.78,0,0,1,2.65,2.9c0,3.11-3.92,9.32-5.41,12l.07.08c4.46-4.45,8.64-9,13.39-13.39.47-.46,1.2-1.35,1.85-1.35,1,0,2.5,2.73,2.5,3.62s-1.12,2.3-1.56,2.93l-5.62,7.94c-1.67,2.35-4.17,6.34-4.17,9.53,0,.84.4,2.06,1.27,2.06s3.84-1.89,8.74-7.39l.15,1.6c-.88,2.89-8.67,10-11.79,10-2.4,0-3.2-2.64-3.2-5.08,0-5,4.61-11.34,7.15-15.16l-.07-.08c-6.17,6-8.17,7.93-13.86,16.29-.55.8-2.29,3.19-3.19,3.19-1.42,0-1.93-3-1.93-4.24a6.84,6.84,0,0,1,1.45-3.32Z" transform="translate(-160.22 349.83)"/><path class="cls-1" d="M547.65-234.38c-2.21,3-6.2,6.92-9.8,6.92-2.64,0-3.88-2.72-4-5.5-.15-5.5,5.11-11.12,9.83-11.08,1.16,0,2.61.33,2.61,2,0,2.06-1.77,5.17-8.74,7.81l-.07.93c-.11,1.59,1.09,2.14,2.25,2.14,2.57,0,5.62-3.07,7.54-4.83Zm-4.5-6.76c0-.3-.18-.55-.43-.47a8.57,8.57,0,0,0-4.9,5.34C541-237.53,543.19-240.43,543.15-241.14Z" transform="translate(-160.22 349.83)"/><path class="cls-1" d="M561.65-241.1c-1.2,2.18-2.94,4.91-2.94,7.6,0,.67,0,2.1.84,2.1,1.23,0,4.57-3.4,5.73-4.29l.25,1.39c-1.7,2.18-5.44,6.59-8.09,6.59-1.38,0-1.92-1.68-1.92-3a24.56,24.56,0,0,1,.29-3.19c-1.27,1.26-4.64,5.33-6.28,5.33s-2.64-4-2.64-5.5c0-4.95,7.22-9.15,10.3-9.36.76-.05,1,.54,1.52,1.17,1.2-2.39,4.39-11.08,7-11.08.73,0,1.16.84,1.16,1.59,0,1.26-1,3-1.56,4Zm-11.57,7.89a.68.68,0,0,0,.54.8c.44.13,6.28-4.91,6.86-7.39C551.09-237.41,550.3-236,550.08-233.21Z" transform="translate(-160.22 349.83)"/><path class="cls-1" d="M575.54-233.59c-1.63,2.31-4.82,6.09-7.58,6.09-2.14,0-3.12-2.85-3.12-5,0-5.13,4.54-10.12,6.71-10.12.62,0,1.6.25,1.6,1.17,0,2.1-3.59,5.84-5.11,7.06-.29,1.72.25,2.64,1.92,2.64,1.92,0,3.81-2.22,5.26-3.44Zm-3.48-11.67a3.48,3.48,0,0,1,3.16-3.23,1.23,1.23,0,0,1,1.2,1.3c0,1.68-1.35,3.74-2.91,3.74C572.64-243.45,572.06-244.25,572.06-245.26Z" transform="translate(-160.22 349.83)"/><path class="cls-1" d="M579.39-236a3.08,3.08,0,0,0-1.45,2.48,2.5,2.5,0,0,0,2.76,2.26c2.75,0,5.91-2.94,8-4.83l.44,1.64c-2.21,2.73-6.28,6.89-9.72,6.89-2.8,0-4.14-3-4.14-6.13,0-3.53,1.09-4.83,3.45-6.89,1.63-1.43,5.11-3.69,7.14-3.69,1.13,0,1.64.67,1.64,1.93,0,2.31-2.87,5.54-3.85,5.54-.83,0-1.2-1.05-1.23-1.85Z" transform="translate(-160.22 349.83)"/><path class="cls-1" d="M594.34-231c-.69.63-3,2.81-3.85,2.81-1,0-3.12-2.77-3.19-5-.15-5.25,9.28-10.63,13.49-10.75a2.34,2.34,0,0,1,2.36,2c0,.51-.94.93-1.27,1.05a1.68,1.68,0,0,1,1,1.72c0,1.35-3.15,4.29-3.15,6.26a1,1,0,0,0,1.12,1c1.53,0,3.59-2.14,5.15-3.36l.29,1.55c-1.56,2.06-6.42,6.55-8.2,6.55-1.19,0-1.74-1-1.74-2.22a15.51,15.51,0,0,1,1.35-4.71l-.08-.08ZM590-232.07c0,.21.18,1,.72.84.73-.17,1.85-.05,9-8.44l-.07-.09C591-236.69,590-234.13,590-232.07Z" transform="translate(-160.22 349.83)"/><path class="cls-1" d="M617.63-234.34c-2,2.39-5.41,6.63-8.53,6.63-2.65,0-3.23-3-3.23-5.46a22.89,22.89,0,0,1,4-12.51c3.19-4.58,6.64-8.48,7.8-8.48.62,0,.76,1,.73,1.55-.26,4-1.2,7.69-9.07,16.5a5.37,5.37,0,0,0-.26,2.9c.33,1,.84,1.81,1.82,1.81,2,0,4.79-2.69,6.24-4.2ZM610.12-240a26.25,26.25,0,0,0,5.47-9.19c-1.77,1-3.84,4.78-5.55,9.11Z" transform="translate(-160.22 349.83)"/><path class="cls-1" d="M631.26-228.92a8.86,8.86,0,0,1-2.86,1c-.51,0-1.13-.12-1.13-.88,0-1,1.71-3.32,2.25-4.16.33-.5.58-1,1.13-1.17,1.52-.42,3.15-.46,4.68-.8l10.55-14.53c1.31-1.8,6.64-8.06,8.57-8.06,1.23,0,1.81,1.51,1.81,2.73,0,2.69-3,7.6-4.14,10,.29.05.66.13.66.59,0,.76-1.53,2-2,2.44s-2.47,2.18-3.16,2.18-.84-.63-.84-1.26c0-3.15,3.12-7.73,4.87-10,.29-.38.32-.8.07-.8-.47,0-2,1.68-6.06,7L638.37-235c6,1.34,9.15,2,14.59,3.57L651-229.22c-2.33,2.69-2.18,2.77-9.29,1.05a34.59,34.59,0,0,0-9.69-1.18Z" transform="translate(-160.22 349.83)"/><path class="cls-1" d="M668.16-234.38c-2.21,3-6.21,6.92-9.8,6.92-2.65,0-3.88-2.72-4-5.5-.15-5.5,5.11-11.12,9.83-11.08,1.16,0,2.61.33,2.61,2,0,2.06-1.78,5.17-8.74,7.81l-.07.93c-.11,1.59,1.08,2.14,2.25,2.14,2.57,0,5.62-3.07,7.54-4.83Zm-4.5-6.76c0-.3-.18-.55-.44-.47a8.58,8.58,0,0,0-4.89,5.34C661.52-237.53,663.7-240.43,663.66-241.14Z" transform="translate(-160.22 349.83)"/><path class="cls-1" d="M673.56-231c-.69.63-3,2.81-3.84,2.81-1,0-3.12-2.77-3.2-5-.14-5.25,9.29-10.63,13.5-10.75a2.34,2.34,0,0,1,2.36,2c0,.51-1,.93-1.27,1.05a1.68,1.68,0,0,1,1,1.72c0,1.35-3.16,4.29-3.16,6.26a1,1,0,0,0,1.13,1c1.52,0,3.59-2.14,5.15-3.36l.29,1.55c-1.56,2.06-6.42,6.55-8.2,6.55-1.2,0-1.74-1-1.74-2.22A15.78,15.78,0,0,1,677-234l-.07-.08Zm-4.39-1.09c0,.21.18,1,.73.84.72-.17,1.85-.05,9-8.44l-.07-.09C670.23-236.69,669.17-234.13,669.17-232.07Z" transform="translate(-160.22 349.83)"/><path class="cls-1" d="M687.86-237.24c-1.27,2.31-2.8,3.4-4.36,5.21l-.14-1.85a14.39,14.39,0,0,0,2.39-3.06c-.76-.09-1-.42-1-1.31,0-3,3.7-6,4.57-6a.69.69,0,0,1,.66.71,3.17,3.17,0,0,1-.26,1.18c3.41-.55,5.41-1,5.77-.55a4.57,4.57,0,0,1,.87,2.23,3.54,3.54,0,0,1-1.52,2.73c-1.06,1.05-2.83,3.1-2.83,4.78a1.19,1.19,0,0,0,1.12,1.18c1.56,0,3.85-2.73,5-3.78l.26,1.55c-1.38,1.81-5.55,6.47-7.62,6.47-1.52,0-2.47-1.64-2.47-3.23,0-2.86,1.89-5.09,3.34-7.1l-.07-.08Z" transform="translate(-160.22 349.83)"/><path class="cls-1" d="M714.92-236.44l.29,1.85c-1.92,2-5.66,7.13-8.31,7.13-1.38,0-2-1.34-2-2.77,0-2.52,2-5.29,3.12-7.22l-.07-.08a31.28,31.28,0,0,0-5.59,6.42c-.54.8-1.89,2.86-2.87,2.86-1.59,0-2-2.65-2-4.08-.11-2.89,2.18-7.13,4.28-9.19a1.66,1.66,0,0,1,1.42-.51c2.17.09,2,.68,2,.93,0,1.64-4.57,5.88-4.57,6.88a.44.44,0,0,0,.4.47c.25,0,.58-.38.73-.59,2.9-4.28,9.57-9.45,10.63-9.45.14,0,.36.21.58.8a11.49,11.49,0,0,1,.54,2.27c0,1.63-4.46,4.82-4.46,7.72a.74.74,0,0,0,.65.76c.87,0,2.47-1.47,3.12-2.1Z" transform="translate(-160.22 349.83)"/><path class="cls-1" d="M724.86-233.59c-1.64,2.31-4.83,6.09-7.59,6.09-2.14,0-3.12-2.85-3.12-5,0-5.13,4.54-10.12,6.72-10.12.61,0,1.59.25,1.59,1.17,0,2.1-3.59,5.84-5.11,7.06-.29,1.72.25,2.64,1.92,2.64,1.92,0,3.81-2.22,5.26-3.44Zm-3.49-11.67a3.49,3.49,0,0,1,3.16-3.23,1.23,1.23,0,0,1,1.2,1.3c0,1.68-1.34,3.74-2.9,3.74C722-243.45,721.37-244.25,721.37-245.26Z" transform="translate(-160.22 349.83)"/><path class="cls-1" d="M741.69-236.44l.29,1.85c-1.92,2-5.66,7.13-8.31,7.13-1.38,0-2-1.34-2-2.77,0-2.52,2-5.29,3.12-7.22l-.07-.08a31.28,31.28,0,0,0-5.59,6.42c-.54.8-1.89,2.86-2.87,2.86-1.59,0-2-2.65-2-4.08-.11-2.89,2.18-7.13,4.28-9.19a1.67,1.67,0,0,1,1.42-.51c2.18.09,2,.68,2,.93,0,1.64-4.57,5.88-4.57,6.88a.44.44,0,0,0,.4.47c.26,0,.58-.38.73-.59,2.9-4.28,9.58-9.45,10.63-9.45.14,0,.36.21.58.8a10.83,10.83,0,0,1,.54,2.27c0,1.63-4.46,4.82-4.46,7.72a.74.74,0,0,0,.65.76c.87,0,2.47-1.47,3.12-2.1Z" transform="translate(-160.22 349.83)"/><path class="cls-1" d="M751.08-234.22l-.07-.08c-1.3,1.68-5.11,5.5-7.11,5.5s-2.72-3.06-2.72-4.91c0-5.5,7.91-9.95,10.7-10.25.51,0,1.93.13,1.93,1.05,0,.76-.73,1.35-1.2,1.72l-4.14,2.61c-2.28,1.43-5,2.6-4.64,5.67,0,.33.25.42.58.42,1,.12,3.23-.89,4.61-2.61l3.88-5c.36-.46.8-1.18,1.38-1.18s1.38,1.43,1.38,2.14a6.45,6.45,0,0,1-.77,2.15l-2.72,5.87.08.09,5.51-4.58.18,1.76-7.65,6.64c-3.81,7-7,9.7-8.42,9.7a.9.9,0,0,1-.83-1c0-3,5.51-8.31,7.5-10Z" transform="translate(-160.22 349.83)"/><path class="cls-2" d="M765.94-326.67a1.66,1.66,0,0,0-.19.46c-.51,3.7-1.21,7.38-1.93,11s-1.47,7.62-2.21,11.42c-1.18,6.07-2.51,12.1-4.13,18.06a20.18,20.18,0,0,1-5.4,9.34,19.58,19.58,0,0,1-2.2,1.87,21.11,21.11,0,0,1-9.85,3.89,36.31,36.31,0,0,1-4.42.29q-21.63,0-43.27,0a20,20,0,0,1-5.81-.74c-5-1.49-7.79-4.89-8.79-9.9a18.86,18.86,0,0,1-.27-4.11,46,46,0,0,1,1-8.68c1.64-8,3.32-16,5-24q1.08-5.21,2.12-10.4a24,24,0,0,1,3.08-8.13,21.52,21.52,0,0,1,15.47-10.23c.94-.15,1.9-.23,2.86-.33a7.09,7.09,0,0,1,1,0c3.77.26,7.54.32,11.32.31l28-.15c1.27,0,2.54,0,3.81.05s2.33.08,3.5.17a14.24,14.24,0,0,1,4.2,1,10.8,10.8,0,0,1,5.72,5.09,10.21,10.21,0,0,1,1.17,3.07,1.51,1.51,0,0,0,.18.36Zm-48.15,41v-.06c1.89-.06,3.78-.08,5.66-.18a5.05,5.05,0,0,0,4.83-3.4,16.46,16.46,0,0,0,.76-2.66c.92-4.68,1.79-9.37,2.68-14.06s1.74-9.16,2.6-13.75c.43-2.3.85-4.59,1.22-6.89a12.75,12.75,0,0,0,.13-2.47,2.45,2.45,0,0,0-2-2.53,8.91,8.91,0,0,0-2.23-.33c-3.37,0-6.73,0-10.1,0a10,10,0,0,0-3.24.54,4.68,4.68,0,0,0-2.87,2.62,12.5,12.5,0,0,0-.82,2.65c-1,4.67-1.93,9.34-2.85,14-1.25,6.26-2.45,12.53-3.67,18.79a22.16,22.16,0,0,0-.36,4.3,2.83,2.83,0,0,0,2,2.83,5.67,5.67,0,0,0,1.28.36,20.7,20.7,0,0,0,2.36.22C714.7-285.62,716.24-285.64,717.79-285.64Z" transform="translate(-160.22 349.83)"/><path class="cls-2" d="M416.84-347.07a10,10,0,0,1-.06,1.23c-.88,5-1.78,10.07-2.67,15.11-.05.27-.13.53-.22.87a4,4,0,0,1-.42-.22,1,1,0,0,1-.2-.24,3.51,3.51,0,0,0-2.71-1.48A22,22,0,0,0,408-332c-7.76,0-15.52,0-23.28,0-2.61,0-5.22.1-7.83.21a14.72,14.72,0,0,0-2.64.37,4,4,0,0,0-3.16,3.06c-.31,1.16-.56,2.34-.78,3.52q-2.07,11.07-4.12,22.16c-.62,3.38-1.19,6.76-1.77,10.14a8.19,8.19,0,0,0,0,3.38,4,4,0,0,0,2.52,2.91,8,8,0,0,0,3,.59c1.92,0,3.84,0,5.76-.07,1,0,1.93,0,2.89,0,1.75,0,3.5.09,5.25.08s1.9-.2,2.38-1.85a28.82,28.82,0,0,0,.64-3.23c.3-1.72.57-3.45.85-5.18,0-.1,0-.2,0-.37-.52,0-1,.14-1.5.18s-1.1.11-1.64.17l-1.54.17-1.53.17-1.54.17c-.55.06-1.09.14-1.64.19l-1.45.1a1.06,1.06,0,0,1-.29-.94,27.79,27.79,0,0,1,.53-5.53,20.06,20.06,0,0,1,1.15-4.16,16.72,16.72,0,0,1,1.1-2.2,6.33,6.33,0,0,1,1.07-1.25,2.87,2.87,0,0,1,2.06-.8H400c3.36,0,6.73.06,10.1.1a14.57,14.57,0,0,1,1.74.14,4.39,4.39,0,0,1,2.84,1.53,7.14,7.14,0,0,1,1.79,4.5,34.27,34.27,0,0,1-.51,6.15c-1,6.38-2.15,12.72-3.33,19.06-.34,1.79-.58,3.59-.89,5.39a13.87,13.87,0,0,1-.41,1.69,1.45,1.45,0,0,1-1.34,1.11,10.73,10.73,0,0,1-1.13.08l-58,0c-1.34,0-2.68,0-4,0a20.07,20.07,0,0,1-3.79-.32,8.3,8.3,0,0,1-4.71-2.75,11.53,11.53,0,0,1-2.61-5.53,21.45,21.45,0,0,1-.32-5.43,78.32,78.32,0,0,1,1.2-8.77q1-5.62,2-11.25c.86-4.8,1.72-9.6,2.61-14.39.61-3.3,1.26-6.61,1.92-9.9a37.52,37.52,0,0,1,2-7,20.07,20.07,0,0,1,1.65-3.19,15.72,15.72,0,0,1,5.33-5.21,20.78,20.78,0,0,1,5.95-2.5,3.27,3.27,0,0,0,1.53-.53Z" transform="translate(-160.22 349.83)"/><path class="cls-2" d="M584.14-305.33c.11-.46.19-.76.24-1.05,1.33-7.51,2.62-15,4-22.51.58-3.24,1.29-6.46,1.93-9.69a16.06,16.06,0,0,0,.29-1.93,7.85,7.85,0,0,0-1.28-5c-.12-.19-.23-.4-.33-.57.14-.25.33-.2.49-.21h34.2l1.2,0a.77.77,0,0,1-.21.89c-.24.29-.53.54-.77.83a12.16,12.16,0,0,0-2.24,4.14c-.79,2.45-1.41,5-2,7.46-1.23,5.35-2.25,10.75-3.14,16.16q-1.21,7.43-2.39,14.84c-.6,3.8-1.14,7.61-1.74,11.4s-1.28,7.72-1.93,11.58c-.14.81-.3,1.62-.44,2.43a5.64,5.64,0,0,0,.06,2.35c.2.73.38,1.46.57,2.19a2.83,2.83,0,0,1,.08,1.56,4.2,4.2,0,0,1-.59.14c-.27,0-.55,0-.82,0H577c-.28,0-.55,0-.82,0a3,3,0,0,1-.53-.16c.14-.3.25-.54.38-.78.86-1.6,1.73-3.2,2.58-4.81a8.69,8.69,0,0,0,.91-2.83,6,6,0,0,0-.54-3.51,18.71,18.71,0,0,0-1-1.79c-.44-.69-.93-1.36-1.41-2l-24.72-34.25c-1-1.34-1.92-2.67-2.91-4a3.49,3.49,0,0,0-1-1,1.23,1.23,0,0,0-.31.75c-.57,3.14-1.13,6.28-1.7,9.42q-1.19,6.58-2.38,13.17-1.07,6-2.14,12l-1.95,10.74c-.17,1-.37,2-.47,2.95a7,7,0,0,0,.07,1.94c.13.84.39,1.67.57,2.51a5.9,5.9,0,0,1,.13,1.11.46.46,0,0,1-.44.48c-.24,0-.48,0-.72,0H507.14a.31.31,0,0,1,0-.5,9.23,9.23,0,0,0,2.2-3.79,63.24,63.24,0,0,0,2.06-7c1.2-4.9,2.22-9.84,3.12-14.8s1.76-9.73,2.6-14.6c.68-4,1.29-7.92,2-11.89.78-4.7,1.6-9.4,2.36-14.11.23-1.45.35-2.93.47-4.4a8.39,8.39,0,0,0-.44-3.14,8.4,8.4,0,0,1-.27-1.1c-.08-.42.08-.65.52-.74a4.58,4.58,0,0,1,1.22-.1c3.74.29,7.48.18,11.22.19,2.51,0,5,0,7.52,0,1.62,0,3.23-.09,4.84-.11s3.51-.06,5.26,0a5,5,0,0,1,4.41,2.4c.07.12.16.23.23.34l5.25,7.52c5.6,8.07,11.17,16.15,17,24.09,1.31,1.8,2.68,3.57,4,5.34A9.76,9.76,0,0,0,584.14-305.33Z" transform="translate(-160.22 349.83)"/><path class="cls-2" d="M255.71-325.62a7.08,7.08,0,0,0-.22.77q-2,11-4,22-2.11,11.7-4.24,23.4c-.16.91-.31,1.83-.44,2.74a6.89,6.89,0,0,0,.1,2.56l.39,1.6c.08.3.16.6.22.9.21,1,0,1.24-1,1.24H216.07a3.75,3.75,0,0,1-1.18-.08c.08-.18.09-.32.18-.4a9.06,9.06,0,0,0,2.13-3.59,60.17,60.17,0,0,0,2-6.71c1.19-4.72,2.17-9.5,3.07-14.29q1.26-6.78,2.43-13.58c.75-4.32,1.43-8.66,2.15-13q1.26-7.56,2.53-15.13a35.05,35.05,0,0,0,.46-4.09,9.68,9.68,0,0,0-.41-3.25c-.11-.4-.24-.79-.31-1.2a.57.57,0,0,1,.5-.76,4.73,4.73,0,0,1,1.12-.11c6.35.41,12.7.13,19.05.16,1.55,0,3.09-.08,4.64-.11s3.23,0,4.84-.06l.72,0a5,5,0,0,1,4.06,2.29c1.44,2.09,2.9,4.17,4.36,6.25q8.44,12.06,16.92,24.11c1.57,2.22,3.23,4.36,4.86,6.53.42.55.87,1.06,1.33,1.58a4.07,4.07,0,0,0,.53.44c.11-.42.21-.74.27-1.06.52-2.94,1-5.89,1.54-8.83l1.77-10c.77-4.43,1.6-8.85,2.56-13.24.11-.51.22-1,.28-1.52a8.07,8.07,0,0,0-1.07-5.15l-.49-.82c.1-.29.3-.24.45-.25h34.21l1.3,0a2.88,2.88,0,0,1-.13.63,1.75,1.75,0,0,1-.38.48,11.21,11.21,0,0,0-2.89,5c-.67,2.34-1.31,4.69-1.87,7.06-1.24,5.28-2.24,10.61-3.12,16s-1.75,10.77-2.6,16.16c-.67,4.21-1.27,8.42-1.94,12.62-.61,3.76-1.27,7.51-1.93,11.27a7.34,7.34,0,0,0,.09,3.36c.19.66.35,1.32.53,2a2.26,2.26,0,0,1,0,1.24,3.73,3.73,0,0,1-.59.16c-.31,0-.62,0-.93,0q-16.12,0-32.25,0a2.11,2.11,0,0,1-1.35-.2c.12-.24.23-.49.35-.72.88-1.64,1.77-3.26,2.63-4.9a8.15,8.15,0,0,0,.93-3.35,5.91,5.91,0,0,0-.59-2.9,13.43,13.43,0,0,0-.79-1.44c-.46-.72-.95-1.43-1.45-2.13Q273-302.05,261.36-318.17c-1-1.33-1.9-2.69-2.86-4-.59-.81-1.19-1.6-1.81-2.38C256.44-324.9,256.14-325.17,255.71-325.62Z" transform="translate(-160.22 349.83)"/><path class="cls-2" d="M496.19-288.7c-.09.38-.15.68-.22,1q-2.1,7.92-4.18,15.83c-.33,1.24-.53,1.38-1.78,1.37-9,0-18-.13-27,0-7.28.11-14.56,0-21.84.13-3,0-6,.11-9,.11a13.49,13.49,0,0,1-3.17-.32,8.09,8.09,0,0,1-6.43-6.72,19.5,19.5,0,0,1-.12-5.34,130.09,130.09,0,0,1,2.06-13.74c.45-2.47.86-4.94,1.29-7.41s.92-5.06,1.36-7.6c.47-2.81.92-5.62,1.39-8.43.75-4.54,1.59-9.06,2.68-13.53a17.5,17.5,0,0,1,3.7-7.28,14,14,0,0,1,2.15-2.06,26.25,26.25,0,0,1,4.9-3,7.39,7.39,0,0,1,3-.69l8-.14h3.3l37.4-.11h2.16a7,7,0,0,1,5.09,2.14,11.24,11.24,0,0,1,3.22,6,19.79,19.79,0,0,1,.27,4.21,44.37,44.37,0,0,1-1,7.86q-1.31,6.51-2.4,13.06c-.47,2.84-1,5.67-1.51,8.51-.18,1-.34,2-.51,2.94a9.18,9.18,0,0,1-.19.91c-.18.7-.42.89-1.15.94-.24,0-.48,0-.72,0H454.66c-.28,0-.55,0-.83,0a1.21,1.21,0,0,0-1.19,1,20,20,0,0,0-.44,2c-.22,1.6-.43,3.2-.58,4.8a9.17,9.17,0,0,0,.26,3.17,5.23,5.23,0,0,0,3.14,3.71,16.6,16.6,0,0,0,3.67,1,35.59,35.59,0,0,0,7.07.59c2.68-.05,5.36-.08,8-.21a67.66,67.66,0,0,0,17.76-3.34c1-.34,2.08-.71,3.12-1A2.91,2.91,0,0,1,496.19-288.7Zm-40.47-27.15h21c1.34,0,1.36,0,1.61-1.31.5-2.66,1-5.32,1.47-8a10,10,0,0,0,.1-3.28,3.79,3.79,0,0,0-2.08-2.89,8.1,8.1,0,0,0-1.35-.5,25.31,25.31,0,0,0-9.49-.75,21.33,21.33,0,0,0-4,.76,9.87,9.87,0,0,0-3,1.4,4.53,4.53,0,0,0-1.78,2.45c-.24.89-.54,1.78-.73,2.68-.59,2.86-1.14,5.72-1.69,8.58A7,7,0,0,0,455.72-315.85Z" transform="translate(-160.22 349.83)"/><path class="cls-2" d="M199.06-270.4a3.29,3.29,0,0,1-1.24.12c-6.79,0-13.59,0-20.39,0-3.67,0-7.34-.08-11-.12-.37,0-.74,0-1.06-.07a.63.63,0,0,1-.07-.74,2.43,2.43,0,0,1,.2-.35,25.39,25.39,0,0,0,3.23-8.53c.45-2.25.8-4.52,1.22-6.78.58-3.14,1.19-6.27,1.79-9.4,1-5.23,2-10.44,3-15.67q1.23-6.57,2.39-13.17c.72-4.15,1.38-8.32,1.87-12.51.13-1.09.2-2.19.27-3.29a10,10,0,0,0-.25-3.27,5.81,5.81,0,0,1-.16-1.32.51.51,0,0,1,.49-.56,5.63,5.63,0,0,1,.82,0h31a1.8,1.8,0,0,1,1.22.23,2.22,2.22,0,0,1-.26.46,17,17,0,0,0-3.82,8.2c-.4,2-.69,4.06-1,6.09-.39,2.51-.72,5-1.13,7.54q-.94,5.63-2,11.25c-.77,4.18-1.58,8.36-2.37,12.54q-1.71,9-3.43,18.1c-.24,1.24-.49,2.49-.69,3.74a12.35,12.35,0,0,0-.18,3.38,8,8,0,0,0,1,3.11C198.68-271.12,198.83-270.81,199.06-270.4Z" transform="translate(-160.22 349.83)"/><path class="cls-2" d="M640-345.95c.83-.12,33.52-.14,34.57,0a1.21,1.21,0,0,1,0,.38,1.42,1.42,0,0,1-.26.44,24.82,24.82,0,0,0-3.81,7.82,46.05,46.05,0,0,0-1.64,7.43c-.56,4-1.25,8-2,12-.66,3.68-1.3,7.37-1.95,11.05s-1.3,7.36-2,11.05l-2,11c-.25,1.42-.53,2.84-.72,4.26a19.49,19.49,0,0,0,.29,7.57c.19.69.46,1.36.7,2,0,.16.09.31.17.54a3.81,3.81,0,0,1-.55.08c-.52,0-1,0-1.55,0H633.33c-1.37,0-2.74,0-4.12,0a8.54,8.54,0,0,1-1.13,0c-.58-.05-.76-.33-.61-.92a5.46,5.46,0,0,1,.28-.77c.28-.63.55-1.26.85-1.87a36.49,36.49,0,0,0,3.17-9.87c1.22-6.68,2.47-13.36,3.68-20,1-5.47,1.92-10.95,2.89-16.42.66-3.78,1.35-7.56,2-11.35.32-1.93.64-3.86.86-5.8a15.16,15.16,0,0,0-.7-6.91c-.14-.39-.28-.77-.4-1.17A3.83,3.83,0,0,1,640-345.95Z" transform="translate(-160.22 349.83)"/><g id="V2.0"><g id="Ellipse_1_copy_7" data-name="Ellipse 1 copy 7" class="cls-3"><circle class="cls-4" cx="828.68" cy="-276.18" r="49.41" transform="translate(606.49 944.94) rotate(-67.5)"/></g><g id="Ellipse_1_copy_6" data-name="Ellipse 1 copy 6" class="cls-3"><circle class="cls-4" cx="836.8" cy="-283.19" r="53.7" transform="translate(-104.05 480.21) rotate(-9.22)"/></g><g id="Ellipse_1_copy_5" data-name="Ellipse 1 copy 5" class="cls-3"><circle class="cls-5" cx="676.51" cy="66.63" r="45.68"/></g><g id="Ellipse_1_copy_2" data-name="Ellipse 1 copy 2" class="cls-3"><circle class="cls-6" cx="701.01" cy="103.93" r="25.68"/></g><g id="Ellipse_1_copy_4" data-name="Ellipse 1 copy 4" class="cls-3"><circle class="cls-7" cx="828.78" cy="-303.06" r="42.82" transform="translate(-100.98 478.67) rotate(-9.22)"/></g><g id="Ellipse_1" data-name="Ellipse 1" class="cls-3"><circle class="cls-5" cx="716.64" cy="68.77" r="30.08"/></g><g id="Ellipse_1_copy" data-name="Ellipse 1 copy" class="cls-3"><circle class="cls-5" cx="661.48" cy="106.39" r="25.68"/></g><g id="Ellipse_1_copy_8" data-name="Ellipse 1 copy 8"><circle class="cls-4" cx="707.48" cy="7.45" r="7.45"/></g><g id="Ellipse_1_copy_9" data-name="Ellipse 1 copy 9"><path class="cls-8" d="M886.91-327.65a3.58,3.58,0,0,0-3.58,3.58,3.58,3.58,0,0,0,3.58,3.59,3.59,3.59,0,0,0,3.59-3.59A3.58,3.58,0,0,0,886.91-327.65Z" transform="translate(-160.22 349.83)"/></g><g id="Ellipse_1_copy_10" data-name="Ellipse 1 copy 10"><circle class="cls-5" cx="897.39" cy="-245.46" r="4.6" transform="translate(-79.82 549.44) rotate(-13.28)"/></g><g id="Ellipse_1_copy_11" data-name="Ellipse 1 copy 11"><circle class="cls-6" cx="682.99" cy="133.7" r="3.57"/></g><g id="Ellipse_1_copy_12" data-name="Ellipse 1 copy 12"><circle class="cls-7" cx="611.08" cy="101.54" r="7.26"/></g><g id="Ellipse_1_copy_13" data-name="Ellipse 1 copy 13"><circle class="cls-5" cx="775.34" cy="-296.92" r="5.36" transform="translate(-159.35 352.09) rotate(-0.17)"/></g><text class="cls-9" transform="translate(627.8 92)">V2.0</text></g></svg>