<svg xmlns="http://www.w3.org/2000/svg" viewBox="0 0 48 48"><path fill="#ff004f" d="M32.06 19.368A13.42 13.42 0 0 0 40 21.963v-5.819c-.56 0-1.119-.059-1.667-.178v4.58a13.4 13.4 0 0 1-7.94-2.595v11.876c0 5.94-4.715 10.756-10.53 10.756A10.3 10.3 0 0 1 14 38.764a10.5 10.5 0 0 0 3.442 2.396c1.293.556 2.683.841 4.087.84 5.816 0 10.531-4.816 10.531-10.756zm2.057-5.871a8.2 8.2 0 0 1-2.057-4.749V8h-1.58a8.2 8.2 0 0 0 1.245 3.142 8.1 8.1 0 0 0 2.392 2.355M17.678 34.205a4.97 4.97 0 0 1-.982-2.979c0-2.717 2.157-4.92 4.817-4.92.496 0 .989.078 1.461.231v-5.949a10.4 10.4 0 0 0-1.667-.099v4.631a4.7 4.7 0 0 0-1.461-.231c-2.661 0-4.817 2.204-4.817 4.921-.001.91.246 1.803.714 2.579a4.86 4.86 0 0 0 1.935 1.816"/><path d="M29.867 17.773A14.14 14.14 0 0 0 38 20.322v-4.499a8.2 8.2 0 0 1-4.318-2.424 8.1 8.1 0 0 1-2.451-2.313A7.9 7.9 0 0 1 29.956 8h-4.251v22.827c-.01 2.661-2.216 4.816-4.935 4.816a5 5 0 0 1-2.194-.503 4.9 4.9 0 0 1-1.734-1.404 4.9 4.9 0 0 1-1.983-1.784 4.75 4.75 0 0 1-.732-2.533c0-2.669 2.21-4.832 4.935-4.832.522 0 1.026.079 1.498.226v-4.548C14.707 20.384 10 25.068 10 30.827c0 2.875 1.172 5.482 3.074 7.386A10.9 10.9 0 0 0 19.08 40c5.957 0 10.787-4.73 10.787-10.564z"/><path fill="#00f2ea" d="M38 15.33v-1.232a8.33 8.33 0 0 1-4.361-1.223A8.28 8.28 0 0 0 38 15.33m-8.123-7.921a8 8 0 0 1-.09-.665V6h-5.928v23.113c-.01 2.694-2.236 4.876-4.983 4.876a5.04 5.04 0 0 1-2.242-.522 4.95 4.95 0 0 0 1.751 1.422 5.1 5.1 0 0 0 2.216.509c2.746 0 4.973-2.182 4.983-4.877V7.409zm-9.488 12.419v-1.311a11 11 0 0 0-1.495-.1C12.877 18.417 8 23.206 8 29.113 8 32.816 9.917 36.08 12.829 38a10.56 10.56 0 0 1-3.104-7.479c0-5.831 4.753-10.573 10.664-10.693"/></svg>