<svg width="48" height="48" viewBox="0 0 48 48" fill="none" xmlns="http://www.w3.org/2000/svg">
<path d="M32.0604 19.368C34.3739 21.0595 37.1515 21.9673 40 21.963V16.1436C39.4396 16.1436 38.8807 16.0846 38.3326 15.9658V20.5464C35.4842 20.5505 32.7066 19.6427 30.3931 17.9513V29.827C30.3931 35.7674 25.6781 40.5833 19.8626 40.5833C17.7737 40.5866 15.7317 39.9529 14 38.7638C14.978 39.789 16.1485 40.6038 17.4419 41.1597C18.7353 41.7156 20.1252 42.0014 21.5292 42C27.3454 42 32.0604 37.1841 32.0604 31.2437V19.368ZM34.1171 13.497C32.94 12.1854 32.2175 10.5174 32.0604 8.74818V8H30.4801C30.6741 9.12446 31.0981 10.1949 31.7247 11.1418C32.3513 12.0888 33.1663 12.8912 34.1171 13.497ZM17.6783 34.2054C17.0392 33.3485 16.6941 32.3018 16.6961 31.226C16.6961 28.5092 18.8528 26.306 21.5133 26.306C22.0091 26.306 22.5021 26.3835 22.974 26.5369V20.5877C22.4219 20.5104 21.8646 20.4776 21.3074 20.4895V25.1203C20.8349 24.967 20.3419 24.8891 19.8459 24.8893C17.1854 24.8893 15.0287 27.0925 15.0287 29.81C15.0277 30.7204 15.2748 31.6132 15.7426 32.3892C16.2104 33.1652 16.8805 33.7939 17.6783 34.2054Z" fill="#FF004F"/>
<path d="M29.867 17.7734C32.2369 19.4345 35.0821 20.3261 38 20.322V15.8234C36.3367 15.4744 34.8268 14.6266 33.6817 13.3987C32.7078 12.8037 31.8729 12.0157 31.231 11.0857C30.5892 10.1556 30.1548 9.10435 29.9561 8H25.7047V30.8266C25.695 33.4882 23.4895 35.6426 20.77 35.6426C20.0087 35.643 19.2577 35.471 18.5761 35.1402C17.8944 34.8094 17.3007 34.3287 16.8416 33.7361C16.0243 33.3319 15.3379 32.7145 14.8587 31.9524C14.3796 31.1903 14.1264 30.3134 14.1274 29.4193C14.1274 26.7504 16.3367 24.5866 19.062 24.5866C19.5841 24.5866 20.0876 24.6663 20.5599 24.8134V20.2655C14.7066 20.3843 10 25.0678 10 30.8266C10 33.702 11.1718 36.3086 13.0744 38.213C14.8483 39.3807 16.94 40.0031 19.0799 40C25.0371 40 29.867 35.2702 29.867 29.436V17.7734Z" fill="black"/>
<path d="M38 15.3298V14.098C36.4577 14.1001 34.9462 13.6762 33.6393 12.8749C34.7953 14.1185 36.3202 14.9769 38 15.3298ZM29.877 7.40872C29.838 7.18861 29.808 6.96703 29.787 6.74398V6H23.859V29.1133C23.8493 31.8068 21.6228 33.9888 18.8759 33.9888C18.0969 33.99 17.3287 33.8113 16.6337 33.4671C17.0972 34.0672 17.6968 34.5538 18.3851 34.8888C19.0735 35.2238 19.8319 35.3979 20.6007 35.3975C23.3468 35.3975 25.5741 33.2162 25.5838 30.5213V7.40872H29.877ZM20.3885 19.8282V18.5171C19.8932 18.4505 19.3938 18.4172 18.8939 18.4173C12.8774 18.4173 8 23.2062 8 29.1133C8 32.8163 9.91676 36.0799 12.8294 38C10.8343 36.0005 9.71976 33.3156 9.72478 30.5213C9.72478 24.6898 14.4784 19.9485 20.3885 19.8282Z" fill="#00F2EA"/>
</svg>
