<svg xmlns="http://www.w3.org/2000/svg" viewBox="0 0 48 48"><path fill="#fff" d="M24 8a16 16 0 0 0-11.314 4.686C9.687 15.686 8 19.758 8 24s1.687 8.314 4.686 11.314C15.686 38.313 19.758 40 24 40s8.314-1.687 11.314-4.686C38.313 32.314 40 28.242 40 24s-1.687-8.314-4.686-11.314A16 16 0 0 0 24 8"/><path fill="#fff" d="m9.282 38.996 2.544-8.009 5.685 6.301z"/><path fill="#40c351" fill-rule="evenodd" d="M36.806 11.266a17.8 17.8 0 0 0-5.822-3.906A17.8 17.8 0 0 0 24.106 6C14.21 6 6.154 14.054 6.15 23.954c0 3.164.826 6.252 2.396 8.976L6 42.232l9.518-2.498a17.96 17.96 0 0 0 8.58 2.186h.008c9.894 0 17.95-8.054 17.954-17.954a17.85 17.85 0 0 0-1.356-6.876 17.9 17.9 0 0 0-3.898-5.824m-12.7 27.624H24.1c-2.673 0-5.297-.719-7.596-2.082l-.544-.324-5.648 1.482 1.506-5.506-.354-.564a14.9 14.9 0 0 1-2.282-7.942c.004-8.228 6.698-14.922 14.93-14.922a14.83 14.83 0 0 1 10.55 4.376 14.8 14.8 0 0 1 3.24 4.842 14.85 14.85 0 0 1 1.126 5.716c-.004 8.228-6.698 14.924-14.922 14.924m8.186-11.178c-.45-.226-2.654-1.31-3.066-1.46-.41-.15-.708-.224-1.008.224s-1.16 1.458-1.422 1.758-.524.336-.972.112-1.894-.698-3.608-2.226c-1.334-1.19-2.234-2.658-2.496-3.108s-.028-.692.198-.916c.202-.2.448-.524.672-.786s.298-.448.448-.748.076-.562-.038-.786c-.112-.226-1.01-2.434-1.384-3.332-.362-.87-.732-.754-1.008-.766a19 19 0 0 0-.858-.016 1.6 1.6 0 0 0-.657.155 1.6 1.6 0 0 0-.541.405c-.412.45-1.57 1.534-1.57 3.742s1.608 4.342 1.832 4.642 3.164 4.83 7.664 6.774c1.072.462 1.908.738 2.558.946 1.074.342 2.052.292 2.826.178.862-.128 2.654-1.084 3.028-2.132s.374-1.946.262-2.134-.414-.302-.86-.526"/></svg>