<svg width="48" height="48" viewBox="0 0 48 48" fill="none" xmlns="http://www.w3.org/2000/svg">
<circle cx="24" cy="24" r="16" fill="white"/>
<path d="M9.28174 38.9965L11.8264 30.9866L17.5105 37.2876L9.28174 38.9965Z" fill="white"/>
<path fill-rule="evenodd" clip-rule="evenodd" d="M36.806 11.266C35.1427 9.59177 33.1637 8.26423 30.9837 7.36029C28.8037 6.45636 26.466 5.994 24.106 6C14.21 6 6.154 14.054 6.15 23.954C6.15 27.118 6.976 30.206 8.546 32.93L6 42.232L15.518 39.734C18.1508 41.1671 21.1004 41.9186 24.098 41.92H24.106C34 41.92 42.056 33.866 42.06 23.966C42.0668 21.607 41.606 19.27 40.7042 17.0901C39.8023 14.9103 38.4774 12.9307 36.806 11.266ZM24.106 38.89H24.1C21.427 38.89 18.803 38.171 16.504 36.808L15.96 36.484L10.312 37.966L11.818 32.46L11.464 31.896C9.96958 29.5168 9.17847 26.7636 9.182 23.954C9.186 15.726 15.88 9.032 24.112 9.032C26.0725 9.02759 28.0144 9.41208 29.8253 10.1632C31.6362 10.9144 33.2802 12.0172 34.662 13.408C36.0513 14.792 37.1525 16.4377 37.9019 18.25C38.6512 20.0622 39.034 22.005 39.028 23.966C39.024 32.194 32.33 38.89 24.106 38.89ZM32.292 27.712C31.842 27.486 29.638 26.402 29.226 26.252C28.816 26.102 28.518 26.028 28.218 26.476C27.918 26.924 27.058 27.934 26.796 28.234C26.534 28.534 26.272 28.57 25.824 28.346C25.376 28.122 23.93 27.648 22.216 26.12C20.882 24.93 19.982 23.462 19.72 23.012C19.458 22.562 19.692 22.32 19.918 22.096C20.12 21.896 20.366 21.572 20.59 21.31C20.814 21.048 20.888 20.862 21.038 20.562C21.188 20.262 21.114 20 21 19.776C20.888 19.55 19.99 17.342 19.616 16.444C19.254 15.574 18.884 15.69 18.608 15.678C18.3222 15.6663 18.0361 15.6609 17.75 15.662C17.5225 15.6678 17.2987 15.7205 17.0925 15.8169C16.8864 15.9133 16.7023 16.0512 16.552 16.222C16.14 16.672 14.982 17.756 14.982 19.964C14.982 22.172 16.59 24.306 16.814 24.606C17.038 24.906 19.978 29.436 24.478 31.38C25.55 31.842 26.386 32.118 27.036 32.326C28.11 32.668 29.088 32.618 29.862 32.504C30.724 32.376 32.516 31.42 32.89 30.372C33.264 29.324 33.264 28.426 33.152 28.238C33.04 28.05 32.738 27.936 32.292 27.712Z" fill="#40C351"/>
</svg>
