<svg xmlns="http://www.w3.org/2000/svg" viewBox="0 0 48 48"><path fill="#fff" d="M24 6a18 18 0 0 0-12.728 5.272A18 18 0 0 0 6 24c0 4.772 1.898 9.354 5.272 12.728A18 18 0 0 0 24 42c4.772 0 9.354-1.898 12.728-5.272A18 18 0 0 0 42 24c0-4.772-1.898-9.354-5.272-12.728A18 18 0 0 0 24 6"/><path fill="#229ed9" d="M24 4C12.972 4 4 12.972 4 24s8.972 20 20 20 20-8.972 20-20S35.028 4 24 4m15.862 18h-5.528A29.3 29.3 0 0 0 30.75 9.514 16.03 16.03 0 0 1 39.862 22M25.06 8.054c2.07 2.728 4.854 7.56 5.254 13.946H18.06c.278-5.192 1.988-10.056 4.902-13.948C23.306 8.032 23.65 8 24 8c.358 0 .708.032 1.06.054m-7.684 1.4c-1.968 3.782-3.104 8.07-3.316 12.546H8.138a16 16 0 0 1 2.992-7.471 16 16 0 0 1 6.246-5.075M8.138 26h5.948c.272 4.758 1.33 8.956 3.112 12.46A16.02 16.02 0 0 1 8.138 26M22.9 39.946C20.098 36.55 18.444 31.792 18.082 26h12.226c-.416 5.546-2.234 10.392-5.206 13.944-.364.024-.728.056-1.102.056-.372 0-.734-.032-1.1-.054m8.022-1.544c1.91-3.588 3.076-7.802 3.382-12.402h5.556a16.01 16.01 0 0 1-8.938 12.402"/></svg>