<svg xmlns="http://www.w3.org/2000/svg" viewBox="0 0 48 48"><defs><clipPath id="a"><path d="M0 0h48v48H0Z"/></clipPath></defs><g clip-path="url(#a)"><path fill="#ff0302" d="M43.087 14.371a5 5 0 0 0-3.514-3.535C36.467 10 24.048 10 24.048 10s-12.419 0-15.526.836a5 5 0 0 0-3.514 3.535c-.83 3.122-.83 9.629-.83 9.629s0 6.507.83 9.629a5 5 0 0 0 3.514 3.535C11.629 38 24.048 38 24.048 38s12.419 0 15.525-.836a5 5 0 0 0 3.514-3.535c.831-3.122.831-9.629.831-9.629s0-6.507-.831-9.629"/><path fill="#fefefe" d="M19.983 29.909V18.091L30.37 24z"/></g></svg>