<svg width="48" height="48" viewBox="0 0 48 48" fill="none" xmlns="http://www.w3.org/2000/svg">
<g clip-path="url(#clip0_128_8)">
<mask id="mask0_128_8" style="mask-type:luminance" maskUnits="userSpaceOnUse" x="0" y="0" width="48" height="48">
<path d="M0 0H48V48H0V0Z" fill="white"/>
</mask>
<g mask="url(#mask0_128_8)">
<path d="M43.0865 14.3714C42.8616 13.5261 42.4188 12.7546 41.8021 12.1342C41.1855 11.5138 40.4168 11.0662 39.5728 10.8363C36.4665 10.0001 24.0478 10.0001 24.0478 10.0001C24.0478 10.0001 11.6292 10.0001 8.52203 10.8363C7.67809 11.0662 6.90935 11.5138 6.29272 12.1342C5.6761 12.7546 5.23321 13.5261 5.00837 14.3714C4.17798 17.4927 4.17798 24 4.17798 24C4.17798 24 4.17798 30.5074 5.00837 33.6286C5.23321 34.474 5.6761 35.2454 6.29272 35.8658C6.90935 36.4862 7.67809 36.9338 8.52203 37.1638C11.6292 38 24.0478 38 24.0478 38C24.0478 38 36.4665 38 39.5728 37.1638C40.4168 36.9338 41.1855 36.4862 41.8021 35.8658C42.4188 35.2454 42.8616 34.474 43.0865 33.6286C43.9177 30.5074 43.9177 24 43.9177 24C43.9177 24 43.9177 17.4927 43.0865 14.3714Z" fill="#FF0302"/>
<path d="M19.9835 29.9088V18.0912L30.3696 24L19.9835 29.9088Z" fill="#FEFEFE"/>
</g>
</g>
<defs>
<clipPath id="clip0_128_8">
<rect width="48" height="48" fill="white"/>
</clipPath>
</defs>
</svg>
